SplineFontDB: 3.0
FontName: Illusion-Bold
FullName: Illusion Bold
FamilyName: Illusion
Weight: Bold
Copyright: Copyright 2015 Google Inc. All Rights Reserved.
Version: 0.1.1
ItalicAngle: 0
UnderlinePosition: -205
UnderlineWidth: 102
Ascent: 1798
Descent: 250
InvalidEm: 0
LayerCount: 2
Layer: 0 1 "+gMyXYgAA" 1
Layer: 1 1 "+Uk2XYgAA" 0
XUID: [1021 266 871575248 13742879]
StyleMap: 0x0020
FSType: 0
OS2Version: 4
OS2_WeightWidthSlopeOnly: 0
OS2_UseTypoMetrics: 0
CreationTime: 1547278235
ModificationTime: 1559440270
PfmFamily: 49
TTFWeight: 700
TTFWidth: 5
LineGap: 0
VLineGap: 0
Panose: 2 11 6 9 2 2 4 3 2 4
OS2TypoAscent: 1798
OS2TypoAOffset: 0
OS2TypoDescent: -250
OS2TypoDOffset: 0
OS2TypoLinegap: 448
OS2WinAscent: 1984
OS2WinAOffset: 0
OS2WinDescent: 512
OS2WinDOffset: 0
HheadAscent: 1984
HheadAOffset: 0
HheadDescent: -512
HheadDOffset: 0
OS2SubXSize: 1434
OS2SubYSize: 1331
OS2SubXOff: 0
OS2SubYOff: 287
OS2SupXSize: 1434
OS2SupYSize: 1331
OS2SupXOff: 0
OS2SupYOff: 977
OS2StrikeYSize: 108
OS2StrikeYPos: 760
OS2CapHeight: 1456
OS2XHeight: 1082
OS2Vendor: 'PfEd'
Lookup: 1 0 0 "'fwid' +UWiJ0gAA in +MOkwxjDzZYdbVwAA lookup 0" { "'fwid' +UWiJ0gAA in +MOkwxjDzZYdbVwAA lookup 0 subtable" ("full") } ['fwid' ('DFLT' <'JAN ' 'dflt' > 'latn' <'JAN ' 'dflt' > ) ]
Lookup: 1 0 0 "'hwid' +U0qJ0l5F in +MOkwxjDzZYdbVwAA lookup 1" { "'hwid' +U0qJ0l5F in +MOkwxjDzZYdbVwAA lookup 1 subtable" ("hw") } ['hwid' ('DFLT' <'JAN ' 'dflt' > 'latn' <'JAN ' 'dflt' > ) ]
MarkAttachClasses: 1
DEI: 91125
ShortTable: cvt  2
  68
  1297
EndShort
ShortTable: maxp 16
  1
  0
  1112
  196
  32
  107
  6
  2
  0
  1
  1
  0
  64
  0
  3
  2
EndShort
LangName: 1033 "" "" "" "Google:Illusion Bold:2019" "" "" "" "Roboto Mono is a trademark of Google." "" "Google" "" "Google.com" "Christian Robertson" "Licensed under the Apache License, Version 2.0" "http://www.apache.org/licenses/LICENSE-2.0"
GaspTable: 3 10 10 20 7 65535 15 1
Encoding: Original
UnicodeInterp: none
NameList: AGL For New Fonts
DisplaySize: -48

StartChar: .notdef
Encoding: 0 -1 0
Width: 748
Flags: W
LayerCount: 2
Fore
SplineSet
64 0 m 1,0,-1
 64 1456 l 1,1,-1
 684 1456 l 1,2,-1
 684 0 l 1,3,-1
 64 0 l 1,0,-1
144 80 m 1,4,-1
 604 80 l 1,5,-1
 604 1376 l 1,6,-1
 144 1376 l 1,7,-1
 144 80 l 1,4,-1
EndSplineSet
Validated: 1
EndChar

StartChar: exclam
Encoding: 4 33 4
Width: 1024
GlyphClass: 2
Flags: W
LayerCount: 2
Fore
SplineSet
610 509 m 1,0,-1
 400 509 l 1,1,-1
 387 1456 l 1,2,-1
 623 1456 l 1,3,-1
 610 509 l 1,0,-1
406 247 m 128,-1,5
 442 290 442 290 503.5 290 c 128,-1,6
 565 290 565 290 602 246 c 128,-1,7
 639 202 639 202 639 136.5 c 128,-1,8
 639 71 639 71 602 28 c 128,-1,9
 565 -15 565 -15 503.5 -15 c 128,-1,10
 442 -15 442 -15 406 27 c 128,-1,11
 370 69 370 69 370 136.5 c 128,-1,4
 370 204 370 204 406 247 c 128,-1,5
EndSplineSet
Validated: 1
EndChar

StartChar: quotedbl
Encoding: 5 34 5
Width: 1024
GlyphClass: 2
Flags: W
LayerCount: 2
Fore
SplineSet
404 1428 m 1,0,-1
 380 1008 l 1,1,-1
 233 1008 l 1,2,-1
 233 1536 l 1,3,-1
 404 1536 l 1,4,-1
 404 1428 l 1,0,-1
745 1428 m 1,5,-1
 722 1008 l 1,6,-1
 575 1008 l 1,7,-1
 575 1536 l 1,8,-1
 745 1536 l 1,9,-1
 745 1428 l 1,5,-1
EndSplineSet
Validated: 1
EndChar

StartChar: numbersign
Encoding: 6 35 6
Width: 1024
GlyphClass: 2
Flags: W
LayerCount: 2
Fore
SplineSet
539 410 m 1,0,-1
 372 410 l 1,1,-1
 311 0 l 1,2,-1
 163 0 l 1,3,-1
 223 410 l 1,4,-1
 34 410 l 1,5,-1
 34 579 l 1,6,-1
 248 579 l 1,7,-1
 291 869 l 1,8,-1
 96 869 l 1,9,-1
 96 1040 l 1,10,-1
 316 1040 l 1,11,-1
 379 1456 l 1,12,-1
 526 1456 l 1,13,-1
 465 1040 l 1,14,-1
 632 1040 l 1,15,-1
 693 1456 l 1,16,-1
 843 1456 l 1,17,-1
 780 1040 l 1,18,-1
 960 1040 l 1,19,-1
 960 869 l 1,20,-1
 755 869 l 1,21,-1
 712 579 l 1,22,-1
 897 579 l 1,23,-1
 897 410 l 1,24,-1
 687 410 l 1,25,-1
 627 0 l 1,26,-1
 478 0 l 1,27,-1
 539 410 l 1,0,-1
397 579 m 1,28,-1
 564 579 l 1,29,-1
 606 869 l 1,30,-1
 439 869 l 1,31,-1
 397 579 l 1,28,-1
EndSplineSet
Validated: 1
EndChar

StartChar: dollar
Encoding: 7 36 7
Width: 1024
GlyphClass: 2
Flags: W
LayerCount: 2
Fore
SplineSet
604 212 m 1,0,1
 644 224 644 224 680 263.5 c 128,-1,2
 716 303 716 303 716 363.5 c 128,-1,3
 716 424 716 424 706 456 c 0,4,5
 685 523 685 523 604 571 c 1,6,-1
 604 212 l 1,0,1
489 625 m 1,7,8
 326 699 326 699 265 766 c 0,9,10
 152 890 152 890 152 1064.5 c 128,-1,11
 152 1239 152 1239 243 1347 c 128,-1,12
 334 1455 334 1455 489 1473 c 1,13,-1
 489 1688 l 1,14,-1
 622 1688 l 1,15,-1
 622 1471 l 1,16,17
 772 1447 772 1447 858.5 1324.5 c 128,-1,18
 945 1202 945 1202 945 1005 c 1,19,-1
 715 1005 l 1,20,21
 715 1196 715 1196 604 1240 c 1,22,-1
 604 835 l 1,23,24
 773 755 773 755 833.5 688 c 128,-1,25
 894 621 894 621 920 550.5 c 128,-1,26
 946 480 946 480 946 388 c 0,27,28
 946 209 946 209 854 105 c 128,-1,29
 762 1 762 1 604 -17 c 1,30,-1
 604 -213 l 1,31,-1
 472 -213 l 1,32,-1
 472 -17 l 1,33,34
 222 12 222 12 136 248 c 0,35,36
 105 334 105 334 105 453 c 1,37,-1
 337 453 l 1,38,39
 337 240 337 240 489 208 c 1,40,-1
 489 625 l 1,7,8
489 1244 m 1,41,42
 382 1213 382 1213 382 1070 c 0,43,44
 382 991 382 991 415.5 953.5 c 128,-1,45
 449 916 449 916 489 891 c 1,46,-1
 489 1244 l 1,41,42
EndSplineSet
Validated: 1
EndChar

StartChar: percent
Encoding: 8 37 8
Width: 1229
GlyphClass: 2
Flags: W
LayerCount: 2
Fore
SplineSet
253 0 m 1,0,-1
 111 0 l 1,1,-1
 773 1456 l 1,2,-1
 915 1456 l 1,3,-1
 253 0 l 1,0,-1
29 1196 m 2,4,5
 29 1254 29 1254 43.5 1305 c 128,-1,6
 58 1356 58 1356 87.5 1394 c 128,-1,7
 117 1432 117 1432 161.5 1454.5 c 128,-1,8
 206 1477 206 1477 265 1477 c 0,9,10
 326 1477 326 1477 370 1454.5 c 128,-1,11
 414 1432 414 1432 443 1394 c 128,-1,12
 472 1356 472 1356 486.5 1305 c 128,-1,13
 501 1254 501 1254 501 1196 c 2,14,-1
 501 1119 l 2,15,16
 501 1062 501 1062 486.5 1011.5 c 128,-1,17
 472 961 472 961 443 922.5 c 128,-1,18
 414 884 414 884 370 862 c 128,-1,19
 326 840 326 840 266 840 c 256,20,21
 206 840 206 840 162 862 c 128,-1,22
 118 884 118 884 88.5 922.5 c 128,-1,23
 59 961 59 961 44 1011.5 c 128,-1,24
 29 1062 29 1062 29 1119 c 2,25,-1
 29 1196 l 2,4,5
185 1119 m 2,26,27
 185 1096 185 1096 189 1074.5 c 128,-1,28
 193 1053 193 1053 202.5 1036.5 c 128,-1,29
 212 1020 212 1020 228 1010.5 c 128,-1,30
 244 1001 244 1001 266 1001 c 256,31,32
 288 1001 288 1001 304 1010.5 c 128,-1,33
 320 1020 320 1020 329 1036.5 c 128,-1,34
 338 1053 338 1053 342 1074.5 c 128,-1,35
 346 1096 346 1096 346 1119 c 2,36,-1
 346 1196 l 2,37,38
 346 1219 346 1219 342 1240.5 c 128,-1,39
 338 1262 338 1262 328.5 1278.5 c 128,-1,40
 319 1295 319 1295 303.5 1304.5 c 128,-1,41
 288 1314 288 1314 265 1314 c 0,42,43
 243 1314 243 1314 227.5 1304.5 c 128,-1,44
 212 1295 212 1295 202.5 1278.5 c 128,-1,45
 193 1262 193 1262 189 1240.5 c 128,-1,46
 185 1219 185 1219 185 1196 c 2,47,-1
 185 1119 l 2,26,27
517 337 m 2,48,49
 517 394 517 394 532 445 c 128,-1,50
 547 496 547 496 576.5 534.5 c 128,-1,51
 606 573 606 573 650.5 595 c 128,-1,52
 695 617 695 617 754 617 c 0,53,54
 815 617 815 617 859 595 c 128,-1,55
 903 573 903 573 932 534.5 c 128,-1,56
 961 496 961 496 975.5 445 c 128,-1,57
 990 394 990 394 990 337 c 2,58,-1
 990 259 l 2,59,60
 990 202 990 202 976 151 c 128,-1,61
 962 100 962 100 932.5 62 c 128,-1,62
 903 24 903 24 859 2 c 128,-1,63
 815 -20 815 -20 755 -20 c 256,64,65
 695 -20 695 -20 650.5 2 c 128,-1,66
 606 24 606 24 576.5 62 c 128,-1,67
 547 100 547 100 532 151 c 128,-1,68
 517 202 517 202 517 259 c 2,69,-1
 517 337 l 2,48,49
673 259 m 2,70,71
 673 236 673 236 678 214.5 c 128,-1,72
 683 193 683 193 693.5 176.5 c 128,-1,73
 704 160 704 160 719.5 150.5 c 128,-1,74
 735 141 735 141 755 141 c 0,75,76
 781 141 781 141 797 150.5 c 128,-1,77
 813 160 813 160 821 176.5 c 128,-1,78
 829 193 829 193 831.5 214 c 128,-1,79
 834 235 834 235 834 259 c 2,80,-1
 834 337 l 2,81,82
 834 360 834 360 830 381 c 128,-1,83
 826 402 826 402 816.5 418.5 c 128,-1,84
 807 435 807 435 791.5 444.5 c 128,-1,85
 776 454 776 454 754 454 c 256,86,87
 732 454 732 454 716 444.5 c 128,-1,88
 700 435 700 435 690.5 418.5 c 128,-1,89
 681 402 681 402 677 381 c 128,-1,90
 673 360 673 360 673 337 c 2,91,-1
 673 259 l 2,70,71
EndSplineSet
Validated: 1
EndChar

StartChar: ampersand
Encoding: 9 38 9
Width: 1024
GlyphClass: 2
Flags: W
LayerCount: 2
Fore
SplineSet
62 371 m 0,0,1
 62 437 62 437 77.5 492 c 128,-1,2
 93 547 93 547 121 594.5 c 128,-1,3
 149 642 149 642 188.5 684 c 128,-1,4
 228 726 228 726 277 767 c 1,5,6
 228 856 228 856 201 935.5 c 128,-1,7
 174 1015 174 1015 174 1100 c 0,8,9
 174 1186 174 1186 197 1256 c 128,-1,10
 220 1326 220 1326 262.5 1375 c 128,-1,11
 305 1424 305 1424 364.5 1450.5 c 128,-1,12
 424 1477 424 1477 498 1477 c 0,13,14
 560 1477 560 1477 611 1450 c 128,-1,15
 662 1423 662 1423 698.5 1376.5 c 128,-1,16
 735 1330 735 1330 754.5 1269 c 128,-1,17
 774 1208 774 1208 774 1140 c 0,18,19
 774 1089 774 1089 761 1044 c 128,-1,20
 748 999 748 999 724.5 959.5 c 128,-1,21
 701 920 701 920 670 885 c 128,-1,22
 639 850 639 850 603 819 c 2,23,-1
 537 754 l 1,24,-1
 742 437 l 1,25,26
 769 494 769 494 783.5 562 c 128,-1,27
 798 630 798 630 798 708 c 1,28,-1
 995 708 l 1,29,30
 995 571 995 571 965 452.5 c 128,-1,31
 935 334 935 334 870 240 c 1,32,-1
 1026 0 l 1,33,-1
 762 0 l 1,34,-1
 708 83 l 1,35,36
 645 32 645 32 577.5 5.5 c 128,-1,37
 510 -21 510 -21 424 -21 c 0,38,39
 340 -21 340 -21 273 8 c 128,-1,40
 206 37 206 37 159 89 c 128,-1,41
 112 141 112 141 87 213 c 128,-1,42
 62 285 62 285 62 371 c 0,0,1
434 202 m 0,43,44
 477 202 477 202 518.5 216 c 128,-1,45
 560 230 560 230 598 256 c 1,46,-1
 380 598 l 1,47,-1
 374 592 l 2,48,49
 349 563 349 563 333 535 c 128,-1,50
 317 507 317 507 308.5 481 c 128,-1,51
 300 455 300 455 297 431.5 c 128,-1,52
 294 408 294 408 294 387 c 0,53,54
 294 347 294 347 304 313 c 128,-1,55
 314 279 314 279 332 254.5 c 128,-1,56
 350 230 350 230 376 216 c 128,-1,57
 402 202 402 202 434 202 c 0,43,44
383 1100 m 0,58,59
 383 1055 383 1055 398.5 1009.5 c 128,-1,60
 414 964 414 964 441 913 c 1,61,-1
 518 982 l 2,62,63
 544 1002 544 1002 557 1023.5 c 128,-1,64
 570 1045 570 1045 575.5 1064.5 c 128,-1,65
 581 1084 581 1084 581 1099.5 c 128,-1,66
 581 1115 581 1115 581 1124 c 0,67,68
 581 1148 581 1148 575 1171 c 128,-1,69
 569 1194 569 1194 558.5 1212 c 128,-1,70
 548 1230 548 1230 532.5 1241 c 128,-1,71
 517 1252 517 1252 498 1252 c 0,72,73
 469 1252 469 1252 447.5 1240 c 128,-1,74
 426 1228 426 1228 412 1207 c 128,-1,75
 398 1186 398 1186 390.5 1158.5 c 128,-1,76
 383 1131 383 1131 383 1100 c 0,58,59
EndSplineSet
Validated: 1
EndChar

StartChar: quotesingle
Encoding: 10 39 10
Width: 1024
GlyphClass: 2
Flags: W
LayerCount: 2
Fore
SplineSet
557 1394 m 1,0,-1
 534 993 l 1,1,-1
 379 993 l 1,2,-1
 379 1536 l 1,3,-1
 557 1536 l 1,4,-1
 557 1394 l 1,0,-1
EndSplineSet
Validated: 1
EndChar

StartChar: parenleft
Encoding: 11 40 11
Width: 1024
GlyphClass: 2
Flags: W
LayerCount: 2
Fore
SplineSet
272 704 m 128,-1,1
 272 1319 272 1319 665 1617 c 1,2,-1
 832 1531 l 1,3,4
 496 1276 496 1276 496 704 c 128,-1,5
 496 132 496 132 832 -123 c 1,6,-1
 665 -209 l 1,7,0
 272 89 272 89 272 704 c 128,-1,1
EndSplineSet
Validated: 1
EndChar

StartChar: parenright
Encoding: 12 41 12
Width: 1024
GlyphClass: 2
Flags: W
LayerCount: 2
Fore
SplineSet
752 704 m 128,-1,1
 752 89 752 89 359 -209 c 1,2,-1
 192 -123 l 1,3,4
 528 132 528 132 528 704 c 128,-1,5
 528 1276 528 1276 192 1531 c 1,6,-1
 359 1617 l 1,7,0
 752 1319 752 1319 752 704 c 128,-1,1
EndSplineSet
Validated: 1
EndChar

StartChar: asterisk
Encoding: 13 42 13
Width: 1024
GlyphClass: 2
Flags: W
LayerCount: 2
Fore
SplineSet
600 288 m 1,0,-1
 424 288 l 1,1,-1
 441 581 l 1,2,-1
 196 420 l 1,3,-1
 108 572 l 1,4,-1
 371 704 l 1,5,-1
 108 836 l 1,6,-1
 196 988 l 1,7,-1
 441 827 l 1,8,-1
 424 1120 l 1,9,-1
 600 1120 l 1,10,-1
 583 827 l 1,11,-1
 828 988 l 1,12,-1
 916 836 l 1,13,-1
 653 704 l 1,14,-1
 916 572 l 1,15,-1
 828 420 l 1,16,-1
 583 581 l 1,17,-1
 600 288 l 1,0,-1
EndSplineSet
Validated: 1
EndChar

StartChar: plus
Encoding: 14 43 14
Width: 1024
GlyphClass: 2
Flags: W
LayerCount: 2
Fore
SplineSet
600 792 m 1,0,-1
 928 792 l 1,1,-1
 928 616 l 1,2,-1
 600 616 l 1,3,-1
 600 288 l 1,4,-1
 424 288 l 1,5,-1
 424 616 l 1,6,-1
 96 616 l 1,7,-1
 96 792 l 1,8,-1
 424 792 l 1,9,-1
 424 1120 l 1,10,-1
 600 1120 l 1,11,-1
 600 792 l 1,0,-1
EndSplineSet
Validated: 1
EndChar

StartChar: comma
Encoding: 15 44 15
Width: 1024
GlyphClass: 2
Flags: W
LayerCount: 2
Fore
SplineSet
379 252 m 1,0,-1
 645 252 l 1,1,-1
 645 126 l 2,2,3
 645 -132 645 -132 453 -324 c 1,4,-1
 288 -228 l 1,5,6
 379 -137 379 -137 379 126 c 2,7,-1
 379 252 l 1,0,-1
EndSplineSet
Validated: 1
EndChar

StartChar: hyphen
Encoding: 16 45 16
Width: 1024
GlyphClass: 2
Flags: W
LayerCount: 2
Fore
SplineSet
128 792 m 1,0,-1
 896 792 l 1,1,-1
 896 616 l 1,2,-1
 128 616 l 1,3,-1
 128 792 l 1,0,-1
EndSplineSet
Validated: 1
EndChar

StartChar: period
Encoding: 17 46 17
Width: 1024
GlyphClass: 2
Flags: W
LayerCount: 2
Fore
SplineSet
656 -44 m 1,0,-1
 368 -44 l 1,1,-1
 368 244 l 1,2,-1
 656 244 l 1,3,-1
 656 -44 l 1,0,-1
EndSplineSet
Validated: 1
EndChar

StartChar: slash
Encoding: 18 47 18
Width: 1024
GlyphClass: 2
Flags: W
LayerCount: 2
Fore
SplineSet
664 1472 m 1,0,-1
 850 1472 l 1,1,-1
 356 -64 l 1,2,-1
 170 -64 l 1,3,-1
 664 1472 l 1,0,-1
EndSplineSet
Validated: 1
EndChar

StartChar: zero
Encoding: 19 48 19
Width: 1024
GlyphClass: 2
Flags: W
LayerCount: 2
Fore
SplineSet
904 554 m 2,0,1
 904 413 904 413 877 305.5 c 128,-1,2
 850 198 850 198 799.5 125.5 c 128,-1,3
 749 53 749 53 676 16 c 128,-1,4
 603 -21 603 -21 511 -21 c 0,5,6
 421 -21 421 -21 348 16 c 128,-1,7
 275 53 275 53 224 125.5 c 128,-1,8
 173 198 173 198 145 305.5 c 128,-1,9
 117 413 117 413 117 554 c 2,10,-1
 117 902 l 2,11,12
 117 1043 117 1043 144.5 1150.5 c 128,-1,13
 172 1258 172 1258 223 1330.5 c 128,-1,14
 274 1403 274 1403 346.5 1440 c 128,-1,15
 419 1477 419 1477 510 1477 c 128,-1,16
 601 1477 601 1477 674 1440 c 128,-1,17
 747 1403 747 1403 798 1330.5 c 128,-1,18
 849 1258 849 1258 876.5 1150.5 c 128,-1,19
 904 1043 904 1043 904 902 c 2,20,-1
 904 554 l 2,0,1
349 674 m 1,21,-1
 672 963 l 1,22,23
 670 1110 670 1110 629.5 1181 c 128,-1,24
 589 1252 589 1252 510 1252 c 0,25,26
 429 1252 429 1252 389 1177 c 128,-1,27
 349 1102 349 1102 349 946 c 2,28,-1
 349 674 l 1,21,-1
672 774 m 1,29,-1
 349 486 l 1,30,31
 353 342 353 342 393 272.5 c 128,-1,32
 433 203 433 203 511 203 c 0,33,34
 592 203 592 203 632 279 c 128,-1,35
 672 355 672 355 672 512 c 2,36,-1
 672 774 l 1,29,-1
EndSplineSet
Validated: 1
EndChar

StartChar: one
Encoding: 20 49 20
Width: 1024
GlyphClass: 2
Flags: W
LayerCount: 2
Fore
SplineSet
682 0 m 1,0,-1
 449 0 l 1,1,-1
 449 1117 l 1,2,-1
 144 985 l 1,3,-1
 144 1227 l 1,4,-1
 670 1456 l 1,5,-1
 682 1456 l 1,6,-1
 682 0 l 1,0,-1
EndSplineSet
Validated: 1
EndChar

StartChar: two
Encoding: 21 50 21
Width: 1024
GlyphClass: 2
Flags: W
LayerCount: 2
Fore
SplineSet
907 0 m 1,0,-1
 83 0 l 1,1,-1
 83 190 l 1,2,-1
 474 696 l 2,3,4
 520 756 520 756 551.5 805 c 128,-1,5
 583 854 583 854 602.5 894.5 c 128,-1,6
 622 935 622 935 630.5 970 c 128,-1,7
 639 1005 639 1005 639 1038 c 0,8,9
 639 1087 639 1087 627.5 1125 c 128,-1,10
 616 1163 616 1163 595 1189.5 c 128,-1,11
 574 1216 574 1216 544.5 1230 c 128,-1,12
 515 1244 515 1244 479 1244 c 0,13,14
 384 1244 384 1244 337 1180 c 128,-1,15
 290 1116 290 1116 290 1001 c 1,16,-1
 58 1001 l 1,17,18
 58 1098 58 1098 89 1184.5 c 128,-1,19
 120 1271 120 1271 176 1336 c 128,-1,20
 232 1401 232 1401 311 1438.5 c 128,-1,21
 390 1476 390 1476 486 1476 c 0,22,23
 578 1476 578 1476 649.5 1445 c 128,-1,24
 721 1414 721 1414 768.5 1358 c 128,-1,25
 816 1302 816 1302 841 1223.5 c 128,-1,26
 866 1145 866 1145 866 1050 c 0,27,28
 866 978 866 978 847 912.5 c 128,-1,29
 828 847 828 847 794 783 c 128,-1,30
 760 719 760 719 711.5 652.5 c 128,-1,31
 663 586 663 586 604 513 c 2,32,-1
 377 223 l 1,33,-1
 907 223 l 1,34,-1
 907 0 l 1,0,-1
EndSplineSet
Validated: 1
EndChar

StartChar: three
Encoding: 22 51 22
Width: 1024
GlyphClass: 2
Flags: W
LayerCount: 2
Fore
SplineSet
349 850 m 1,0,-1
 475 850 l 2,1,2
 570 850 570 850 615.5 907.5 c 128,-1,3
 661 965 661 965 661 1058 c 0,4,5
 661 1101 661 1101 650.5 1136.5 c 128,-1,6
 640 1172 640 1172 619 1197.5 c 128,-1,7
 598 1223 598 1223 566.5 1237 c 128,-1,8
 535 1251 535 1251 492 1251 c 0,9,10
 457 1251 457 1251 427 1239 c 128,-1,11
 397 1227 397 1227 374 1204.5 c 128,-1,12
 351 1182 351 1182 338 1150 c 128,-1,13
 325 1118 325 1118 325 1078 c 1,14,-1
 94 1078 l 1,15,16
 94 1167 94 1167 124 1240 c 128,-1,17
 154 1313 154 1313 207.5 1365.5 c 128,-1,18
 261 1418 261 1418 332.5 1447 c 128,-1,19
 404 1476 404 1476 487 1476 c 0,20,21
 577 1476 577 1476 651.5 1449.5 c 128,-1,22
 726 1423 726 1423 779.5 1370.5 c 128,-1,23
 833 1318 833 1318 862.5 1240.5 c 128,-1,24
 892 1163 892 1163 892 1061 c 0,25,26
 892 1014 892 1014 880 968.5 c 128,-1,27
 868 923 868 923 845.5 882 c 128,-1,28
 823 841 823 841 790 806.5 c 128,-1,29
 757 772 757 772 714 747 c 1,30,31
 765 725 765 725 801.5 691 c 128,-1,32
 838 657 838 657 862.5 613.5 c 128,-1,33
 887 570 887 570 898.5 518 c 128,-1,34
 910 466 910 466 910 408 c 0,35,36
 910 306 910 306 877.5 226 c 128,-1,37
 845 146 845 146 788.5 91.5 c 128,-1,38
 732 37 732 37 654.5 8.5 c 128,-1,39
 577 -20 577 -20 487 -20 c 0,40,41
 410 -20 410 -20 336.5 5.5 c 128,-1,42
 263 31 263 31 206 82.5 c 128,-1,43
 149 134 149 134 114.5 212 c 128,-1,44
 80 290 80 290 80 396 c 1,45,-1
 310 396 l 1,46,47
 310 354 310 354 323.5 318.5 c 128,-1,48
 337 283 337 283 361.5 257.5 c 128,-1,49
 386 232 386 232 419 217.5 c 128,-1,50
 452 203 452 203 492 203 c 0,51,52
 580 203 580 203 630 259 c 128,-1,53
 680 315 680 315 680 411 c 0,54,55
 680 470 680 470 666 512 c 128,-1,56
 652 554 652 554 625 581 c 128,-1,57
 598 608 598 608 560 621 c 128,-1,58
 522 634 522 634 475 634 c 2,59,-1
 349 634 l 1,60,-1
 349 850 l 1,0,-1
EndSplineSet
Validated: 1
EndChar

StartChar: four
Encoding: 23 52 23
Width: 1024
GlyphClass: 2
Flags: W
LayerCount: 2
Fore
SplineSet
791 541 m 1,0,-1
 931 541 l 1,1,-1
 931 316 l 1,2,-1
 791 316 l 1,3,-1
 791 0 l 1,4,-1
 560 0 l 1,5,-1
 560 316 l 1,6,-1
 58 316 l 1,7,-1
 49 490 l 1,8,-1
 557 1456 l 1,9,-1
 791 1456 l 1,10,-1
 791 541 l 1,0,-1
276 541 m 1,11,-1
 560 541 l 1,12,-1
 560 1082 l 1,13,-1
 538 1034 l 1,14,-1
 276 541 l 1,11,-1
EndSplineSet
Validated: 1
EndChar

StartChar: five
Encoding: 24 53 24
Width: 1024
GlyphClass: 2
Flags: W
LayerCount: 2
Fore
SplineSet
129 717 m 1,0,-1
 198 1456 l 1,1,-1
 868 1456 l 1,2,-1
 868 1220 l 1,3,-1
 388 1220 l 1,4,-1
 359 900 l 1,5,6
 385 918 385 918 432 937 c 128,-1,7
 479 956 479 956 540 956 c 0,8,9
 627 956 627 956 696 922.5 c 128,-1,10
 765 889 765 889 811.5 826 c 128,-1,11
 858 763 858 763 883 672 c 128,-1,12
 908 581 908 581 908 466 c 0,13,14
 908 368 908 368 884 280 c 128,-1,15
 860 192 860 192 810 125 c 128,-1,16
 760 58 760 58 684.5 19 c 128,-1,17
 609 -20 609 -20 506 -20 c 0,18,19
 428 -20 428 -20 355.5 8 c 128,-1,20
 283 36 283 36 226.5 90 c 128,-1,21
 170 144 170 144 135 222.5 c 128,-1,22
 100 301 100 301 97 402 c 1,23,-1
 325 402 l 1,24,25
 333 307 333 307 381.5 255 c 128,-1,26
 430 203 430 203 506 203 c 0,27,28
 552 203 552 203 585 224 c 128,-1,29
 618 245 618 245 638 282 c 128,-1,30
 658 319 658 319 667.5 370 c 128,-1,31
 677 421 677 421 677 480 c 0,32,33
 677 538 677 538 665 586.5 c 128,-1,34
 653 635 653 635 628 670 c 128,-1,35
 603 705 603 705 566 724 c 128,-1,36
 529 743 529 743 478 743 c 0,37,38
 444 743 444 743 419 736 c 128,-1,39
 394 729 394 729 375 718 c 128,-1,40
 356 707 356 707 341 692.5 c 128,-1,41
 326 678 326 678 313 662 c 1,42,-1
 129 717 l 1,0,-1
EndSplineSet
Validated: 1
EndChar

StartChar: six
Encoding: 25 54 25
Width: 1024
GlyphClass: 2
Flags: W
LayerCount: 2
Fore
SplineSet
730 1468 m 1,0,-1
 730 1237 l 1,1,-1
 716 1237 l 2,2,3
 625 1237 625 1237 555 1208 c 128,-1,4
 485 1179 485 1179 435.5 1126 c 128,-1,5
 386 1073 386 1073 357.5 999 c 128,-1,6
 329 925 329 925 321 834 c 1,7,8
 340 859 340 859 365 883.5 c 128,-1,9
 390 908 390 908 421 927.5 c 128,-1,10
 452 947 452 947 488.5 959 c 128,-1,11
 525 971 525 971 568 971 c 0,12,13
 654 971 654 971 718.5 931.5 c 128,-1,14
 783 892 783 892 826 824.5 c 128,-1,15
 869 757 869 757 890 667.5 c 128,-1,16
 911 578 911 578 911 479 c 0,17,18
 911 373 911 373 883 282 c 128,-1,19
 855 191 855 191 802.5 124 c 128,-1,20
 750 57 750 57 675.5 18.5 c 128,-1,21
 601 -20 601 -20 508 -20 c 0,22,23
 411 -20 411 -20 333 23.5 c 128,-1,24
 255 67 255 67 200.5 144 c 128,-1,25
 146 221 146 221 116.5 326.5 c 128,-1,26
 87 432 87 432 87 557 c 2,27,-1
 87 664 l 2,28,29
 87 837 87 837 126 984.5 c 128,-1,30
 165 1132 165 1132 242.5 1239.5 c 128,-1,31
 320 1347 320 1347 434.5 1407.5 c 128,-1,32
 549 1468 549 1468 699 1468 c 2,33,-1
 730 1468 l 1,0,-1
501 748 m 0,34,35
 439 748 439 748 391 708 c 128,-1,36
 343 668 343 668 319 605 c 1,37,-1
 319 523 l 2,38,39
 319 443 319 443 332.5 383 c 128,-1,40
 346 323 346 323 371 283.5 c 128,-1,41
 396 244 396 244 430 224 c 128,-1,42
 464 204 464 204 504 204 c 0,43,44
 545 204 545 204 578 224.5 c 128,-1,45
 611 245 611 245 634 281 c 128,-1,46
 657 317 657 317 669.5 366.5 c 128,-1,47
 682 416 682 416 682 475 c 256,48,49
 682 534 682 534 669.5 584 c 128,-1,50
 657 634 657 634 634 670.5 c 128,-1,51
 611 707 611 707 577.5 727.5 c 128,-1,52
 544 748 544 748 501 748 c 0,34,35
EndSplineSet
Validated: 1
EndChar

StartChar: seven
Encoding: 26 55 26
Width: 1024
GlyphClass: 2
Flags: W
LayerCount: 2
Fore
SplineSet
906 1301 m 1,0,-1
 436 0 l 1,1,-1
 193 0 l 1,2,-1
 664 1229 l 1,3,-1
 57 1229 l 1,4,-1
 57 1456 l 1,5,-1
 906 1456 l 1,6,-1
 906 1301 l 1,0,-1
EndSplineSet
Validated: 1
EndChar

StartChar: eight
Encoding: 27 56 27
Width: 1024
GlyphClass: 2
Flags: W
LayerCount: 2
Fore
SplineSet
876 1069 m 0,0,1
 876 963 876 963 831.5 880.5 c 128,-1,2
 787 798 787 798 710 749 c 1,3,4
 798 699 798 699 849.5 609 c 128,-1,5
 901 519 901 519 901 398 c 0,6,7
 901 295 901 295 870 217 c 128,-1,8
 839 139 839 139 784.5 86.5 c 128,-1,9
 730 34 730 34 656.5 7 c 128,-1,10
 583 -20 583 -20 497 -20 c 128,-1,11
 411 -20 411 -20 336.5 7 c 128,-1,12
 262 34 262 34 207.5 86.5 c 128,-1,13
 153 139 153 139 121.5 217 c 128,-1,14
 90 295 90 295 90 398 c 0,15,16
 90 458 90 458 104 511.5 c 128,-1,17
 118 565 118 565 143 609.5 c 128,-1,18
 168 654 168 654 203 689.5 c 128,-1,19
 238 725 238 725 282 750 c 1,20,21
 205 798 205 798 161 880.5 c 128,-1,22
 117 963 117 963 117 1069 c 0,23,24
 117 1168 117 1168 145 1243.5 c 128,-1,25
 173 1319 173 1319 223.5 1371 c 128,-1,26
 274 1423 274 1423 343.5 1449.5 c 128,-1,27
 413 1476 413 1476 495 1476 c 256,28,29
 577 1476 577 1476 646.5 1449.5 c 128,-1,30
 716 1423 716 1423 767 1371 c 128,-1,31
 818 1319 818 1319 847 1243.5 c 128,-1,32
 876 1168 876 1168 876 1069 c 0,0,1
670 417 m 256,33,34
 670 467 670 467 657.5 507 c 128,-1,35
 645 547 645 547 622 575.5 c 128,-1,36
 599 604 599 604 567 619 c 128,-1,37
 535 634 535 634 496 634 c 0,38,39
 456 634 456 634 424 619 c 128,-1,40
 392 604 392 604 369.5 575.5 c 128,-1,41
 347 547 347 547 334.5 507 c 128,-1,42
 322 467 322 467 322 417 c 0,43,44
 322 317 322 317 369.5 260 c 128,-1,45
 417 203 417 203 497 203 c 0,46,47
 535 203 535 203 566.5 217.5 c 128,-1,48
 598 232 598 232 621 260 c 128,-1,49
 644 288 644 288 657 327.5 c 128,-1,50
 670 367 670 367 670 417 c 256,33,34
646 1056 m 256,51,52
 646 1100 646 1100 635 1136 c 128,-1,53
 624 1172 624 1172 604.5 1197.5 c 128,-1,54
 585 1223 585 1223 557.5 1237 c 128,-1,55
 530 1251 530 1251 495 1251 c 0,56,57
 424 1251 424 1251 386 1199 c 128,-1,58
 348 1147 348 1147 348 1056 c 0,59,60
 348 1012 348 1012 358 975.5 c 128,-1,61
 368 939 368 939 387.5 913 c 128,-1,62
 407 887 407 887 434.5 872.5 c 128,-1,63
 462 858 462 858 497 858 c 256,64,65
 532 858 532 858 559.5 872.5 c 128,-1,66
 587 887 587 887 606 913 c 128,-1,67
 625 939 625 939 635.5 975.5 c 128,-1,68
 646 1012 646 1012 646 1056 c 256,51,52
EndSplineSet
Validated: 1
EndChar

StartChar: nine
Encoding: 28 57 28
Width: 1024
GlyphClass: 2
Flags: W
LayerCount: 2
Fore
SplineSet
276 221 m 2,0,1
 369 221 369 221 437 245 c 128,-1,2
 505 269 505 269 551 314.5 c 128,-1,3
 597 360 597 360 622 425.5 c 128,-1,4
 647 491 647 491 655 574 c 1,5,6
 620 532 620 532 565 502 c 128,-1,7
 510 472 510 472 432 472 c 0,8,9
 346 472 346 472 280.5 510 c 128,-1,10
 215 548 215 548 170.5 614 c 128,-1,11
 126 680 126 680 103.5 769.5 c 128,-1,12
 81 859 81 859 81 962 c 0,13,14
 81 1068 81 1068 108.5 1161.5 c 128,-1,15
 136 1255 136 1255 188.5 1325 c 128,-1,16
 241 1395 241 1395 315 1435.5 c 128,-1,17
 389 1476 389 1476 482 1476 c 0,18,19
 577 1476 577 1476 652.5 1432 c 128,-1,20
 728 1388 728 1388 780.5 1309 c 128,-1,21
 833 1230 833 1230 861 1121 c 128,-1,22
 889 1012 889 1012 889 882 c 2,23,-1
 889 786 l 2,24,25
 889 612 889 612 853.5 466 c 128,-1,26
 818 320 818 320 743 213.5 c 128,-1,27
 668 107 668 107 552.5 47.5 c 128,-1,28
 437 -12 437 -12 277 -12 c 2,29,-1
 260 -12 l 1,30,-1
 260 221 l 1,31,-1
 276 221 l 2,0,1
487 687 m 0,32,33
 519 687 519 687 546 698 c 128,-1,34
 573 709 573 709 595 728.5 c 128,-1,35
 617 748 617 748 633 774.5 c 128,-1,36
 649 801 649 801 659 832 c 1,37,-1
 659 931 l 2,38,39
 659 1011 659 1011 645.5 1071 c 128,-1,40
 632 1131 632 1131 608 1171 c 128,-1,41
 584 1211 584 1211 551.5 1231 c 128,-1,42
 519 1251 519 1251 481 1251 c 0,43,44
 440 1251 440 1251 408.5 1227.5 c 128,-1,45
 377 1204 377 1204 355.5 1164.5 c 128,-1,46
 334 1125 334 1125 322 1073.5 c 128,-1,47
 310 1022 310 1022 310 966 c 256,48,49
 310 910 310 910 321 859 c 128,-1,50
 332 808 332 808 354 770 c 128,-1,51
 376 732 376 732 409 709.5 c 128,-1,52
 442 687 442 687 487 687 c 0,32,33
EndSplineSet
Validated: 1
EndChar

StartChar: less
Encoding: 31 60 31
Width: 1024
GlyphClass: 2
Flags: W
LayerCount: 2
Fore
SplineSet
24 704 m 1,0,-1
 686 1366 l 1,1,-1
 842 1210 l 1,2,-1
 336 704 l 1,3,-1
 842 198 l 1,4,-1
 686 42 l 1,5,-1
 24 704 l 1,0,-1
EndSplineSet
Validated: 1
EndChar

StartChar: equal
Encoding: 32 61 32
Width: 1024
GlyphClass: 2
Flags: W
LayerCount: 2
Fore
SplineSet
96 608 m 1,0,-1
 928 608 l 1,1,-1
 928 432 l 1,2,-1
 96 432 l 1,3,-1
 96 608 l 1,0,-1
96 976 m 1,4,-1
 928 976 l 1,5,-1
 928 800 l 1,6,-1
 96 800 l 1,7,-1
 96 976 l 1,4,-1
EndSplineSet
Validated: 1
EndChar

StartChar: greater
Encoding: 33 62 33
Width: 1024
GlyphClass: 2
Flags: W
LayerCount: 2
Fore
SplineSet
1000 704 m 1,0,-1
 338 42 l 1,1,-1
 182 198 l 1,2,-1
 688 704 l 1,3,-1
 182 1210 l 1,4,-1
 338 1366 l 1,5,-1
 1000 704 l 1,0,-1
EndSplineSet
Validated: 1
EndChar

StartChar: question
Encoding: 34 63 34
Width: 1024
GlyphClass: 2
Flags: W
LayerCount: 2
Fore
SplineSet
414 442 m 1,0,1
 414 511 414 511 417 559 c 128,-1,2
 420 607 420 607 431 645.5 c 128,-1,3
 442 684 442 684 463.5 716.5 c 128,-1,4
 485 749 485 749 524 786 c 0,5,6
 552 817 552 817 580 851.5 c 128,-1,7
 608 886 608 886 631 922.5 c 128,-1,8
 654 959 654 959 668 997 c 128,-1,9
 682 1035 682 1035 682 1073 c 0,10,11
 682 1164 682 1164 641.5 1206 c 128,-1,12
 601 1248 601 1248 523 1248 c 0,13,14
 493 1248 493 1248 465 1238.5 c 128,-1,15
 437 1229 437 1229 415 1208 c 128,-1,16
 393 1187 393 1187 379 1154 c 128,-1,17
 365 1121 365 1121 364 1075 c 1,18,-1
 133 1075 l 1,19,20
 134 1177 134 1177 164.5 1252.5 c 128,-1,21
 195 1328 195 1328 247.5 1378 c 128,-1,22
 300 1428 300 1428 370.5 1452.5 c 128,-1,23
 441 1477 441 1477 523 1477 c 0,24,25
 615 1477 615 1477 688 1452 c 128,-1,26
 761 1427 761 1427 811.5 1377.5 c 128,-1,27
 862 1328 862 1328 888.5 1255 c 128,-1,28
 915 1182 915 1182 915 1086 c 0,29,30
 915 1015 915 1015 895 956.5 c 128,-1,31
 875 898 875 898 843.5 847.5 c 128,-1,32
 812 797 812 797 771.5 751.5 c 128,-1,33
 731 706 731 706 691 663 c 0,34,35
 666 633 666 633 652 610 c 128,-1,36
 638 587 638 587 631.5 563 c 128,-1,37
 625 539 625 539 623.5 510.5 c 128,-1,38
 622 482 622 482 622 442 c 1,39,-1
 414 442 l 1,0,1
380 139 m 0,40,41
 380 172 380 172 389 200.5 c 128,-1,42
 398 229 398 229 415.5 250 c 128,-1,43
 433 271 433 271 458 282.5 c 128,-1,44
 483 294 483 294 515 294 c 0,45,46
 546 294 546 294 571 282.5 c 128,-1,47
 596 271 596 271 613.5 250 c 128,-1,48
 631 229 631 229 640.5 200.5 c 128,-1,49
 650 172 650 172 650 139 c 0,50,51
 650 107 650 107 640.5 79 c 128,-1,52
 631 51 631 51 613.5 31 c 128,-1,53
 596 11 596 11 570.5 -0.5 c 128,-1,54
 545 -12 545 -12 515 -12 c 0,55,56
 483 -12 483 -12 458 -0.5 c 128,-1,57
 433 11 433 11 415.5 31 c 128,-1,58
 398 51 398 51 389 79 c 128,-1,59
 380 107 380 107 380 139 c 0,40,41
EndSplineSet
Validated: 1
EndChar

StartChar: at
Encoding: 35 64 35
Width: 1024
GlyphClass: 2
Flags: W
LayerCount: 2
Fore
SplineSet
971 823 m 0,0,1
 971 729 971 729 955 636.5 c 128,-1,2
 939 544 939 544 909.5 470.5 c 128,-1,3
 880 397 880 397 834.5 351.5 c 128,-1,4
 789 306 789 306 725 306 c 0,5,6
 683 306 683 306 648 331.5 c 128,-1,7
 613 357 613 357 594 405 c 1,8,9
 567 360 567 360 531.5 334 c 128,-1,10
 496 308 496 308 455 308 c 0,11,12
 405 308 405 308 367.5 335 c 128,-1,13
 330 362 330 362 307 412.5 c 128,-1,14
 284 463 284 463 278.5 534 c 128,-1,15
 273 605 273 605 273 692 c 0,16,17
 274 794 274 794 302 876 c 128,-1,18
 330 958 330 958 367 1016.5 c 128,-1,19
 404 1075 404 1075 455 1106.5 c 128,-1,20
 506 1138 506 1138 569 1138 c 0,21,22
 634 1138 634 1138 675 1115 c 128,-1,23
 716 1092 716 1092 741 1062 c 1,24,-1
 706 535 l 2,25,26
 706 506 706 506 708 490 c 128,-1,27
 710 474 710 474 716 466 c 128,-1,28
 722 458 722 458 730.5 456 c 128,-1,29
 739 454 739 454 747 454 c 0,30,31
 769 454 769 454 786.5 481 c 128,-1,32
 804 508 804 508 817.5 556 c 128,-1,33
 831 604 831 604 838 670.5 c 128,-1,34
 845 737 845 737 845 816 c 0,35,36
 845 938 845 938 829 1027.5 c 128,-1,37
 813 1117 813 1117 774.5 1175 c 128,-1,38
 736 1233 736 1233 679 1261 c 128,-1,39
 622 1289 622 1289 547 1289 c 0,40,41
 462 1289 462 1289 394.5 1243.5 c 128,-1,42
 327 1198 327 1198 279.5 1117 c 128,-1,43
 232 1036 232 1036 202.5 924.5 c 128,-1,44
 173 813 173 813 173 680 c 0,45,46
 173 546 173 546 190.5 446 c 128,-1,47
 208 346 208 346 249.5 279.5 c 128,-1,48
 291 213 291 213 353.5 180 c 128,-1,49
 416 147 416 147 497 147 c 0,50,51
 523 147 523 147 550.5 151 c 128,-1,52
 578 155 578 155 604 162.5 c 128,-1,53
 630 170 630 170 653.5 180 c 128,-1,54
 677 190 677 190 696 202 c 1,55,-1
 723 67 l 1,56,57
 701 48 701 48 673.5 34 c 128,-1,58
 646 20 646 20 615 10.5 c 128,-1,59
 584 1 584 1 553.5 -3.5 c 128,-1,60
 523 -8 523 -8 495 -8 c 0,61,62
 374 -8 374 -8 286 40 c 128,-1,63
 198 88 198 88 140.5 177 c 128,-1,64
 83 266 83 266 59 393.5 c 128,-1,65
 35 521 35 521 35 680 c 0,66,67
 35 838 35 838 76.5 977 c 128,-1,68
 118 1116 118 1116 186.5 1219.5 c 128,-1,69
 255 1323 255 1323 348.5 1382.5 c 128,-1,70
 442 1442 442 1442 555 1442 c 0,71,72
 653 1442 653 1442 732 1397.5 c 128,-1,73
 811 1353 811 1353 865.5 1271.5 c 128,-1,74
 920 1190 920 1190 945.5 1076 c 128,-1,75
 971 962 971 962 971 823 c 0,0,1
417 692 m 1,76,77
 417 577 417 577 434.5 519 c 128,-1,78
 452 461 452 461 493 461 c 0,79,80
 513 461 513 461 533.5 473.5 c 128,-1,81
 554 486 554 486 574 522 c 0,82,83
 574 525 574 525 574 528.5 c 128,-1,84
 574 532 574 532 574 535 c 2,85,-1
 606 982 l 1,86,87
 594 985 594 985 580 985 c 0,88,89
 508 985 508 985 468.5 910 c 128,-1,90
 429 835 429 835 417 692 c 1,76,77
EndSplineSet
Validated: 1
EndChar

StartChar: A
Encoding: 36 65 36
Width: 1024
GlyphClass: 2
Flags: W
LayerCount: 2
Fore
SplineSet
703 304 m 1,0,-1
 340 304 l 1,1,-1
 269 0 l 1,2,-1
 23 0 l 1,3,-1
 419 1456 l 1,4,-1
 631 1456 l 1,5,-1
 1019 0 l 1,6,-1
 774 0 l 1,7,-1
 703 304 l 1,0,-1
398 543 m 1,8,-1
 648 543 l 1,9,-1
 525 1079 l 1,10,-1
 398 543 l 1,8,-1
EndSplineSet
Validated: 1
EndChar

StartChar: B
Encoding: 37 66 37
Width: 1024
GlyphClass: 2
Flags: W
LayerCount: 2
Fore
SplineSet
107 0 m 1,0,-1
 107 1456 l 1,1,-1
 513 1456 l 2,2,3
 612 1456 612 1456 693 1432 c 128,-1,4
 774 1408 774 1408 831 1359 c 128,-1,5
 888 1310 888 1310 919 1235 c 128,-1,6
 950 1160 950 1160 950 1058 c 0,7,8
 949 956 949 956 905 875 c 128,-1,9
 861 794 861 794 774 752 c 1,10,11
 826 736 826 736 864.5 704 c 128,-1,12
 903 672 903 672 928.5 628.5 c 128,-1,13
 954 585 954 585 966 533.5 c 128,-1,14
 978 482 978 482 978 427 c 0,15,16
 978 322 978 322 948 242 c 128,-1,17
 918 162 918 162 862.5 108 c 128,-1,18
 807 54 807 54 727 27 c 128,-1,19
 647 0 647 0 548 0 c 2,20,-1
 107 0 l 1,0,-1
341 642 m 1,21,-1
 341 227 l 1,22,-1
 549 227 l 2,23,24
 644 228 644 228 694.5 283.5 c 128,-1,25
 745 339 745 339 745 429 c 0,26,27
 745 529 745 529 699.5 585 c 128,-1,28
 654 641 654 641 559 642 c 2,29,-1
 341 642 l 1,21,-1
341 845 m 1,30,-1
 515 845 l 2,31,32
 612 846 612 846 664 894 c 128,-1,33
 716 942 716 942 717 1035 c 0,34,35
 717 1137 717 1137 665 1181.5 c 128,-1,36
 613 1226 613 1226 514 1227 c 2,37,-1
 341 1227 l 1,38,-1
 341 845 l 1,30,-1
EndSplineSet
Validated: 1
EndChar

StartChar: C
Encoding: 38 67 38
Width: 1024
GlyphClass: 2
Flags: W
LayerCount: 2
Fore
SplineSet
948 456 m 1,0,1
 942 346 942 346 908.5 258 c 128,-1,2
 875 170 875 170 818.5 108 c 128,-1,3
 762 46 762 46 684 12.5 c 128,-1,4
 606 -21 606 -21 511 -21 c 0,5,6
 404 -21 404 -21 321 26.5 c 128,-1,7
 238 74 238 74 181.5 159.5 c 128,-1,8
 125 245 125 245 95.5 365 c 128,-1,9
 66 485 66 485 66 629 c 2,10,-1
 66 825 l 2,11,12
 66 970 66 970 97.5 1090 c 128,-1,13
 129 1210 129 1210 187 1296 c 128,-1,14
 245 1382 245 1382 327.5 1429.5 c 128,-1,15
 410 1477 410 1477 513 1477 c 0,16,17
 613 1477 613 1477 690.5 1443 c 128,-1,18
 768 1409 768 1409 822.5 1346 c 128,-1,19
 877 1283 877 1283 908.5 1192 c 128,-1,20
 940 1101 940 1101 949 987 c 1,21,-1
 716 987 l 1,22,23
 713 1052 713 1052 700 1101 c 128,-1,24
 687 1150 687 1150 662.5 1182.5 c 128,-1,25
 638 1215 638 1215 601 1231.5 c 128,-1,26
 564 1248 564 1248 513 1248 c 0,27,28
 459 1248 459 1248 419 1220 c 128,-1,29
 379 1192 379 1192 353 1138 c 128,-1,30
 327 1084 327 1084 314.5 1005.5 c 128,-1,31
 302 927 302 927 302 827 c 2,32,-1
 302 629 l 2,33,34
 302 414 302 414 352.5 311 c 128,-1,35
 403 208 403 208 511 208 c 0,36,37
 602 208 602 208 655.5 266.5 c 128,-1,38
 709 325 709 325 715 456 c 1,39,-1
 948 456 l 1,0,1
EndSplineSet
Validated: 1
EndChar

StartChar: D
Encoding: 39 68 39
Width: 1024
GlyphClass: 2
Flags: W
LayerCount: 2
Fore
SplineSet
104 0 m 1,0,-1
 104 1456 l 1,1,-1
 417 1456 l 2,2,3
 537 1456 537 1456 634.5 1406.5 c 128,-1,4
 732 1357 732 1357 801.5 1268.5 c 128,-1,5
 871 1180 871 1180 908.5 1057 c 128,-1,6
 946 934 946 934 946 787 c 2,7,-1
 946 667 l 2,8,9
 946 520 946 520 908.5 397.5 c 128,-1,10
 871 275 871 275 803 186.5 c 128,-1,11
 735 98 735 98 639.5 49 c 128,-1,12
 544 0 544 0 428 0 c 2,13,-1
 104 0 l 1,0,-1
339 1228 m 1,14,-1
 339 226 l 1,15,-1
 428 226 l 2,16,17
 494 226 494 226 546 256 c 128,-1,18
 598 286 598 286 634 343 c 128,-1,19
 670 400 670 400 689 481.5 c 128,-1,20
 708 563 708 563 708 667 c 2,21,-1
 708 789 l 2,22,23
 708 887 708 887 689.5 967.5 c 128,-1,24
 671 1048 671 1048 634 1106 c 128,-1,25
 597 1164 597 1164 542.5 1196 c 128,-1,26
 488 1228 488 1228 417 1228 c 2,27,-1
 339 1228 l 1,14,-1
EndSplineSet
Validated: 1
EndChar

StartChar: E
Encoding: 40 69 40
Width: 1024
GlyphClass: 2
Flags: W
LayerCount: 2
Fore
SplineSet
852 638 m 1,0,-1
 356 638 l 1,1,-1
 356 227 l 1,2,-1
 936 227 l 1,3,-1
 936 0 l 1,4,-1
 122 0 l 1,5,-1
 122 1456 l 1,6,-1
 934 1456 l 1,7,-1
 934 1227 l 1,8,-1
 356 1227 l 1,9,-1
 356 860 l 1,10,-1
 852 860 l 1,11,-1
 852 638 l 1,0,-1
EndSplineSet
Validated: 1
EndChar

StartChar: F
Encoding: 41 70 41
Width: 1024
GlyphClass: 2
Flags: W
LayerCount: 2
Fore
SplineSet
876 603 m 1,0,-1
 358 603 l 1,1,-1
 358 0 l 1,2,-1
 124 0 l 1,3,-1
 124 1456 l 1,4,-1
 940 1456 l 1,5,-1
 940 1227 l 1,6,-1
 358 1227 l 1,7,-1
 358 831 l 1,8,-1
 876 831 l 1,9,-1
 876 603 l 1,0,-1
EndSplineSet
Validated: 1
EndChar

StartChar: G
Encoding: 42 71 42
Width: 1024
GlyphClass: 2
Flags: W
LayerCount: 2
Fore
SplineSet
940 170 m 1,0,1
 918 137 918 137 878.5 103 c 128,-1,2
 839 69 839 69 785.5 41.5 c 128,-1,3
 732 14 732 14 665.5 -3 c 128,-1,4
 599 -20 599 -20 523 -20 c 0,5,6
 420 -20 420 -20 337 24 c 128,-1,7
 254 68 254 68 195 151 c 128,-1,8
 136 234 136 234 104 354.5 c 128,-1,9
 72 475 72 475 72 628 c 2,10,-1
 72 826 l 2,11,12
 72 979 72 979 105.5 1099.5 c 128,-1,13
 139 1220 139 1220 198.5 1304 c 128,-1,14
 258 1388 258 1388 338 1432 c 128,-1,15
 418 1476 418 1476 512 1476 c 0,16,17
 614 1476 614 1476 690 1445 c 128,-1,18
 766 1414 766 1414 818.5 1355.5 c 128,-1,19
 871 1297 871 1297 900.5 1213 c 128,-1,20
 930 1129 930 1129 939 1024 c 1,21,-1
 711 1024 l 1,22,23
 699 1136 699 1136 655 1192.5 c 128,-1,24
 611 1249 611 1249 518 1249 c 0,25,26
 473 1249 473 1249 435 1221.5 c 128,-1,27
 397 1194 397 1194 368.5 1141 c 128,-1,28
 340 1088 340 1088 323.5 1009.5 c 128,-1,29
 307 931 307 931 307 828 c 2,30,-1
 307 628 l 2,31,32
 308 424 308 424 363.5 315.5 c 128,-1,33
 419 207 419 207 534 206 c 0,34,35
 561 206 561 206 587.5 211 c 128,-1,36
 614 216 614 216 637.5 225 c 128,-1,37
 661 234 661 234 678.5 245.5 c 128,-1,38
 696 257 696 257 706 270 c 1,39,-1
 706 534 l 1,40,-1
 506 534 l 1,41,-1
 506 744 l 1,42,-1
 939 744 l 1,43,-1
 940 170 l 1,0,1
EndSplineSet
Validated: 1
EndChar

StartChar: H
Encoding: 43 72 43
Width: 1024
GlyphClass: 2
Flags: W
LayerCount: 2
Fore
SplineSet
906 0 m 1,0,-1
 676 0 l 1,1,-1
 676 631 l 1,2,-1
 334 631 l 1,3,-1
 334 0 l 1,4,-1
 102 0 l 1,5,-1
 102 1456 l 1,6,-1
 334 1456 l 1,7,-1
 334 859 l 1,8,-1
 676 859 l 1,9,-1
 676 1456 l 1,10,-1
 906 1456 l 1,11,-1
 906 0 l 1,0,-1
EndSplineSet
Validated: 1
EndChar

StartChar: I
Encoding: 44 73 44
Width: 1024
GlyphClass: 2
Flags: W
LayerCount: 2
Fore
SplineSet
160 1456 m 1,0,-1
 859 1456 l 1,1,-1
 859 1229 l 1,2,-1
 623 1229 l 1,3,-1
 623 226 l 1,4,-1
 859 226 l 1,5,-1
 859 0 l 1,6,-1
 160 0 l 1,7,-1
 160 226 l 1,8,-1
 390 226 l 1,9,-1
 390 1229 l 1,10,-1
 160 1229 l 1,11,-1
 160 1456 l 1,0,-1
EndSplineSet
Validated: 1
EndChar

StartChar: J
Encoding: 45 74 45
Width: 1024
GlyphClass: 2
Flags: W
LayerCount: 2
Fore
SplineSet
679 1456 m 1,0,-1
 912 1456 l 1,1,-1
 913 447 l 2,2,3
 912 343 912 343 880 257.5 c 128,-1,4
 848 172 848 172 792.5 110 c 128,-1,5
 737 48 737 48 662 14 c 128,-1,6
 587 -20 587 -20 501 -20 c 0,7,8
 410 -20 410 -20 335 8 c 128,-1,9
 260 36 260 36 206.5 91.5 c 128,-1,10
 153 147 153 147 123 231 c 128,-1,11
 93 315 93 315 92 428 c 1,12,-1
 326 428 l 1,13,14
 327 311 327 311 369.5 258.5 c 128,-1,15
 412 206 412 206 501 206 c 0,16,17
 541 206 541 206 574 224.5 c 128,-1,18
 607 243 607 243 630 275 c 128,-1,19
 653 307 653 307 666 351.5 c 128,-1,20
 679 396 679 396 679 447 c 2,21,-1
 679 1456 l 1,0,-1
EndSplineSet
Validated: 1
EndChar

StartChar: K
Encoding: 46 75 46
Width: 1024
GlyphClass: 2
Flags: W
LayerCount: 2
Fore
SplineSet
469 598 m 1,0,-1
 341 429 l 1,1,-1
 341 0 l 1,2,-1
 107 0 l 1,3,-1
 107 1456 l 1,4,-1
 341 1456 l 1,5,-1
 341 789 l 1,6,-1
 451 967 l 1,7,-1
 745 1456 l 1,8,-1
 1030 1456 l 1,9,-1
 623 812 l 1,10,-1
 1045 0 l 1,11,-1
 768 0 l 1,12,-1
 469 598 l 1,0,-1
EndSplineSet
Validated: 1
EndChar

StartChar: L
Encoding: 47 76 47
Width: 1024
GlyphClass: 2
Flags: W
LayerCount: 2
Fore
SplineSet
359 227 m 1,0,-1
 925 227 l 1,1,-1
 925 0 l 1,2,-1
 125 0 l 1,3,-1
 125 1456 l 1,4,-1
 359 1456 l 1,5,-1
 359 227 l 1,0,-1
EndSplineSet
Validated: 1
EndChar

StartChar: M
Encoding: 48 77 48
Width: 1024
GlyphClass: 2
Flags: W
LayerCount: 2
Fore
SplineSet
395 1456 m 1,0,-1
 510 909 l 1,1,-1
 640 1456 l 1,2,-1
 930 1456 l 1,3,-1
 930 0 l 1,4,-1
 716 0 l 1,5,-1
 716 431 l 1,6,-1
 725 1112 l 1,7,-1
 567 480 l 1,8,-1
 452 480 l 1,9,-1
 310 1085 l 1,10,-1
 320 431 l 1,11,-1
 320 0 l 1,12,-1
 105 0 l 1,13,-1
 105 1456 l 1,14,-1
 395 1456 l 1,0,-1
EndSplineSet
Validated: 1
EndChar

StartChar: N
Encoding: 49 78 49
Width: 1024
GlyphClass: 2
Flags: W
LayerCount: 2
Fore
SplineSet
906 0 m 1,0,-1
 673 0 l 1,1,-1
 337 939 l 1,2,-1
 337 0 l 1,3,-1
 102 0 l 1,4,-1
 102 1456 l 1,5,-1
 337 1456 l 1,6,-1
 671 521 l 1,7,-1
 672 1456 l 1,8,-1
 906 1456 l 1,9,-1
 906 0 l 1,0,-1
EndSplineSet
Validated: 1
EndChar

StartChar: O
Encoding: 50 79 50
Width: 1024
GlyphClass: 2
Flags: W
LayerCount: 2
Fore
SplineSet
952 621 m 2,0,1
 952 481 952 481 921.5 363 c 128,-1,2
 891 245 891 245 832.5 160 c 128,-1,3
 774 75 774 75 691 27.5 c 128,-1,4
 608 -20 608 -20 503 -20 c 256,5,6
 398 -20 398 -20 317 27.5 c 128,-1,7
 236 75 236 75 180.5 160.5 c 128,-1,8
 125 246 125 246 95.5 363.5 c 128,-1,9
 66 481 66 481 66 621 c 2,10,-1
 66 833 l 2,11,12
 66 973 66 973 95.5 1091 c 128,-1,13
 125 1209 125 1209 180.5 1294.5 c 128,-1,14
 236 1380 236 1380 317 1428 c 128,-1,15
 398 1476 398 1476 502 1476 c 0,16,17
 607 1476 607 1476 690.5 1428 c 128,-1,18
 774 1380 774 1380 832.5 1294.5 c 128,-1,19
 891 1209 891 1209 921.5 1091 c 128,-1,20
 952 973 952 973 952 833 c 2,21,-1
 952 621 l 2,0,1
716 835 m 2,22,23
 716 924 716 924 703.5 999 c 128,-1,24
 691 1074 691 1074 665.5 1128 c 128,-1,25
 640 1182 640 1182 599.5 1212.5 c 128,-1,26
 559 1243 559 1243 502 1243 c 0,27,28
 446 1243 446 1243 407.5 1212.5 c 128,-1,29
 369 1182 369 1182 346 1128 c 128,-1,30
 323 1074 323 1074 313 999 c 128,-1,31
 303 924 303 924 303 835 c 2,32,-1
 303 621 l 2,33,34
 303 533 303 533 313 458 c 128,-1,35
 323 383 323 383 346 328 c 128,-1,36
 369 273 369 273 407.5 242 c 128,-1,37
 446 211 446 211 503 211 c 0,38,39
 559 211 559 211 599.5 242 c 128,-1,40
 640 273 640 273 665.5 327.5 c 128,-1,41
 691 382 691 382 703.5 457 c 128,-1,42
 716 532 716 532 716 621 c 2,43,-1
 716 835 l 2,22,23
EndSplineSet
Validated: 1
EndChar

StartChar: P
Encoding: 51 80 51
Width: 1024
GlyphClass: 2
Flags: W
LayerCount: 2
Fore
SplineSet
357 534 m 1,0,-1
 357 0 l 1,1,-1
 124 0 l 1,2,-1
 124 1456 l 1,3,-1
 537 1456 l 2,4,5
 636 1456 636 1456 715.5 1421.5 c 128,-1,6
 795 1387 795 1387 851 1325.5 c 128,-1,7
 907 1264 907 1264 937.5 1178 c 128,-1,8
 968 1092 968 1092 968 987 c 0,9,10
 968 889 968 889 937.5 806 c 128,-1,11
 907 723 907 723 851 662.5 c 128,-1,12
 795 602 795 602 715.5 568 c 128,-1,13
 636 534 636 534 537 534 c 2,14,-1
 357 534 l 1,0,-1
357 762 m 1,15,-1
 537 762 l 2,16,17
 587 762 587 762 623.5 780 c 128,-1,18
 660 798 660 798 684.5 829 c 128,-1,19
 709 860 709 860 721 900.5 c 128,-1,20
 733 941 733 941 733 985 c 0,21,22
 733 1036 733 1036 721 1080 c 128,-1,23
 709 1124 709 1124 684.5 1157 c 128,-1,24
 660 1190 660 1190 623.5 1209 c 128,-1,25
 587 1228 587 1228 537 1228 c 2,26,-1
 357 1228 l 1,27,-1
 357 762 l 1,15,-1
EndSplineSet
Validated: 1
EndChar

StartChar: Q
Encoding: 52 81 52
Width: 1024
GlyphClass: 2
Flags: W
LayerCount: 2
Fore
SplineSet
960 577 m 2,0,1
 959 443 959 443 921 324.5 c 128,-1,2
 883 206 883 206 810 122 c 1,3,-1
 1010 -96 l 1,4,-1
 860 -257 l 1,5,-1
 630 -1 l 1,6,7
 601 -10 601 -10 570.5 -15 c 128,-1,8
 540 -20 540 -20 508 -20 c 0,9,10
 403 -20 403 -20 322 28.5 c 128,-1,11
 241 77 241 77 185 159.5 c 128,-1,12
 129 242 129 242 100 350 c 128,-1,13
 71 458 71 458 71 577 c 2,14,-1
 71 829 l 2,15,16
 71 970 71 970 100 1088.5 c 128,-1,17
 129 1207 129 1207 185 1293 c 128,-1,18
 241 1379 241 1379 322 1427.5 c 128,-1,19
 403 1476 403 1476 508 1476 c 128,-1,20
 613 1476 613 1476 697 1427.5 c 128,-1,21
 781 1379 781 1379 839 1293 c 128,-1,22
 897 1207 897 1207 928.5 1088.5 c 128,-1,23
 960 970 960 970 960 829 c 2,24,-1
 960 577 l 2,0,1
723 831 m 2,25,26
 723 921 723 921 711 996.5 c 128,-1,27
 699 1072 699 1072 673 1127 c 128,-1,28
 647 1182 647 1182 606.5 1212.5 c 128,-1,29
 566 1243 566 1243 508 1243 c 0,30,31
 451 1243 451 1243 412.5 1212 c 128,-1,32
 374 1181 374 1181 350.5 1126.5 c 128,-1,33
 327 1072 327 1072 317 996.5 c 128,-1,34
 307 921 307 921 307 831 c 2,35,-1
 307 577 l 2,36,37
 307 509 307 509 317 443.5 c 128,-1,38
 327 378 327 378 350.5 326.5 c 128,-1,39
 374 275 374 275 412.5 243 c 128,-1,40
 451 211 451 211 508 211 c 0,41,42
 566 211 566 211 606.5 242.5 c 128,-1,43
 647 274 647 274 673 326 c 128,-1,44
 699 378 699 378 711 443.5 c 128,-1,45
 723 509 723 509 723 577 c 2,46,-1
 723 831 l 2,25,26
EndSplineSet
Validated: 1
EndChar

StartChar: R
Encoding: 53 82 53
Width: 1024
GlyphClass: 2
Flags: W
LayerCount: 2
Fore
SplineSet
519 544 m 1,0,-1
 342 544 l 1,1,-1
 342 0 l 1,2,-1
 109 0 l 1,3,-1
 109 1456 l 1,4,-1
 514 1456 l 2,5,6
 614 1456 614 1456 695.5 1427.5 c 128,-1,7
 777 1399 777 1399 834.5 1344 c 128,-1,8
 892 1289 892 1289 923.5 1207 c 128,-1,9
 955 1125 955 1125 955 1017 c 0,10,11
 955 939 955 939 939.5 876.5 c 128,-1,12
 924 814 924 814 895.5 764.5 c 128,-1,13
 867 715 867 715 826.5 678 c 128,-1,14
 786 641 786 641 736 614 c 1,15,-1
 996 13 l 1,16,-1
 996 0 l 1,17,-1
 746 0 l 1,18,-1
 519 544 l 1,0,-1
342 772 m 1,19,-1
 515 772 l 2,20,21
 614 772 614 772 667.5 832.5 c 128,-1,22
 721 893 721 893 721 998 c 0,23,24
 721 1107 721 1107 668.5 1167.5 c 128,-1,25
 616 1228 616 1228 514 1228 c 2,26,-1
 342 1228 l 1,27,-1
 342 772 l 1,19,-1
EndSplineSet
Validated: 1
EndChar

StartChar: S
Encoding: 54 83 54
Width: 1024
GlyphClass: 2
Flags: W
LayerCount: 2
Fore
SplineSet
736 380 m 256,0,1
 736 419 736 419 725 453 c 128,-1,2
 714 487 714 487 687 516.5 c 128,-1,3
 660 546 660 546 616.5 570.5 c 128,-1,4
 573 595 573 595 508 616 c 0,5,6
 429 642 429 642 357.5 681 c 128,-1,7
 286 720 286 720 231 775 c 128,-1,8
 176 830 176 830 143 903 c 128,-1,9
 110 976 110 976 110 1071 c 0,10,11
 110 1163 110 1163 142.5 1238 c 128,-1,12
 175 1313 175 1313 232.5 1366 c 128,-1,13
 290 1419 290 1419 368 1447.5 c 128,-1,14
 446 1476 446 1476 537 1476 c 0,15,16
 632 1476 632 1476 710.5 1443 c 128,-1,17
 789 1410 789 1410 845 1350.5 c 128,-1,18
 901 1291 901 1291 933 1209 c 128,-1,19
 965 1127 965 1127 965 1029 c 1,20,-1
 737 1029 l 1,21,22
 735 1078 735 1078 722.5 1119 c 128,-1,23
 710 1160 710 1160 684.5 1189.5 c 128,-1,24
 659 1219 659 1219 621.5 1235.5 c 128,-1,25
 584 1252 584 1252 533 1252 c 0,26,27
 487 1252 487 1252 450.5 1238.5 c 128,-1,28
 414 1225 414 1225 389 1200.5 c 128,-1,29
 364 1176 364 1176 351.5 1142.5 c 128,-1,30
 339 1109 339 1109 339 1070 c 0,31,32
 339 1029 339 1029 356 996 c 128,-1,33
 373 963 373 963 405 936.5 c 128,-1,34
 437 910 437 910 483.5 888 c 128,-1,35
 530 866 530 866 588 847 c 0,36,37
 671 818 671 818 740.5 776 c 128,-1,38
 810 734 810 734 860.5 676.5 c 128,-1,39
 911 619 911 619 938.5 545.5 c 128,-1,40
 966 472 966 472 966 382 c 0,41,42
 966 286 966 286 934 211.5 c 128,-1,43
 902 137 902 137 845.5 85.5 c 128,-1,44
 789 34 789 34 711 7.5 c 128,-1,45
 633 -19 633 -19 541 -19 c 0,46,47
 484 -19 484 -19 427 -6.5 c 128,-1,48
 370 6 370 6 318 32 c 128,-1,49
 266 58 266 58 221.5 97 c 128,-1,50
 177 136 177 136 144 188 c 128,-1,51
 111 240 111 240 92.5 306 c 128,-1,52
 74 372 74 372 74 452 c 1,53,-1
 303 452 l 1,54,55
 305 386 305 386 322.5 339 c 128,-1,56
 340 292 340 292 371 262 c 128,-1,57
 402 232 402 232 445.5 218 c 128,-1,58
 489 204 489 204 541 204 c 0,59,60
 587 204 587 204 623.5 217 c 128,-1,61
 660 230 660 230 685 253 c 128,-1,62
 710 276 710 276 723 308.5 c 128,-1,63
 736 341 736 341 736 380 c 256,0,1
EndSplineSet
Validated: 1
EndChar

StartChar: T
Encoding: 55 84 55
Width: 1024
GlyphClass: 2
Flags: W
LayerCount: 2
Fore
SplineSet
997 1227 m 1,0,-1
 624 1227 l 1,1,-1
 624 0 l 1,2,-1
 390 0 l 1,3,-1
 390 1227 l 1,4,-1
 22 1227 l 1,5,-1
 22 1456 l 1,6,-1
 997 1456 l 1,7,-1
 997 1227 l 1,0,-1
EndSplineSet
Validated: 1
EndChar

StartChar: U
Encoding: 56 85 56
Width: 1024
GlyphClass: 2
Flags: W
LayerCount: 2
Fore
SplineSet
914 1456 m 1,0,-1
 915 491 l 2,1,2
 915 369 915 369 887 274 c 128,-1,3
 859 179 859 179 806.5 113.5 c 128,-1,4
 754 48 754 48 678 14 c 128,-1,5
 602 -20 602 -20 505 -20 c 0,6,7
 414 -20 414 -20 340 14 c 128,-1,8
 266 48 266 48 214 113 c 128,-1,9
 162 178 162 178 133.5 273.5 c 128,-1,10
 105 369 105 369 105 491 c 2,11,-1
 105 1456 l 1,12,-1
 339 1456 l 1,13,-1
 340 491 l 2,14,15
 341 350 341 350 382.5 278 c 128,-1,16
 424 206 424 206 505 206 c 0,17,18
 590 206 590 206 635.5 278 c 128,-1,19
 681 350 681 350 681 491 c 2,20,-1
 682 1456 l 1,21,-1
 914 1456 l 1,0,-1
EndSplineSet
Validated: 1
EndChar

StartChar: V
Encoding: 57 86 57
Width: 1024
GlyphClass: 2
Flags: W
LayerCount: 2
Fore
SplineSet
509 407 m 1,0,-1
 737 1456 l 1,1,-1
 994 1456 l 1,2,-1
 628 0 l 1,3,-1
 391 0 l 1,4,-1
 26 1456 l 1,5,-1
 283 1456 l 1,6,-1
 509 407 l 1,0,-1
EndSplineSet
Validated: 1
EndChar

StartChar: W
Encoding: 58 87 58
Width: 1024
GlyphClass: 2
Flags: W
LayerCount: 2
Fore
SplineSet
700 579 m 1,0,-1
 788 1456 l 1,1,-1
 1002 1456 l 1,2,-1
 834 0 l 1,3,-1
 623 0 l 1,4,-1
 509 860 l 1,5,-1
 398 0 l 1,6,-1
 188 0 l 1,7,-1
 22 1456 l 1,8,-1
 235 1456 l 1,9,-1
 321 585 l 1,10,-1
 424 1456 l 1,11,-1
 591 1456 l 1,12,-1
 700 579 l 1,0,-1
EndSplineSet
Validated: 1
EndChar

StartChar: X
Encoding: 59 88 59
Width: 1024
GlyphClass: 2
Flags: W
LayerCount: 2
Fore
SplineSet
518 934 m 1,0,-1
 733 1456 l 1,1,-1
 1007 1456 l 1,2,-1
 667 734 l 1,3,-1
 1015 0 l 1,4,-1
 743 0 l 1,5,-1
 521 530 l 1,6,-1
 300 0 l 1,7,-1
 25 0 l 1,8,-1
 374 734 l 1,9,-1
 34 1456 l 1,10,-1
 306 1456 l 1,11,-1
 518 934 l 1,0,-1
EndSplineSet
Validated: 1
EndChar

StartChar: Y
Encoding: 60 89 60
Width: 1024
GlyphClass: 2
Flags: W
LayerCount: 2
Fore
SplineSet
521 785 m 1,0,-1
 760 1456 l 1,1,-1
 1016 1456 l 1,2,-1
 636 504 l 1,3,-1
 635 0 l 1,4,-1
 403 0 l 1,5,-1
 402 516 l 1,6,-1
 27 1456 l 1,7,-1
 283 1456 l 1,8,-1
 521 785 l 1,0,-1
EndSplineSet
Validated: 1
EndChar

StartChar: Z
Encoding: 61 90 61
Width: 1024
GlyphClass: 2
Flags: W
LayerCount: 2
Fore
SplineSet
358 227 m 1,0,-1
 957 227 l 1,1,-1
 957 0 l 1,2,-1
 74 0 l 1,3,-1
 74 172 l 1,4,-1
 660 1227 l 1,5,-1
 76 1227 l 1,6,-1
 76 1456 l 1,7,-1
 942 1456 l 1,8,-1
 943 1289 l 1,9,-1
 358 227 l 1,0,-1
EndSplineSet
Validated: 1
EndChar

StartChar: bracketleft
Encoding: 62 91 62
Width: 1024
GlyphClass: 2
Flags: W
LayerCount: 2
Fore
SplineSet
704 -192 m 1,0,-1
 320 -192 l 1,1,-1
 320 1600 l 1,2,-1
 704 1600 l 1,3,-1
 704 1424 l 1,4,-1
 512 1424 l 1,5,-1
 512 -16 l 1,6,-1
 704 -16 l 1,7,-1
 704 -192 l 1,0,-1
EndSplineSet
Validated: 1
EndChar

StartChar: backslash
Encoding: 63 92 63
Width: 1024
GlyphClass: 2
Flags: W
LayerCount: 2
Fore
SplineSet
650 -64 m 1,0,-1
 158 1472 l 1,1,-1
 374 1472 l 1,2,-1
 866 -64 l 1,3,-1
 650 -64 l 1,0,-1
EndSplineSet
Validated: 1
EndChar

StartChar: bracketright
Encoding: 64 93 64
Width: 1024
GlyphClass: 2
Flags: W
LayerCount: 2
Fore
SplineSet
320 1600 m 1,0,-1
 704 1600 l 1,1,-1
 704 -192 l 1,2,-1
 320 -192 l 1,3,-1
 320 -16 l 1,4,-1
 512 -16 l 1,5,-1
 512 1424 l 1,6,-1
 320 1424 l 1,7,-1
 320 1600 l 1,0,-1
EndSplineSet
Validated: 1
EndChar

StartChar: asciicircum
Encoding: 65 94 65
Width: 1024
GlyphClass: 2
Flags: W
LayerCount: 2
Fore
SplineSet
512 1683 m 1,0,-1
 976 1219 l 1,1,-1
 821 1064 l 1,2,-1
 512 1373 l 1,3,-1
 203 1064 l 1,4,-1
 48 1219 l 1,5,-1
 512 1683 l 1,0,-1
EndSplineSet
Validated: 1
EndChar

StartChar: underscore
Encoding: 66 95 66
Width: 1024
GlyphClass: 2
Flags: W
LayerCount: 2
Fore
SplineSet
64 -176 m 1,0,-1
 64 0 l 1,1,-1
 960 0 l 1,2,-1
 960 -176 l 1,3,-1
 64 -176 l 1,0,-1
EndSplineSet
Validated: 1
EndChar

StartChar: grave
Encoding: 67 96 67
Width: 1024
GlyphClass: 2
Flags: W
LayerCount: 2
Fore
SplineSet
742 1199 m 1,0,-1
 560 1199 l 1,1,-1
 341 1478 l 1,2,-1
 595 1478 l 1,3,-1
 742 1199 l 1,0,-1
EndSplineSet
Validated: 1
EndChar

StartChar: a
Encoding: 68 97 68
Width: 1024
GlyphClass: 2
Flags: W
LayerCount: 2
Fore
SplineSet
678 0 m 1,0,1
 670 20 670 20 664 46 c 128,-1,2
 658 72 658 72 654 101 c 1,3,4
 635 76 635 76 610 54 c 128,-1,5
 585 32 585 32 555 15.5 c 128,-1,6
 525 -1 525 -1 488.5 -10.5 c 128,-1,7
 452 -20 452 -20 409 -20 c 0,8,9
 340 -20 340 -20 282.5 4 c 128,-1,10
 225 28 225 28 183.5 71 c 128,-1,11
 142 114 142 114 118.5 173.5 c 128,-1,12
 95 233 95 233 95 303 c 0,13,14
 95 474 95 474 201 567.5 c 128,-1,15
 307 661 307 661 517 661 c 2,16,-1
 646 661 l 1,17,-1
 646 725 l 2,18,19
 646 803 646 803 603.5 848.5 c 128,-1,20
 561 894 561 894 481 894 c 0,21,22
 410 894 410 894 378 857.5 c 128,-1,23
 346 821 346 821 346 760 c 1,24,-1
 115 760 l 1,25,26
 115 829 115 829 140.5 891 c 128,-1,27
 166 953 166 953 214.5 1000 c 128,-1,28
 263 1047 263 1047 333 1074.5 c 128,-1,29
 403 1102 403 1102 494 1102 c 0,30,31
 575 1102 575 1102 645.5 1078 c 128,-1,32
 716 1054 716 1054 767 1007 c 128,-1,33
 818 960 818 960 847.5 888.5 c 128,-1,34
 877 817 877 817 877 723 c 2,35,-1
 877 259 l 2,36,37
 877 172 877 172 886 115 c 128,-1,38
 895 58 895 58 912 17 c 1,39,-1
 912 0 l 1,40,-1
 678 0 l 1,0,1
458 195 m 0,41,42
 493 195 493 195 523 205 c 128,-1,43
 553 215 553 215 577 231 c 128,-1,44
 601 247 601 247 618.5 267.5 c 128,-1,45
 636 288 636 288 646 309 c 1,46,-1
 646 495 l 1,47,-1
 528 495 l 2,48,49
 474 495 474 495 436 482.5 c 128,-1,50
 398 470 398 470 373.5 447.5 c 128,-1,51
 349 425 349 425 337.5 393.5 c 128,-1,52
 326 362 326 362 326 325 c 0,53,54
 326 269 326 269 359 232 c 128,-1,55
 392 195 392 195 458 195 c 0,41,42
EndSplineSet
Validated: 1
EndChar

StartChar: b
Encoding: 69 98 69
Width: 1024
GlyphClass: 2
Flags: W
LayerCount: 2
Fore
SplineSet
926 530 m 2,0,1
 926 409 926 409 904 308 c 128,-1,2
 882 207 882 207 838 134 c 128,-1,3
 794 61 794 61 728.5 20.5 c 128,-1,4
 663 -20 663 -20 576 -20 c 0,5,6
 497 -20 497 -20 439.5 15.5 c 128,-1,7
 382 51 382 51 340 115 c 1,8,-1
 330 0 l 1,9,-1
 122 0 l 1,10,-1
 122 1476 l 1,11,-1
 353 1476 l 1,12,-1
 353 984 l 1,13,14
 393 1040 393 1040 447 1071 c 128,-1,15
 501 1102 501 1102 574 1102 c 0,16,17
 662 1102 662 1102 728 1061 c 128,-1,18
 794 1020 794 1020 838 947 c 128,-1,19
 882 874 882 874 904 772.5 c 128,-1,20
 926 671 926 671 926 551 c 2,21,-1
 926 530 l 2,0,1
696 551 m 2,22,23
 696 617 696 617 687.5 676 c 128,-1,24
 679 735 679 735 658.5 779.5 c 128,-1,25
 638 824 638 824 603.5 850 c 128,-1,26
 569 876 569 876 516 876 c 0,27,28
 453 876 453 876 413.5 844 c 128,-1,29
 374 812 374 812 353 756 c 1,30,-1
 353 325 l 1,31,32
 375 269 375 269 414 237 c 128,-1,33
 453 205 453 205 518 205 c 0,34,35
 570 205 570 205 604 229.5 c 128,-1,36
 638 254 638 254 658.5 297.5 c 128,-1,37
 679 341 679 341 687.5 400.5 c 128,-1,38
 696 460 696 460 696 530 c 2,39,-1
 696 551 l 2,22,23
EndSplineSet
Validated: 1
EndChar

StartChar: c
Encoding: 70 99 70
Width: 1024
GlyphClass: 2
Flags: W
LayerCount: 2
Fore
SplineSet
515 202 m 0,0,1
 549 202 549 202 579.5 214 c 128,-1,2
 610 226 610 226 633.5 248 c 128,-1,3
 657 270 657 270 669 301 c 128,-1,4
 681 332 681 332 681 370 c 1,5,-1
 898 370 l 1,6,7
 898 286 898 286 868.5 214 c 128,-1,8
 839 142 839 142 787 90 c 128,-1,9
 735 38 735 38 665.5 8.5 c 128,-1,10
 596 -21 596 -21 519 -21 c 0,11,12
 414 -21 414 -21 335 21.5 c 128,-1,13
 256 64 256 64 203.5 138 c 128,-1,14
 151 212 151 212 124 311.5 c 128,-1,15
 97 411 97 411 97 525 c 2,16,-1
 97 555 l 2,17,18
 97 669 97 669 123.5 768.5 c 128,-1,19
 150 868 150 868 203 942 c 128,-1,20
 256 1016 256 1016 334.5 1059 c 128,-1,21
 413 1102 413 1102 517 1102 c 0,22,23
 600 1102 600 1102 670.5 1072 c 128,-1,24
 741 1042 741 1042 792 987.5 c 128,-1,25
 843 933 843 933 870.5 855.5 c 128,-1,26
 898 778 898 778 898 682 c 1,27,-1
 681 682 l 1,28,29
 681 722 681 722 670 758 c 128,-1,30
 659 794 659 794 636.5 820 c 128,-1,31
 614 846 614 846 582.5 861.5 c 128,-1,32
 551 877 551 877 514 877 c 0,33,34
 459 877 459 877 423.5 850 c 128,-1,35
 388 823 388 823 366.5 778 c 128,-1,36
 345 733 345 733 336.5 675 c 128,-1,37
 328 617 328 617 328 555 c 2,38,-1
 328 525 l 2,39,40
 328 462 328 462 336 403.5 c 128,-1,41
 344 345 344 345 365.5 300.5 c 128,-1,42
 387 256 387 256 423 229 c 128,-1,43
 459 202 459 202 515 202 c 0,0,1
EndSplineSet
Validated: 1
EndChar

StartChar: d
Encoding: 71 100 71
Width: 1024
GlyphClass: 2
Flags: W
LayerCount: 2
Fore
SplineSet
93 549 m 2,0,1
 93 672 93 672 116.5 774 c 128,-1,2
 140 876 140 876 186 949 c 128,-1,3
 232 1022 232 1022 297 1062 c 128,-1,4
 362 1102 362 1102 446 1102 c 0,5,6
 517 1102 517 1102 570 1071.5 c 128,-1,7
 623 1041 623 1041 665 985 c 1,8,-1
 665 1476 l 1,9,-1
 896 1476 l 1,10,-1
 896 0 l 1,11,-1
 688 0 l 1,12,-1
 677 113 l 1,13,14
 635 50 635 50 577.5 15 c 128,-1,15
 520 -20 520 -20 444 -20 c 0,16,17
 362 -20 362 -20 297 21.5 c 128,-1,18
 232 63 232 63 186.5 136 c 128,-1,19
 141 209 141 209 117 309.5 c 128,-1,20
 93 410 93 410 93 528 c 2,21,-1
 93 549 l 2,0,1
324 528 m 2,22,23
 324 460 324 460 333.5 401.5 c 128,-1,24
 343 343 343 343 364.5 299.5 c 128,-1,25
 386 256 386 256 420 231 c 128,-1,26
 454 206 454 206 503 206 c 0,27,28
 563 206 563 206 602.5 237 c 128,-1,29
 642 268 642 268 665 322 c 1,30,-1
 665 760 l 1,31,32
 642 815 642 815 603 845.5 c 128,-1,33
 564 876 564 876 505 876 c 0,34,35
 456 876 456 876 421.5 850.5 c 128,-1,36
 387 825 387 825 365.5 780.5 c 128,-1,37
 344 736 344 736 334 676.5 c 128,-1,38
 324 617 324 617 324 549 c 2,39,-1
 324 528 l 2,22,23
EndSplineSet
Validated: 1
EndChar

StartChar: e
Encoding: 72 101 72
Width: 1024
GlyphClass: 2
Flags: W
LayerCount: 2
Fore
SplineSet
553 -20 m 0,0,1
 449 -20 449 -20 364.5 21 c 128,-1,2
 280 62 280 62 219.5 132.5 c 128,-1,3
 159 203 159 203 126 298.5 c 128,-1,4
 93 394 93 394 93 503 c 2,5,-1
 93 543 l 2,6,7
 93 667 93 667 125.5 769.5 c 128,-1,8
 158 872 158 872 216 946 c 128,-1,9
 274 1020 274 1020 353.5 1061 c 128,-1,10
 433 1102 433 1102 527 1102 c 0,11,12
 624 1102 624 1102 700 1063.5 c 128,-1,13
 776 1025 776 1025 829 955 c 128,-1,14
 882 885 882 885 909 786.5 c 128,-1,15
 936 688 936 688 936 569 c 2,16,-1
 936 451 l 1,17,-1
 327 451 l 1,18,19
 334 396 334 396 354 350.5 c 128,-1,20
 374 305 374 305 405.5 272 c 128,-1,21
 437 239 437 239 478 221 c 128,-1,22
 519 203 519 203 567 203 c 0,23,24
 601 203 601 203 634.5 211 c 128,-1,25
 668 219 668 219 699 234.5 c 128,-1,26
 730 250 730 250 756.5 273 c 128,-1,27
 783 296 783 296 803 327 c 1,28,-1
 918 177 l 1,29,30
 896 140 896 140 862 104.5 c 128,-1,31
 828 69 828 69 781 41.5 c 128,-1,32
 734 14 734 14 676.5 -3 c 128,-1,33
 619 -20 619 -20 553 -20 c 0,0,1
525 877 m 0,34,35
 486 877 486 877 454 860.5 c 128,-1,36
 422 844 422 844 397.5 813 c 128,-1,37
 373 782 373 782 356.5 739 c 128,-1,38
 340 696 340 696 331 643 c 1,39,-1
 710 643 l 1,40,-1
 710 665 l 2,41,42
 708 709 708 709 695.5 748 c 128,-1,43
 683 787 683 787 660 815.5 c 128,-1,44
 637 844 637 844 603 860.5 c 128,-1,45
 569 877 569 877 525 877 c 0,34,35
EndSplineSet
Validated: 1
EndChar

StartChar: f
Encoding: 73 102 73
Width: 1024
GlyphClass: 2
Flags: W
LayerCount: 2
Fore
SplineSet
340 0 m 1,0,-1
 340 877 l 1,1,-1
 105 877 l 1,2,-1
 105 1082 l 1,3,-1
 340 1082 l 1,4,-1
 340 1141 l 2,5,6
 340 1248 340 1248 368.5 1330 c 128,-1,7
 397 1412 397 1412 449 1468 c 128,-1,8
 501 1524 501 1524 576 1552.5 c 128,-1,9
 651 1581 651 1581 743 1581 c 0,10,11
 772 1581 772 1581 799 1578.5 c 128,-1,12
 826 1576 826 1576 851.5 1572 c 128,-1,13
 877 1568 877 1568 903.5 1563 c 128,-1,14
 930 1558 930 1558 958 1552 c 1,15,-1
 943 1334 l 1,16,17
 911 1342 911 1342 871.5 1348 c 128,-1,18
 832 1354 832 1354 778 1354 c 0,19,20
 670 1354 670 1354 621 1299 c 128,-1,21
 572 1244 572 1244 572 1141 c 2,22,-1
 572 1082 l 1,23,-1
 896 1082 l 1,24,-1
 896 877 l 1,25,-1
 572 877 l 1,26,-1
 572 0 l 1,27,-1
 340 0 l 1,0,-1
EndSplineSet
Validated: 1
EndChar

StartChar: g
Encoding: 74 103 74
Width: 1024
GlyphClass: 2
Flags: W
LayerCount: 2
Fore
SplineSet
940 928 m 1,0,-1
 834 928 l 1,1,2
 858 886 858 886 871 838 c 128,-1,3
 884 790 884 790 884 735 c 2,4,-1
 884 713 l 2,5,6
 884 636 884 636 856.5 569.5 c 128,-1,7
 829 503 829 503 778.5 453 c 128,-1,8
 728 403 728 403 657.5 374.5 c 128,-1,9
 587 346 587 346 500 346 c 0,10,11
 467 346 467 346 436.5 350 c 128,-1,12
 406 354 406 354 377 362 c 1,13,14
 367 350 367 350 360.5 333.5 c 128,-1,15
 354 317 354 317 354 296 c 0,16,17
 354 273 354 273 361.5 259 c 128,-1,18
 369 245 369 245 383.5 236.5 c 128,-1,19
 398 228 398 228 417.5 225 c 128,-1,20
 437 222 437 222 459 222 c 2,21,-1
 611 222 l 2,22,23
 688 222 688 222 748 202.5 c 128,-1,24
 808 183 808 183 850 145 c 128,-1,25
 892 107 892 107 913.5 51 c 128,-1,26
 935 -5 935 -5 935 -77 c 0,27,28
 935 -139 935 -139 904.5 -203 c 128,-1,29
 874 -267 874 -267 815.5 -319 c 128,-1,30
 757 -371 757 -371 671.5 -404.5 c 128,-1,31
 586 -438 586 -438 476 -438 c 0,32,33
 376 -438 376 -438 299 -415.5 c 128,-1,34
 222 -393 222 -393 170 -355 c 128,-1,35
 118 -317 118 -317 91.5 -267 c 128,-1,36
 65 -217 65 -217 65 -162 c 0,37,38
 65 -117 65 -117 77.5 -79 c 128,-1,39
 90 -41 90 -41 112 -10 c 128,-1,40
 134 21 134 21 162.5 45 c 128,-1,41
 191 69 191 69 223 87 c 1,42,43
 204 110 204 110 194 140.5 c 128,-1,44
 184 171 184 171 184 211 c 0,45,46
 184 245 184 245 192 274 c 128,-1,47
 200 303 200 303 213.5 326.5 c 128,-1,48
 227 350 227 350 244 369 c 128,-1,49
 261 388 261 388 281 404 c 1,50,51
 200 453 200 453 155.5 533.5 c 128,-1,52
 111 614 111 614 111 713 c 2,53,-1
 111 735 l 2,54,55
 111 816 111 816 139 883.5 c 128,-1,56
 167 951 167 951 217.5 999.5 c 128,-1,57
 268 1048 268 1048 339.5 1075 c 128,-1,58
 411 1102 411 1102 498 1102 c 0,59,60
 571 1102 571 1102 636 1082 c 1,61,-1
 939 1082 l 1,62,-1
 940 928 l 1,0,-1
416 12 m 2,63,64
 396 12 396 12 377.5 13.5 c 128,-1,65
 359 15 359 15 341 19 c 1,66,67
 316 3 316 3 299.5 -26.5 c 128,-1,68
 283 -56 283 -56 283 -96 c 0,69,70
 283 -122 283 -122 294.5 -146 c 128,-1,71
 306 -170 306 -170 330 -188 c 128,-1,72
 354 -206 354 -206 390.5 -216.5 c 128,-1,73
 427 -227 427 -227 476 -227 c 0,74,75
 535 -227 535 -227 578.5 -214.5 c 128,-1,76
 622 -202 622 -202 650 -182 c 128,-1,77
 678 -162 678 -162 692 -137.5 c 128,-1,78
 706 -113 706 -113 706 -90 c 0,79,80
 706 -69 706 -69 700 -50.5 c 128,-1,81
 694 -32 694 -32 679.5 -18 c 128,-1,82
 665 -4 665 -4 641 4 c 128,-1,83
 617 12 617 12 580 12 c 2,84,-1
 416 12 l 2,63,64
341 713 m 2,85,86
 341 682 341 682 352 653.5 c 128,-1,87
 363 625 363 625 383 603.5 c 128,-1,88
 403 582 403 582 432.5 569 c 128,-1,89
 462 556 462 556 500 556 c 0,90,91
 536 556 536 556 565 569 c 128,-1,92
 594 582 594 582 613.5 603.5 c 128,-1,93
 633 625 633 625 644 653.5 c 128,-1,94
 655 682 655 682 655 713 c 2,95,-1
 655 735 l 2,96,97
 655 767 655 767 644 795.5 c 128,-1,98
 633 824 633 824 612.5 845 c 128,-1,99
 592 866 592 866 563 878 c 128,-1,100
 534 890 534 890 498 890 c 0,101,102
 461 890 461 890 432 878 c 128,-1,103
 403 866 403 866 383 845 c 128,-1,104
 363 824 363 824 352 795.5 c 128,-1,105
 341 767 341 767 341 735 c 2,106,-1
 341 713 l 2,85,86
EndSplineSet
Validated: 1
EndChar

StartChar: h
Encoding: 75 104 75
Width: 1024
GlyphClass: 2
Flags: W
LayerCount: 2
Fore
SplineSet
348 933 m 1,0,1
 393 1012 393 1012 457 1057 c 128,-1,2
 521 1102 521 1102 601 1102 c 0,3,4
 672 1102 672 1102 730.5 1076.5 c 128,-1,5
 789 1051 789 1051 831.5 997 c 128,-1,6
 874 943 874 943 897.5 858.5 c 128,-1,7
 921 774 921 774 921 655 c 2,8,-1
 921 0 l 1,9,-1
 691 0 l 1,10,-1
 691 657 l 2,11,12
 691 715 691 715 679 757 c 128,-1,13
 667 799 667 799 644.5 825 c 128,-1,14
 622 851 622 851 590.5 863.5 c 128,-1,15
 559 876 559 876 519 876 c 0,16,17
 461 876 461 876 418 851 c 128,-1,18
 375 826 375 826 348 781 c 1,19,-1
 348 0 l 1,20,-1
 117 0 l 1,21,-1
 117 1476 l 1,22,-1
 348 1476 l 1,23,-1
 348 933 l 1,0,1
EndSplineSet
Validated: 1
EndChar

StartChar: i
Encoding: 76 105 76
Width: 1024
GlyphClass: 2
Flags: W
LayerCount: 2
Fore
SplineSet
178 1082 m 1,0,-1
 667 1082 l 1,1,-1
 667 226 l 1,2,-1
 911 226 l 1,3,-1
 911 0 l 1,4,-1
 178 0 l 1,5,-1
 178 226 l 1,6,-1
 434 226 l 1,7,-1
 434 855 l 1,8,-1
 178 855 l 1,9,-1
 178 1082 l 1,0,-1
418 1359 m 256,10,11
 418 1391 418 1391 427.5 1418.5 c 128,-1,12
 437 1446 437 1446 454 1465.5 c 128,-1,13
 471 1485 471 1485 495.5 1496 c 128,-1,14
 520 1507 520 1507 550 1507 c 0,15,16
 611 1507 611 1507 647.5 1465.5 c 128,-1,17
 684 1424 684 1424 684 1359 c 256,18,19
 684 1294 684 1294 648 1252.5 c 128,-1,20
 612 1211 612 1211 550 1211 c 0,21,22
 520 1211 520 1211 495.5 1222 c 128,-1,23
 471 1233 471 1233 454 1252.5 c 128,-1,24
 437 1272 437 1272 427.5 1299.5 c 128,-1,25
 418 1327 418 1327 418 1359 c 256,10,11
EndSplineSet
Validated: 1
EndChar

StartChar: j
Encoding: 77 106 77
Width: 1024
GlyphClass: 2
Flags: W
LayerCount: 2
Fore
SplineSet
255 1082 m 1,0,-1
 715 1082 l 1,1,-1
 715 -25 l 2,2,3
 715 -133 715 -133 689 -210.5 c 128,-1,4
 663 -288 663 -288 614 -338.5 c 128,-1,5
 565 -389 565 -389 494.5 -413 c 128,-1,6
 424 -437 424 -437 334 -437 c 0,7,8
 297 -437 297 -437 258.5 -433.5 c 128,-1,9
 220 -430 220 -430 185 -420 c 1,10,-1
 197 -194 l 1,11,12
 207 -197 207 -197 224.5 -199.5 c 128,-1,13
 242 -202 242 -202 261 -203.5 c 128,-1,14
 280 -205 280 -205 297 -205.5 c 128,-1,15
 314 -206 314 -206 322 -206 c 0,16,17
 355 -206 355 -206 384.5 -197 c 128,-1,18
 414 -188 414 -188 435.5 -167 c 128,-1,19
 457 -146 457 -146 469 -111.5 c 128,-1,20
 481 -77 481 -77 481 -25 c 2,21,-1
 481 855 l 1,22,-1
 255 855 l 1,23,-1
 255 1082 l 1,0,-1
466 1359 m 256,24,25
 466 1391 466 1391 475.5 1418.5 c 128,-1,26
 485 1446 485 1446 502 1465.5 c 128,-1,27
 519 1485 519 1485 543.5 1496 c 128,-1,28
 568 1507 568 1507 598 1507 c 0,29,30
 659 1507 659 1507 695 1465.5 c 128,-1,31
 731 1424 731 1424 731 1359 c 256,32,33
 731 1294 731 1294 695 1252.5 c 128,-1,34
 659 1211 659 1211 598 1211 c 0,35,36
 568 1211 568 1211 543.5 1222 c 128,-1,37
 519 1233 519 1233 502 1252.5 c 128,-1,38
 485 1272 485 1272 475.5 1299.5 c 128,-1,39
 466 1327 466 1327 466 1359 c 256,24,25
EndSplineSet
Validated: 1
EndChar

StartChar: k
Encoding: 78 107 78
Width: 1024
GlyphClass: 2
Flags: W
LayerCount: 2
Fore
SplineSet
455 447 m 1,0,-1
 350 330 l 1,1,-1
 350 0 l 1,2,-1
 120 0 l 1,3,-1
 120 1476 l 1,4,-1
 350 1476 l 1,5,-1
 350 658 l 1,6,-1
 420 754 l 1,7,-1
 668 1082 l 1,8,-1
 945 1082 l 1,9,-1
 607 631 l 1,10,-1
 993 0 l 1,11,-1
 710 0 l 1,12,-1
 455 447 l 1,0,-1
EndSplineSet
Validated: 1
EndChar

StartChar: l
Encoding: 79 108 79
Width: 1024
GlyphClass: 2
Flags: W
LayerCount: 2
Fore
SplineSet
165 1476 m 1,0,-1
 667 1476 l 1,1,-1
 667 226 l 1,2,-1
 925 226 l 1,3,-1
 925 0 l 1,4,-1
 165 0 l 1,5,-1
 165 226 l 1,6,-1
 434 226 l 1,7,-1
 434 1249 l 1,8,-1
 165 1249 l 1,9,-1
 165 1476 l 1,0,-1
EndSplineSet
Validated: 1
EndChar

StartChar: m
Encoding: 80 109 80
Width: 1024
GlyphClass: 2
Flags: W
LayerCount: 2
Fore
SplineSet
261 1082 m 1,0,-1
 267 951 l 1,1,2
 293 1021 293 1021 338 1061.5 c 128,-1,3
 383 1102 383 1102 448 1102 c 0,4,5
 557 1102 557 1102 590 987 c 1,6,7
 617 1041 617 1041 658 1071.5 c 128,-1,8
 699 1102 699 1102 757 1102 c 0,9,10
 798 1102 798 1102 833 1084 c 128,-1,11
 868 1066 868 1066 894.5 1026.5 c 128,-1,12
 921 987 921 987 935.5 924.5 c 128,-1,13
 950 862 950 862 950 772 c 2,14,-1
 950 0 l 1,15,-1
 740 0 l 1,16,-1
 740 773 l 2,17,18
 740 804 740 804 734.5 824 c 128,-1,19
 729 844 729 844 720 855.5 c 128,-1,20
 711 867 711 867 698.5 871.5 c 128,-1,21
 686 876 686 876 674 876 c 0,22,23
 650 876 650 876 633.5 862.5 c 128,-1,24
 617 849 617 849 608 826 c 1,25,-1
 608 0 l 1,26,-1
 404 0 l 1,27,-1
 404 774 l 2,28,29
 404 805 404 805 399 825 c 128,-1,30
 394 845 394 845 385.5 856 c 128,-1,31
 377 867 377 867 365.5 871.5 c 128,-1,32
 354 876 354 876 340 876 c 0,33,34
 313 876 313 876 297 858 c 128,-1,35
 281 840 281 840 272 810 c 1,36,-1
 272 0 l 1,37,-1
 62 0 l 1,38,-1
 62 1082 l 1,39,-1
 261 1082 l 1,0,-1
EndSplineSet
Validated: 1
EndChar

StartChar: n
Encoding: 81 110 81
Width: 1024
GlyphClass: 2
Flags: W
LayerCount: 2
Fore
SplineSet
326 1082 m 1,0,-1
 340 932 l 1,1,2
 388 1013 388 1013 457 1057.5 c 128,-1,3
 526 1102 526 1102 610 1102 c 0,4,5
 678 1102 678 1102 734.5 1078 c 128,-1,6
 791 1054 791 1054 832 1001.5 c 128,-1,7
 873 949 873 949 896 866.5 c 128,-1,8
 919 784 919 784 919 666 c 2,9,-1
 919 0 l 1,10,-1
 688 0 l 1,11,-1
 688 662 l 2,12,13
 688 726 688 726 676 767.5 c 128,-1,14
 664 809 664 809 641.5 833 c 128,-1,15
 619 857 619 857 587.5 866.5 c 128,-1,16
 556 876 556 876 516 876 c 0,17,18
 457 876 457 876 415.5 847.5 c 128,-1,19
 374 819 374 819 349 769 c 1,20,-1
 349 0 l 1,21,-1
 117 0 l 1,22,-1
 117 1082 l 1,23,-1
 326 1082 l 1,0,-1
EndSplineSet
Validated: 1
EndChar

StartChar: o
Encoding: 82 111 82
Width: 1024
GlyphClass: 2
Flags: W
LayerCount: 2
Fore
SplineSet
85 551 m 2,0,1
 85 669 85 669 113.5 769.5 c 128,-1,2
 142 870 142 870 196.5 944 c 128,-1,3
 251 1018 251 1018 329.5 1060 c 128,-1,4
 408 1102 408 1102 509 1102 c 256,5,6
 610 1102 610 1102 689 1060 c 128,-1,7
 768 1018 768 1018 822.5 944 c 128,-1,8
 877 870 877 870 905 769.5 c 128,-1,9
 933 669 933 669 933 551 c 2,10,-1
 933 530 l 2,11,12
 933 411 933 411 905 310.5 c 128,-1,13
 877 210 877 210 823 136 c 128,-1,14
 769 62 769 62 690 20.5 c 128,-1,15
 611 -21 611 -21 510 -21 c 128,-1,16
 409 -21 409 -21 330 20.5 c 128,-1,17
 251 62 251 62 196.5 136 c 128,-1,18
 142 210 142 210 113.5 310.5 c 128,-1,19
 85 411 85 411 85 530 c 2,20,-1
 85 551 l 2,0,1
316 530 m 2,21,22
 316 462 316 462 327 402.5 c 128,-1,23
 338 343 338 343 361 298.5 c 128,-1,24
 384 254 384 254 421 228 c 128,-1,25
 458 202 458 202 510 202 c 0,26,27
 561 202 561 202 597.5 228 c 128,-1,28
 634 254 634 254 657 298.5 c 128,-1,29
 680 343 680 343 690.5 402.5 c 128,-1,30
 701 462 701 462 701 530 c 2,31,-1
 701 551 l 2,32,33
 701 617 701 617 690.5 676 c 128,-1,34
 680 735 680 735 657 780 c 128,-1,35
 634 825 634 825 597.5 851 c 128,-1,36
 561 877 561 877 509 877 c 0,37,38
 458 877 458 877 421 851 c 128,-1,39
 384 825 384 825 361 780 c 128,-1,40
 338 735 338 735 327 676 c 128,-1,41
 316 617 316 617 316 551 c 2,42,-1
 316 530 l 2,21,22
EndSplineSet
Validated: 1
EndChar

StartChar: p
Encoding: 83 112 83
Width: 1024
GlyphClass: 2
Flags: W
LayerCount: 2
Fore
SplineSet
924 531 m 2,0,1
 924 413 924 413 901 312 c 128,-1,2
 878 211 878 211 833.5 137.5 c 128,-1,3
 789 64 789 64 723.5 22 c 128,-1,4
 658 -20 658 -20 574 -20 c 0,5,6
 502 -20 502 -20 447 10 c 128,-1,7
 392 40 392 40 351 94 c 1,8,-1
 351 -416 l 1,9,-1
 120 -416 l 1,10,-1
 120 1082 l 1,11,-1
 334 1082 l 1,12,-1
 342 976 l 1,13,14
 384 1036 384 1036 440 1069 c 128,-1,15
 496 1102 496 1102 572 1102 c 0,16,17
 657 1102 657 1102 723 1062.5 c 128,-1,18
 789 1023 789 1023 833.5 950.5 c 128,-1,19
 878 878 878 878 901 776.5 c 128,-1,20
 924 675 924 675 924 552 c 2,21,-1
 924 531 l 2,0,1
693 552 m 2,22,23
 693 620 693 620 682.5 679.5 c 128,-1,24
 672 739 672 739 650 782.5 c 128,-1,25
 628 826 628 826 593.5 851 c 128,-1,26
 559 876 559 876 510 876 c 0,27,28
 449 876 449 876 411 847.5 c 128,-1,29
 373 819 373 819 351 767 c 1,30,-1
 351 315 l 1,31,32
 373 264 373 264 411.5 233.5 c 128,-1,33
 450 203 450 203 512 203 c 0,34,35
 561 203 561 203 595.5 229 c 128,-1,36
 630 255 630 255 651.5 300 c 128,-1,37
 673 345 673 345 683 404.5 c 128,-1,38
 693 464 693 464 693 531 c 2,39,-1
 693 552 l 2,22,23
EndSplineSet
Validated: 1
EndChar

StartChar: q
Encoding: 84 113 84
Width: 1024
GlyphClass: 2
Flags: W
LayerCount: 2
Fore
SplineSet
94 550 m 2,0,1
 94 673 94 673 117 775 c 128,-1,2
 140 877 140 877 185.5 949.5 c 128,-1,3
 231 1022 231 1022 297 1062 c 128,-1,4
 363 1102 363 1102 448 1102 c 0,5,6
 524 1102 524 1102 581 1068 c 128,-1,7
 638 1034 638 1034 680 972 c 1,8,-1
 694 1082 l 1,9,-1
 897 1082 l 1,10,-1
 897 -416 l 1,11,-1
 666 -416 l 1,12,-1
 666 92 l 1,13,14
 625 38 625 38 571 9 c 128,-1,15
 517 -20 517 -20 447 -20 c 0,16,17
 362 -20 362 -20 296.5 21.5 c 128,-1,18
 231 63 231 63 186 136.5 c 128,-1,19
 141 210 141 210 117.5 310.5 c 128,-1,20
 94 411 94 411 94 529 c 2,21,-1
 94 550 l 2,0,1
325 529 m 2,22,23
 325 462 325 462 334.5 403 c 128,-1,24
 344 344 344 344 366 299.5 c 128,-1,25
 388 255 388 255 422.5 229 c 128,-1,26
 457 203 457 203 506 203 c 0,27,28
 567 203 567 203 605 232 c 128,-1,29
 643 261 643 261 666 312 c 1,30,-1
 666 772 l 1,31,32
 644 822 644 822 605 849.5 c 128,-1,33
 566 877 566 877 507 877 c 0,34,35
 458 877 458 877 423.5 851.5 c 128,-1,36
 389 826 389 826 367 782 c 128,-1,37
 345 738 345 738 335 678.5 c 128,-1,38
 325 619 325 619 325 550 c 2,39,-1
 325 529 l 2,22,23
EndSplineSet
Validated: 1
EndChar

StartChar: r
Encoding: 85 114 85
Width: 1024
GlyphClass: 2
Flags: W
LayerCount: 2
Fore
SplineSet
762 1102 m 0,0,1
 814 1102 814 1102 858.5 1093.5 c 128,-1,2
 903 1085 903 1085 931 1075 c 1,3,-1
 896 798 l 1,4,5
 850 811 850 811 802.5 817.5 c 128,-1,6
 755 824 755 824 712 824 c 0,7,8
 615 824 615 824 556.5 779 c 128,-1,9
 498 734 498 734 469 650 c 1,10,-1
 469 0 l 1,11,-1
 238 0 l 1,12,-1
 238 1082 l 1,13,-1
 453 1082 l 1,14,-1
 464 905 l 1,15,16
 519 997 519 997 595.5 1049.5 c 128,-1,17
 672 1102 672 1102 762 1102 c 0,0,1
EndSplineSet
Validated: 1
EndChar

StartChar: s
Encoding: 86 115 86
Width: 1024
GlyphClass: 2
Flags: W
LayerCount: 2
Fore
SplineSet
696 297 m 0,0,1
 696 322 696 322 686.5 341 c 128,-1,2
 677 360 677 360 652.5 376.5 c 128,-1,3
 628 393 628 393 587.5 407 c 128,-1,4
 547 421 547 421 485 435 c 0,5,6
 406 454 406 454 341 482.5 c 128,-1,7
 276 511 276 511 229.5 551.5 c 128,-1,8
 183 592 183 592 156.5 645 c 128,-1,9
 130 698 130 698 130 767 c 0,10,11
 130 834 130 834 156.5 895 c 128,-1,12
 183 956 183 956 233 1002 c 128,-1,13
 283 1048 283 1048 354.5 1075 c 128,-1,14
 426 1102 426 1102 515 1102 c 0,15,16
 609 1102 609 1102 684 1075.5 c 128,-1,17
 759 1049 759 1049 810.5 1002.5 c 128,-1,18
 862 956 862 956 889.5 892 c 128,-1,19
 917 828 917 828 917 753 c 1,20,-1
 686 753 l 1,21,22
 686 816 686 816 644 858.5 c 128,-1,23
 602 901 602 901 515 901 c 0,24,25
 434 901 434 901 393.5 866 c 128,-1,26
 353 831 353 831 353 780 c 0,27,28
 353 756 353 756 361 735.5 c 128,-1,29
 369 715 369 715 390.5 698.5 c 128,-1,30
 412 682 412 682 448.5 668.5 c 128,-1,31
 485 655 485 655 541 645 c 0,32,33
 622 629 622 629 692 604 c 128,-1,34
 762 579 762 579 812.5 539.5 c 128,-1,35
 863 500 863 500 892 443.5 c 128,-1,36
 921 387 921 387 921 309 c 0,37,38
 921 237 921 237 892 176.5 c 128,-1,39
 863 116 863 116 810.5 72 c 128,-1,40
 758 28 758 28 683 3.5 c 128,-1,41
 608 -21 608 -21 516 -21 c 0,42,43
 415 -21 415 -21 337.5 11 c 128,-1,44
 260 43 260 43 207.5 94.5 c 128,-1,45
 155 146 155 146 128 211.5 c 128,-1,46
 101 277 101 277 101 343 c 1,47,-1
 321 343 l 1,48,49
 323 299 323 299 341 267.5 c 128,-1,50
 359 236 359 236 386 216.5 c 128,-1,51
 413 197 413 197 448.5 188 c 128,-1,52
 484 179 484 179 521 179 c 0,53,54
 606 179 606 179 651 212 c 128,-1,55
 696 245 696 245 696 297 c 0,0,1
EndSplineSet
Validated: 1
EndChar

StartChar: t
Encoding: 87 116 87
Width: 1024
GlyphClass: 2
Flags: W
LayerCount: 2
Fore
SplineSet
540 1347 m 1,0,-1
 540 1082 l 1,1,-1
 876 1082 l 1,2,-1
 876 877 l 1,3,-1
 540 877 l 1,4,-1
 540 412 l 2,5,6
 540 353 540 353 551.5 313.5 c 128,-1,7
 563 274 563 274 583.5 250.5 c 128,-1,8
 604 227 604 227 633.5 217 c 128,-1,9
 663 207 663 207 700 207 c 0,10,11
 727 207 727 207 754.5 210 c 128,-1,12
 782 213 782 213 807.5 217.5 c 128,-1,13
 833 222 833 222 855 227 c 128,-1,14
 877 232 877 232 892 237 c 1,15,-1
 915 46 l 1,16,17
 891 29 891 29 858.5 16.5 c 128,-1,18
 826 4 826 4 789.5 -4 c 128,-1,19
 753 -12 753 -12 713.5 -16.5 c 128,-1,20
 674 -21 674 -21 636 -21 c 0,21,22
 562 -21 562 -21 502 2.5 c 128,-1,23
 442 26 442 26 399 75.5 c 128,-1,24
 356 125 356 125 333 201.5 c 128,-1,25
 310 278 310 278 310 385 c 2,26,-1
 310 877 l 1,27,-1
 105 877 l 1,28,-1
 105 1082 l 1,29,-1
 310 1082 l 1,30,-1
 310 1347 l 1,31,-1
 540 1347 l 1,0,-1
EndSplineSet
Validated: 1
EndChar

StartChar: u
Encoding: 88 117 88
Width: 1024
GlyphClass: 2
Flags: W
LayerCount: 2
Fore
SplineSet
690 152 m 1,0,1
 644 71 644 71 579.5 25 c 128,-1,2
 515 -21 515 -21 439 -21 c 0,3,4
 369 -21 369 -21 311 5 c 128,-1,5
 253 31 253 31 211.5 87.5 c 128,-1,6
 170 144 170 144 147.5 231.5 c 128,-1,7
 125 319 125 319 125 442 c 2,8,-1
 125 1082 l 1,9,-1
 355 1082 l 1,10,-1
 355 440 l 2,11,12
 355 374 355 374 363 329 c 128,-1,13
 371 284 371 284 388.5 256.5 c 128,-1,14
 406 229 406 229 434 217 c 128,-1,15
 462 205 462 205 503 205 c 0,16,17
 572 205 572 205 615 236.5 c 128,-1,18
 658 268 658 268 681 323 c 1,19,-1
 681 1082 l 1,20,-1
 912 1082 l 1,21,-1
 912 0 l 1,22,-1
 703 0 l 1,23,-1
 690 152 l 1,0,1
EndSplineSet
Validated: 1
EndChar

StartChar: v
Encoding: 89 118 89
Width: 1024
GlyphClass: 2
Flags: W
LayerCount: 2
Fore
SplineSet
499 321 m 1,0,-1
 510 243 l 1,1,-1
 522 318 l 1,2,-1
 720 1082 l 1,3,-1
 960 1082 l 1,4,-1
 619 0 l 1,5,-1
 403 0 l 1,6,-1
 60 1082 l 1,7,-1
 300 1082 l 1,8,-1
 499 321 l 1,0,-1
EndSplineSet
Validated: 1
EndChar

StartChar: w
Encoding: 90 119 90
Width: 1024
GlyphClass: 2
Flags: W
LayerCount: 2
Fore
SplineSet
691 339 m 1,0,-1
 769 1082 l 1,1,-1
 981 1082 l 1,2,-1
 820 0 l 1,3,-1
 618 0 l 1,4,-1
 500 688 l 1,5,-1
 386 0 l 1,6,-1
 183 0 l 1,7,-1
 22 1082 l 1,8,-1
 233 1082 l 1,9,-1
 311 336 l 1,10,-1
 424 1082 l 1,11,-1
 579 1082 l 1,12,-1
 691 339 l 1,0,-1
EndSplineSet
Validated: 1
EndChar

StartChar: x
Encoding: 91 120 91
Width: 1024
GlyphClass: 2
Flags: W
LayerCount: 2
Fore
SplineSet
528 744 m 1,0,-1
 725 1082 l 1,1,-1
 974 1082 l 1,2,-1
 672 551 l 1,3,-1
 984 0 l 1,4,-1
 735 0 l 1,5,-1
 529 354 l 1,6,-1
 324 0 l 1,7,-1
 74 0 l 1,8,-1
 386 551 l 1,9,-1
 85 1082 l 1,10,-1
 334 1082 l 1,11,-1
 528 744 l 1,0,-1
EndSplineSet
Validated: 1
EndChar

StartChar: y
Encoding: 92 121 92
Width: 1024
GlyphClass: 2
Flags: W
LayerCount: 2
Fore
SplineSet
500 454 m 1,0,-1
 526 338 l 1,1,-1
 765 1082 l 1,2,-1
 1020 1082 l 1,3,-1
 564 -162 l 2,4,5
 549 -203 549 -203 525.5 -251 c 128,-1,6
 502 -299 502 -299 466.5 -340 c 128,-1,7
 431 -381 431 -381 380 -409 c 128,-1,8
 329 -437 329 -437 259 -437 c 0,9,10
 242 -437 242 -437 228 -435.5 c 128,-1,11
 214 -434 214 -434 201 -431.5 c 128,-1,12
 188 -429 188 -429 175 -425.5 c 128,-1,13
 162 -422 162 -422 147 -417 c 1,14,-1
 175 -205 l 1,15,16
 189 -205 189 -205 211 -206.5 c 128,-1,17
 233 -208 233 -208 247 -208 c 0,18,19
 274 -208 274 -208 295 -188 c 128,-1,20
 316 -168 316 -168 331 -144 c 128,-1,21
 346 -120 346 -120 355 -100 c 128,-1,22
 364 -80 364 -80 368 -80 c 2,23,-1
 423 46 l 1,24,-1
 43 1082 l 1,25,-1
 296 1082 l 1,26,-1
 500 454 l 1,0,-1
EndSplineSet
Validated: 1
EndChar

StartChar: z
Encoding: 93 122 93
Width: 1024
GlyphClass: 2
Flags: W
LayerCount: 2
Fore
SplineSet
413 223 m 1,0,-1
 942 223 l 1,1,-1
 942 0 l 1,2,-1
 98 0 l 1,3,-1
 98 172 l 1,4,-1
 601 856 l 1,5,-1
 110 856 l 1,6,-1
 110 1082 l 1,7,-1
 921 1082 l 1,8,-1
 921 915 l 1,9,-1
 413 223 l 1,0,-1
EndSplineSet
Validated: 1
EndChar

StartChar: braceleft
Encoding: 94 123 94
Width: 1024
GlyphClass: 2
Flags: W
LayerCount: 2
Fore
SplineSet
832 -16 m 1,0,-1
 832 -192 l 1,1,-1
 736 -192 l 2,2,3
 576 -192 576 -192 464 -80 c 128,-1,4
 352 32 352 32 352 192 c 2,5,-1
 352 448 l 2,6,7
 352 528 352 528 296 584 c 128,-1,8
 240 640 240 640 160 640 c 1,9,-1
 160 768 l 1,10,11
 240 768 240 768 296 824 c 128,-1,12
 352 880 352 880 352 960 c 2,13,-1
 352 1216 l 2,14,15
 352 1376 352 1376 464 1488 c 128,-1,16
 576 1600 576 1600 736 1600 c 2,17,-1
 840 1600 l 1,18,-1
 840 1424 l 1,19,-1
 752 1424 l 2,20,21
 666 1424 666 1424 605 1363 c 128,-1,22
 544 1302 544 1302 544 1216 c 2,23,-1
 544 960 l 2,24,25
 544 806 544 806 453 704 c 1,26,27
 544 602 544 602 544 448 c 2,28,-1
 544 192 l 2,29,30
 544 106 544 106 605 45 c 128,-1,31
 666 -16 666 -16 752 -16 c 2,32,-1
 832 -16 l 1,0,-1
EndSplineSet
Validated: 1
EndChar

StartChar: bar
Encoding: 95 124 95
Width: 1024
GlyphClass: 2
Flags: W
LayerCount: 2
Fore
SplineSet
600 -128 m 1,0,-1
 424 -128 l 1,1,-1
 424 1536 l 1,2,-1
 600 1536 l 1,3,-1
 600 -128 l 1,0,-1
EndSplineSet
Validated: 1
EndChar

StartChar: braceright
Encoding: 96 125 96
Width: 1024
GlyphClass: 2
Flags: W
LayerCount: 2
Fore
SplineSet
192 1424 m 1,0,-1
 192 1600 l 1,1,-1
 288 1600 l 2,2,3
 448 1600 448 1600 560 1488 c 128,-1,4
 672 1376 672 1376 672 1216 c 2,5,-1
 672 960 l 2,6,7
 672 880 672 880 728 824 c 128,-1,8
 784 768 784 768 864 768 c 1,9,-1
 864 640 l 1,10,11
 784 640 784 640 728 584 c 128,-1,12
 672 528 672 528 672 448 c 2,13,-1
 672 192 l 2,14,15
 672 32 672 32 560 -80 c 128,-1,16
 448 -192 448 -192 288 -192 c 2,17,-1
 184 -192 l 1,18,-1
 184 -16 l 1,19,-1
 272 -16 l 2,20,21
 358 -16 358 -16 419 45 c 128,-1,22
 480 106 480 106 480 192 c 2,23,-1
 480 448 l 2,24,25
 480 602 480 602 571 704 c 1,26,27
 480 806 480 806 480 960 c 2,28,-1
 480 1216 l 2,29,30
 480 1302 480 1302 419 1363 c 128,-1,31
 358 1424 358 1424 272 1424 c 2,32,-1
 192 1424 l 1,0,-1
EndSplineSet
Validated: 1
EndChar

StartChar: asciitilde
Encoding: 97 126 97
Width: 1024
GlyphClass: 2
Flags: W
LayerCount: 2
Fore
SplineSet
1008 832 m 1,0,1
 1008 688 1008 688 919 588 c 128,-1,2
 830 488 830 488 708.5 488 c 128,-1,3
 587 488 587 488 476 616 c 128,-1,4
 365 744 365 744 301 744 c 128,-1,5
 237 744 237 744 206.5 694 c 128,-1,6
 176 644 176 644 176 576 c 1,7,-1
 16 576 l 1,8,9
 16 720 16 720 105 820 c 128,-1,10
 194 920 194 920 315.5 920 c 128,-1,11
 437 920 437 920 548 792 c 128,-1,12
 659 664 659 664 723 664 c 128,-1,13
 787 664 787 664 818 714 c 0,14,15
 848 764 848 764 848 832 c 1,16,-1
 1008 832 l 1,0,1
EndSplineSet
Validated: 1
EndChar

StartChar: cent
Encoding: 100 162 100
Width: 1024
GlyphClass: 2
Flags: W
LayerCount: 2
Fore
SplineSet
535 202 m 0,0,1
 569 202 569 202 600 214 c 128,-1,2
 631 226 631 226 654 248 c 128,-1,3
 677 270 677 270 689 301 c 128,-1,4
 701 332 701 332 701 370 c 1,5,-1
 919 370 l 1,6,7
 919 296 919 296 896.5 232 c 128,-1,8
 874 168 874 168 833 117.5 c 128,-1,9
 792 67 792 67 736 33.5 c 128,-1,10
 680 0 680 0 616 -13 c 1,11,-1
 616 -245 l 1,12,-1
 450 -245 l 1,13,-1
 450 -12 l 1,14,15
 368 6 368 6 305.5 54 c 128,-1,16
 243 102 243 102 201.5 173 c 128,-1,17
 160 244 160 244 139 334 c 128,-1,18
 118 424 118 424 118 525 c 2,19,-1
 118 555 l 2,20,21
 118 656 118 656 139 746 c 128,-1,22
 160 836 160 836 201.5 907 c 128,-1,23
 243 978 243 978 305.5 1026.5 c 128,-1,24
 368 1075 368 1075 450 1093 c 1,25,-1
 450 1318 l 1,26,-1
 616 1318 l 1,27,-1
 616 1095 l 1,28,29
 683 1082 683 1082 739.5 1047.5 c 128,-1,30
 796 1013 796 1013 836.5 959.5 c 128,-1,31
 877 906 877 906 898 836 c 128,-1,32
 919 766 919 766 919 682 c 1,33,-1
 701 682 l 1,34,35
 701 722 701 722 690.5 758 c 128,-1,36
 680 794 680 794 657.5 820 c 128,-1,37
 635 846 635 846 603.5 861.5 c 128,-1,38
 572 877 572 877 535 877 c 0,39,40
 480 877 480 877 444 850 c 128,-1,41
 408 823 408 823 387 778 c 128,-1,42
 366 733 366 733 357.5 675 c 128,-1,43
 349 617 349 617 349 555 c 2,44,-1
 349 525 l 2,45,46
 349 462 349 462 357 403.5 c 128,-1,47
 365 345 365 345 386.5 300.5 c 128,-1,48
 408 256 408 256 443.5 229 c 128,-1,49
 479 202 479 202 535 202 c 0,0,1
EndSplineSet
Validated: 1
EndChar

StartChar: sterling
Encoding: 101 163 101
Width: 1024
GlyphClass: 2
Flags: W
LayerCount: 2
Fore
SplineSet
465 585 m 1,0,-1
 470 431 l 2,1,2
 470 369 470 369 458 318 c 128,-1,3
 446 267 446 267 418 226 c 1,4,-1
 974 226 l 1,5,-1
 974 0 l 1,6,-1
 98 0 l 1,7,-1
 98 226 l 1,8,-1
 172 226 l 1,9,10
 192 232 192 232 204 251.5 c 128,-1,11
 216 271 216 271 223 298 c 128,-1,12
 230 325 230 325 232 356.5 c 128,-1,13
 234 388 234 388 234 418 c 2,14,-1
 230 585 l 1,15,-1
 95 585 l 1,16,-1
 95 806 l 1,17,-1
 224 806 l 1,18,-1
 218 1040 l 2,19,20
 218 1143 218 1143 245.5 1224.5 c 128,-1,21
 273 1306 273 1306 323 1361.5 c 128,-1,22
 373 1417 373 1417 442 1446.5 c 128,-1,23
 511 1476 511 1476 594 1476 c 0,24,25
 683 1476 683 1476 752 1446.5 c 128,-1,26
 821 1417 821 1417 868 1363 c 128,-1,27
 915 1309 915 1309 939.5 1233 c 128,-1,28
 964 1157 964 1157 964 1064 c 1,29,-1
 740 1064 l 1,30,31
 740 1115 740 1115 728 1150.5 c 128,-1,32
 716 1186 716 1186 695.5 1208 c 128,-1,33
 675 1230 675 1230 648 1239.5 c 128,-1,34
 621 1249 621 1249 591 1249 c 256,35,36
 561 1249 561 1249 535.5 1235.5 c 128,-1,37
 510 1222 510 1222 491 1196 c 128,-1,38
 472 1170 472 1170 461.5 1130.5 c 128,-1,39
 451 1091 451 1091 451 1040 c 2,40,-1
 458 806 l 1,41,-1
 716 806 l 1,42,-1
 716 585 l 1,43,-1
 465 585 l 1,0,-1
EndSplineSet
Validated: 1
EndChar

StartChar: currency
Encoding: 102 164 102
Width: 1024
GlyphClass: 2
Flags: W
LayerCount: 2
Fore
SplineSet
750 78 m 1,0,1
 699 30 699 30 638 5 c 128,-1,2
 577 -20 577 -20 510 -20 c 256,3,4
 443 -20 443 -20 381.5 5 c 128,-1,5
 320 30 320 30 269 76 c 1,6,-1
 186 -26 l 1,7,-1
 69 118 l 1,8,-1
 159 228 l 1,9,10
 130 288 130 288 114 359 c 128,-1,11
 98 430 98 430 98 508 c 0,12,13
 98 591 98 591 116 665 c 128,-1,14
 134 739 134 739 165 801 c 1,15,-1
 69 920 l 1,16,-1
 186 1064 l 1,17,-1
 281 947 l 1,18,19
 331 989 331 989 388.5 1011.5 c 128,-1,20
 446 1034 446 1034 510 1034 c 256,21,22
 574 1034 574 1034 632 1011 c 128,-1,23
 690 988 690 988 740 946 c 1,24,-1
 836 1065 l 1,25,-1
 954 920 l 1,26,-1
 854 797 l 1,27,28
 886 735 886 735 903 662 c 128,-1,29
 920 589 920 589 920 508 c 0,30,31
 920 430 920 430 904.5 360.5 c 128,-1,32
 889 291 889 291 861 231 c 1,33,-1
 954 118 l 1,34,-1
 836 -27 l 1,35,-1
 750 78 l 1,0,1
252 508 m 256,36,37
 252 436 252 436 272 374 c 128,-1,38
 292 312 292 312 327 266.5 c 128,-1,39
 362 221 362 221 409 194.5 c 128,-1,40
 456 168 456 168 510 168 c 0,41,42
 563 168 563 168 610 194.5 c 128,-1,43
 657 221 657 221 691.5 266.5 c 128,-1,44
 726 312 726 312 746 374 c 128,-1,45
 766 436 766 436 766 508 c 256,46,47
 766 580 766 580 746 641.5 c 128,-1,48
 726 703 726 703 691.5 748 c 128,-1,49
 657 793 657 793 610 819 c 128,-1,50
 563 845 563 845 510 845 c 0,51,52
 456 845 456 845 409 819 c 128,-1,53
 362 793 362 793 327 748 c 128,-1,54
 292 703 292 703 272 641.5 c 128,-1,55
 252 580 252 580 252 508 c 256,36,37
EndSplineSet
Validated: 1
EndChar

StartChar: yen
Encoding: 103 165 103
Width: 1024
GlyphClass: 2
Flags: W
LayerCount: 2
Fore
SplineSet
261 1456 m 1,0,-1
 512 958 l 1,1,-1
 763 1456 l 1,2,-1
 959 1456 l 1,3,-1
 660 864 l 1,4,-1
 912 864 l 1,5,-1
 912 688 l 1,6,-1
 616 688 l 1,7,-1
 616 544 l 1,8,-1
 912 544 l 1,9,-1
 912 368 l 1,10,-1
 616 368 l 1,11,-1
 616 0 l 1,12,-1
 408 0 l 1,13,-1
 408 368 l 1,14,-1
 112 368 l 1,15,-1
 112 544 l 1,16,-1
 408 544 l 1,17,-1
 408 688 l 1,18,-1
 112 688 l 1,19,-1
 112 864 l 1,20,-1
 366 864 l 1,21,-1
 65 1456 l 1,22,-1
 261 1456 l 1,0,-1
EndSplineSet
Validated: 1
EndChar

StartChar: brokenbar
Encoding: 104 166 104
Width: 1024
GlyphClass: 2
Flags: W
LayerCount: 2
Fore
SplineSet
600 -128 m 1,0,-1
 424 -128 l 1,1,-1
 424 576 l 1,2,-1
 600 576 l 1,3,-1
 600 -128 l 1,0,-1
424 832 m 1,4,-1
 424 1536 l 1,5,-1
 600 1536 l 1,6,-1
 600 832 l 1,7,-1
 424 832 l 1,4,-1
EndSplineSet
Validated: 1
EndChar

StartChar: section
Encoding: 105 167 105
Width: 1024
GlyphClass: 2
Flags: W
LayerCount: 2
Fore
SplineSet
970 475 m 0,0,1
 970 381 970 381 935.5 313.5 c 128,-1,2
 901 246 901 246 836 203 c 1,3,4
 891 153 891 153 919 84.5 c 128,-1,5
 947 16 947 16 947 -84 c 0,6,7
 947 -174 947 -174 917 -243.5 c 128,-1,8
 887 -313 887 -313 831 -360.5 c 128,-1,9
 775 -408 775 -408 696.5 -432.5 c 128,-1,10
 618 -457 618 -457 521 -457 c 0,11,12
 437 -457 437 -457 356.5 -436.5 c 128,-1,13
 276 -416 276 -416 212.5 -367.5 c 128,-1,14
 149 -319 149 -319 110 -238.5 c 128,-1,15
 71 -158 71 -158 71 -38 c 1,16,-1
 302 -37 l 1,17,18
 302 -96 302 -96 321 -133.5 c 128,-1,19
 340 -171 340 -171 371.5 -193 c 128,-1,20
 403 -215 403 -215 442 -223.5 c 128,-1,21
 481 -232 481 -232 521 -232 c 0,22,23
 616 -232 616 -232 666.5 -192 c 128,-1,24
 717 -152 717 -152 717 -85 c 0,25,26
 717 -52 717 -52 705.5 -26 c 128,-1,27
 694 0 694 0 665.5 22.5 c 128,-1,28
 637 45 637 45 589 66.5 c 128,-1,29
 541 88 541 88 469 113 c 0,30,31
 376 143 376 143 303 178.5 c 128,-1,32
 230 214 230 214 179 263 c 128,-1,33
 128 312 128 312 101 378 c 128,-1,34
 74 444 74 444 74 535 c 0,35,36
 74 627 74 627 109 695.5 c 128,-1,37
 144 764 144 764 209 808 c 1,38,39
 154 859 154 859 125.5 927.5 c 128,-1,40
 97 996 97 996 97 1096 c 0,41,42
 97 1182 97 1182 127.5 1252.5 c 128,-1,43
 158 1323 158 1323 214 1372.5 c 128,-1,44
 270 1422 270 1422 349 1449 c 128,-1,45
 428 1476 428 1476 525 1476 c 0,46,47
 625 1476 625 1476 704.5 1448 c 128,-1,48
 784 1420 784 1420 839.5 1365.5 c 128,-1,49
 895 1311 895 1311 925 1231 c 128,-1,50
 955 1151 955 1151 955 1048 c 1,51,-1
 723 1048 l 1,52,53
 723 1091 723 1091 710.5 1128 c 128,-1,54
 698 1165 698 1165 673 1192.5 c 128,-1,55
 648 1220 648 1220 611 1236 c 128,-1,56
 574 1252 574 1252 525 1252 c 0,57,58
 474 1252 474 1252 436.5 1239.5 c 128,-1,59
 399 1227 399 1227 375 1206 c 128,-1,60
 351 1185 351 1185 340 1157 c 128,-1,61
 329 1129 329 1129 329 1098 c 0,62,63
 329 1060 329 1060 339 1033 c 128,-1,64
 349 1006 349 1006 376.5 983.5 c 128,-1,65
 404 961 404 961 452 941 c 128,-1,66
 500 921 500 921 574 897 c 0,67,68
 669 867 669 867 743 831.5 c 128,-1,69
 817 796 817 796 867.5 747 c 128,-1,70
 918 698 918 698 944 632 c 128,-1,71
 970 566 970 566 970 475 c 0,0,1
493 663 m 0,72,73
 428 684 428 684 374 708 c 1,74,75
 337 687 337 687 320.5 648.5 c 128,-1,76
 304 610 304 610 304 561 c 0,77,78
 304 521 304 521 314.5 492.5 c 128,-1,79
 325 464 325 464 352 440 c 128,-1,80
 379 416 379 416 427 394.5 c 128,-1,81
 475 373 475 373 550 346 c 0,82,83
 582 335 582 335 612 324.5 c 128,-1,84
 642 314 642 314 670 302 c 1,85,86
 706 325 706 325 725 363 c 128,-1,87
 744 401 744 401 744 449 c 0,88,89
 744 485 744 485 732 513 c 128,-1,90
 720 541 720 541 691 566 c 128,-1,91
 662 591 662 591 613.5 614 c 128,-1,92
 565 637 565 637 493 663 c 0,72,73
EndSplineSet
Validated: 1
EndChar

StartChar: dieresis
Encoding: 106 168 106
Width: 1024
GlyphClass: 2
Flags: W
LayerCount: 2
Fore
SplineSet
584 1376 m 128,-1,1
 584 1428 584 1428 622 1466 c 128,-1,2
 660 1504 660 1504 712 1504 c 128,-1,3
 764 1504 764 1504 802 1466 c 128,-1,4
 840 1428 840 1428 840 1376 c 128,-1,5
 840 1324 840 1324 802 1286 c 128,-1,6
 764 1248 764 1248 712 1248 c 128,-1,7
 660 1248 660 1248 622 1286 c 128,-1,0
 584 1324 584 1324 584 1376 c 128,-1,1
184 1376 m 128,-1,9
 184 1428 184 1428 222 1466 c 128,-1,10
 260 1504 260 1504 312 1504 c 128,-1,11
 364 1504 364 1504 402 1466 c 128,-1,12
 440 1428 440 1428 440 1376 c 128,-1,13
 440 1324 440 1324 402 1286 c 128,-1,14
 364 1248 364 1248 312 1248 c 128,-1,15
 260 1248 260 1248 222 1286 c 128,-1,8
 184 1324 184 1324 184 1376 c 128,-1,9
EndSplineSet
Validated: 1
EndChar

StartChar: copyright
Encoding: 107 169 107
Width: 1024
GlyphClass: 2
Flags: W
LayerCount: 2
Fore
SplineSet
764 550 m 1,0,1
 676 416 676 416 520 416 c 0,2,3
 400 416 400 416 316 500 c 128,-1,4
 232 584 232 584 232 704 c 128,-1,5
 232 824 232 824 316 908 c 128,-1,6
 400 992 400 992 520 992 c 128,-1,7
 640 992 640 992 724 908 c 0,8,9
 765 867 765 867 786 817 c 1,10,-1
 698 779 l 1,11,12
 684 812 684 812 656 840 c 0,13,14
 600 896 600 896 520 896 c 128,-1,15
 440 896 440 896 384 840 c 128,-1,16
 328 784 328 784 328 704 c 128,-1,17
 328 624 328 624 384 568 c 128,-1,18
 440 512 440 512 533 512 c 0,19,20
 625 512 625 512 683 601 c 1,21,-1
 764 550 l 1,0,1
0 704 m 128,-1,23
 0 843 0 843 68 961.5 c 128,-1,24
 136 1080 136 1080 254.5 1148 c 128,-1,25
 373 1216 373 1216 512 1216 c 128,-1,26
 651 1216 651 1216 769.5 1148 c 128,-1,27
 888 1080 888 1080 956 961.5 c 128,-1,28
 1024 843 1024 843 1024 704 c 128,-1,29
 1024 565 1024 565 956 446.5 c 128,-1,30
 888 328 888 328 769.5 260 c 128,-1,31
 651 192 651 192 512 192 c 128,-1,32
 373 192 373 192 254.5 260 c 128,-1,33
 136 328 136 328 68 446.5 c 128,-1,22
 0 565 0 565 0 704 c 128,-1,23
116 704 m 128,-1,35
 116 540 116 540 232 424 c 128,-1,36
 348 308 348 308 512 308 c 128,-1,37
 676 308 676 308 792 424 c 128,-1,38
 908 540 908 540 908 704 c 128,-1,39
 908 868 908 868 792 984 c 128,-1,40
 676 1100 676 1100 512 1100 c 128,-1,41
 348 1100 348 1100 232 984 c 128,-1,34
 116 868 116 868 116 704 c 128,-1,35
EndSplineSet
Validated: 1
EndChar

StartChar: ordfeminine
Encoding: 108 170 108
Width: 1024
GlyphClass: 2
Flags: W
LayerCount: 2
Fore
SplineSet
662 705 m 1,0,1
 647 748 647 748 641 799 c 1,2,3
 627 778 627 778 606.5 758.5 c 128,-1,4
 586 739 586 739 558.5 724 c 128,-1,5
 531 709 531 709 496 700 c 128,-1,6
 461 691 461 691 419 691 c 0,7,8
 359 691 359 691 312.5 707 c 128,-1,9
 266 723 266 723 234.5 753 c 128,-1,10
 203 783 203 783 186.5 825 c 128,-1,11
 170 867 170 867 170 919 c 0,12,13
 170 1030 170 1030 253.5 1090 c 128,-1,14
 337 1150 337 1150 501 1150 c 2,15,-1
 638 1150 l 1,16,-1
 638 1201 l 2,17,18
 638 1263 638 1263 609.5 1295.5 c 128,-1,19
 581 1328 581 1328 522 1328 c 0,20,21
 457 1328 457 1328 420.5 1302.5 c 128,-1,22
 384 1277 384 1277 384 1229 c 1,23,-1
 211 1243 l 1,24,25
 211 1294 211 1294 233 1336.5 c 128,-1,26
 255 1379 255 1379 296 1410 c 128,-1,27
 337 1441 337 1441 394 1458.5 c 128,-1,28
 451 1476 451 1476 522 1476 c 0,29,30
 587 1476 587 1476 640.5 1458.5 c 128,-1,31
 694 1441 694 1441 732.5 1406.5 c 128,-1,32
 771 1372 771 1372 792 1320.5 c 128,-1,33
 813 1269 813 1269 813 1200 c 2,34,-1
 813 886 l 2,35,36
 813 837 813 837 819 793 c 128,-1,37
 825 749 825 749 839 705 c 1,38,-1
 662 705 l 1,0,1
462 835 m 0,39,40
 488 835 488 835 516 843.5 c 128,-1,41
 544 852 544 852 568.5 865.5 c 128,-1,42
 593 879 593 879 611.5 896 c 128,-1,43
 630 913 630 913 638 930 c 1,44,-1
 638 1033 l 1,45,-1
 502 1033 l 2,46,47
 463 1033 463 1033 434 1024 c 128,-1,48
 405 1015 405 1015 385 1000 c 128,-1,49
 365 985 365 985 355 965 c 128,-1,50
 345 945 345 945 345 923 c 0,51,52
 345 881 345 881 373.5 858 c 128,-1,53
 402 835 402 835 462 835 c 0,39,40
EndSplineSet
Validated: 1
EndChar

StartChar: guillemotleft
Encoding: 109 171 109
Width: 1024
GlyphClass: 2
Flags: W
LayerCount: 2
Fore
SplineSet
653 492 m 1,0,-1
 854 93 l 1,1,-1
 704 93 l 1,2,-1
 470 483 l 1,3,-1
 470 502 l 1,4,-1
 704 892 l 1,5,-1
 854 892 l 1,6,-1
 653 492 l 1,0,-1
339 492 m 1,7,-1
 540 93 l 1,8,-1
 389 93 l 1,9,-1
 155 483 l 1,10,-1
 155 502 l 1,11,-1
 389 892 l 1,12,-1
 540 892 l 1,13,-1
 339 492 l 1,7,-1
EndSplineSet
Validated: 1
EndChar

StartChar: logicalnot
Encoding: 110 172 110
Width: 1024
GlyphClass: 2
Flags: W
LayerCount: 2
Fore
SplineSet
856 448 m 1,0,-1
 696 448 l 1,1,-1
 696 688 l 1,2,-1
 96 688 l 1,3,-1
 96 848 l 1,4,-1
 856 848 l 1,5,-1
 856 448 l 1,0,-1
EndSplineSet
Validated: 1
EndChar

StartChar: uni00AD
Encoding: 111 173 111
Width: 1024
GlyphClass: 2
Flags: W
LayerCount: 2
Fore
SplineSet
792 552 m 1,0,-1
 232 552 l 1,1,-1
 232 728 l 1,2,-1
 792 728 l 1,3,-1
 792 552 l 1,0,-1
EndSplineSet
Validated: 1
EndChar

StartChar: registered
Encoding: 112 174 112
Width: 1024
GlyphClass: 2
Flags: W
LayerCount: 2
Fore
SplineSet
0 704 m 128,-1,1
 0 843 0 843 68 961.5 c 128,-1,2
 136 1080 136 1080 254.5 1148 c 128,-1,3
 373 1216 373 1216 512 1216 c 128,-1,4
 651 1216 651 1216 769.5 1148 c 128,-1,5
 888 1080 888 1080 956 961.5 c 128,-1,6
 1024 843 1024 843 1024 704 c 128,-1,7
 1024 565 1024 565 956 446.5 c 128,-1,8
 888 328 888 328 769.5 260 c 128,-1,9
 651 192 651 192 512 192 c 128,-1,10
 373 192 373 192 254.5 260 c 128,-1,11
 136 328 136 328 68 446.5 c 128,-1,0
 0 565 0 565 0 704 c 128,-1,1
104 704 m 128,-1,13
 104 536 104 536 224 416 c 128,-1,14
 344 296 344 296 512 296 c 128,-1,15
 680 296 680 296 800 416 c 128,-1,16
 920 536 920 536 920 704 c 128,-1,17
 920 872 920 872 800 992 c 128,-1,18
 680 1112 680 1112 512 1112 c 128,-1,19
 344 1112 344 1112 224 992 c 128,-1,12
 104 872 104 872 104 704 c 128,-1,13
405 644 m 1,20,-1
 405 391 l 1,21,-1
 298 391 l 1,22,-1
 298 1026 l 1,23,-1
 509 1026 l 2,24,25
 564 1026 564 1026 608 1014 c 128,-1,26
 652 1002 652 1002 683.5 978 c 128,-1,27
 715 954 715 954 732 918 c 128,-1,28
 749 882 749 882 749 834 c 0,29,30
 749 778 749 778 714 739 c 128,-1,31
 679 700 679 700 613 678 c 1,32,-1
 760 391 l 1,33,-1
 650 391 l 1,34,-1
 530 644 l 1,35,-1
 405 644 l 1,20,-1
405 741 m 1,36,-1
 524 741 l 2,37,38
 572 742 572 742 607 765 c 128,-1,39
 642 788 642 788 642 830 c 0,40,41
 642 885 642 885 612 907 c 128,-1,42
 582 929 582 929 509 929 c 2,43,-1
 405 929 l 1,44,-1
 405 741 l 1,36,-1
EndSplineSet
Validated: 1
EndChar

StartChar: macron
Encoding: 113 175 113
Width: 1024
GlyphClass: 2
Flags: W
LayerCount: 2
Fore
SplineSet
809 1289 m 1,0,-1
 215 1289 l 1,1,-1
 215 1480 l 1,2,-1
 809 1480 l 1,3,-1
 809 1289 l 1,0,-1
EndSplineSet
Validated: 1
EndChar

StartChar: degree
Encoding: 114 176 114
Width: 1024
GlyphClass: 2
Flags: W
LayerCount: 2
Fore
SplineSet
256 1214 m 128,-1,1
 256 1320 256 1320 331 1395 c 128,-1,2
 406 1470 406 1470 512 1470 c 128,-1,3
 618 1470 618 1470 693 1395 c 128,-1,4
 768 1320 768 1320 768 1214 c 128,-1,5
 768 1108 768 1108 693 1033 c 128,-1,6
 618 958 618 958 512 958 c 128,-1,7
 406 958 406 958 331 1033 c 128,-1,0
 256 1108 256 1108 256 1214 c 128,-1,1
404 1216 m 128,-1,9
 404 1171 404 1171 435.5 1139.5 c 128,-1,10
 467 1108 467 1108 512 1108 c 128,-1,11
 557 1108 557 1108 588.5 1139.5 c 128,-1,12
 620 1171 620 1171 620 1216 c 128,-1,13
 620 1261 620 1261 588.5 1292.5 c 128,-1,14
 557 1324 557 1324 512 1324 c 128,-1,15
 467 1324 467 1324 435.5 1292.5 c 128,-1,8
 404 1261 404 1261 404 1216 c 128,-1,9
EndSplineSet
Validated: 1
EndChar

StartChar: plusminus
Encoding: 115 177 115
Width: 1024
GlyphClass: 2
Flags: W
LayerCount: 2
Fore
SplineSet
928 176 m 1,0,-1
 96 176 l 1,1,-1
 96 336 l 1,2,-1
 928 336 l 1,3,-1
 928 176 l 1,0,-1
928 752 m 1,4,-1
 592 752 l 1,5,-1
 592 416 l 1,6,-1
 432 416 l 1,7,-1
 432 752 l 1,8,-1
 96 752 l 1,9,-1
 96 912 l 1,10,-1
 432 912 l 1,11,-1
 432 1248 l 1,12,-1
 592 1248 l 1,13,-1
 592 912 l 1,14,-1
 928 912 l 1,15,-1
 928 752 l 1,4,-1
EndSplineSet
Validated: 1
EndChar

StartChar: uni00B2
Encoding: 116 178 116
Width: 1024
GlyphClass: 2
Flags: W
LayerCount: 2
Fore
SplineSet
831 667 m 1,0,-1
 213 667 l 1,1,-1
 213 801 l 1,2,-1
 500 1060 l 2,3,4
 557 1110 557 1110 581.5 1152.5 c 128,-1,5
 606 1195 606 1195 606 1219 c 0,6,7
 606 1258 606 1258 581.5 1282 c 128,-1,8
 557 1306 557 1306 509 1306 c 0,9,10
 452 1306 452 1306 424 1272.5 c 128,-1,11
 396 1239 396 1239 396 1194 c 1,12,-1
 195 1194 l 1,13,14
 195 1250 195 1250 216 1299.5 c 128,-1,15
 237 1349 237 1349 277 1386.5 c 128,-1,16
 317 1424 317 1424 373 1445.5 c 128,-1,17
 429 1467 429 1467 500 1467 c 0,18,19
 647 1467 647 1467 727.5 1402.5 c 128,-1,20
 808 1338 808 1338 808 1220 c 0,21,22
 808 1176 808 1176 794.5 1140 c 128,-1,23
 781 1104 781 1104 754 1069 c 128,-1,24
 727 1034 727 1034 687 998 c 128,-1,25
 647 962 647 962 593 919 c 2,26,-1
 476 826 l 1,27,-1
 831 826 l 1,28,-1
 831 667 l 1,0,-1
EndSplineSet
Validated: 1
EndChar

StartChar: uni00B3
Encoding: 117 179 117
Width: 1024
GlyphClass: 2
Flags: W
LayerCount: 2
Fore
SplineSet
412 1135 m 1,0,-1
 500 1135 l 2,1,2
 560 1135 560 1135 588 1159.5 c 128,-1,3
 616 1184 616 1184 616 1225 c 0,4,5
 616 1240 616 1240 610 1254 c 128,-1,6
 604 1268 604 1268 591.5 1279.5 c 128,-1,7
 579 1291 579 1291 558.5 1298 c 128,-1,8
 538 1305 538 1305 508 1305 c 0,9,10
 464 1305 464 1305 434 1288 c 128,-1,11
 404 1271 404 1271 404 1241 c 1,12,-1
 203 1241 l 1,13,14
 203 1296 203 1296 227.5 1338 c 128,-1,15
 252 1380 252 1380 293 1408.5 c 128,-1,16
 334 1437 334 1437 388 1451.5 c 128,-1,17
 442 1466 442 1466 502 1466 c 0,18,19
 572 1466 572 1466 630 1451.5 c 128,-1,20
 688 1437 688 1437 729 1408.5 c 128,-1,21
 770 1380 770 1380 793 1337.5 c 128,-1,22
 816 1295 816 1295 816 1240 c 0,23,24
 816 1179 816 1179 780 1136 c 128,-1,25
 744 1093 744 1093 681 1070 c 1,26,27
 752 1051 752 1051 791.5 1007.5 c 128,-1,28
 831 964 831 964 831 887 c 0,29,30
 831 831 831 831 806 788 c 128,-1,31
 781 745 781 745 736.5 715.5 c 128,-1,32
 692 686 692 686 632 670.5 c 128,-1,33
 572 655 572 655 502 655 c 0,34,35
 446 655 446 655 390.5 668 c 128,-1,36
 335 681 335 681 290.5 710.5 c 128,-1,37
 246 740 246 740 218 786.5 c 128,-1,38
 190 833 190 833 190 900 c 1,39,-1
 392 900 l 1,40,41
 392 866 392 866 424.5 840.5 c 128,-1,42
 457 815 457 815 514 815 c 0,43,44
 575 815 575 815 602 842 c 128,-1,45
 629 869 629 869 629 905 c 0,46,47
 629 958 629 958 595 979 c 128,-1,48
 561 1000 561 1000 500 1000 c 2,49,-1
 412 1000 l 1,50,-1
 412 1135 l 1,0,-1
EndSplineSet
Validated: 1
EndChar

StartChar: acute
Encoding: 118 180 118
Width: 1024
GlyphClass: 2
Flags: W
LayerCount: 2
Fore
SplineSet
472 1478 m 1,0,-1
 726 1478 l 1,1,-1
 496 1199 l 1,2,-1
 317 1199 l 1,3,-1
 472 1478 l 1,0,-1
EndSplineSet
Validated: 1
EndChar

StartChar: mu
Encoding: 119 181 119
Width: 1024
GlyphClass: 2
Flags: W
LayerCount: 2
Fore
SplineSet
374 1082 m 1,0,-1
 374 462 l 2,1,2
 374 382 374 382 385 332 c 128,-1,3
 396 282 396 282 416.5 253.5 c 128,-1,4
 437 225 437 225 465 215 c 128,-1,5
 493 205 493 205 527 205 c 0,6,7
 594 205 594 205 636 233.5 c 128,-1,8
 678 262 678 262 701 313 c 1,9,-1
 701 1082 l 1,10,-1
 932 1082 l 1,11,-1
 932 0 l 1,12,-1
 717 0 l 1,13,-1
 712 72 l 1,14,15
 676 27 676 27 629.5 3 c 128,-1,16
 583 -21 583 -21 523 -21 c 0,17,18
 434 -21 434 -21 374 27 c 1,19,-1
 374 -416 l 1,20,-1
 143 -416 l 1,21,-1
 143 1082 l 1,22,-1
 374 1082 l 1,0,-1
EndSplineSet
Validated: 1
EndChar

StartChar: paragraph
Encoding: 120 182 120
Width: 1024
GlyphClass: 2
Flags: W
LayerCount: 2
Fore
SplineSet
480 1472 m 2,0,-1
 928 1472 l 1,1,-1
 928 -64 l 1,2,-1
 768 -64 l 1,3,-1
 768 1360 l 1,4,-1
 640 1360 l 1,5,-1
 640 -64 l 1,6,-1
 480 -64 l 1,7,-1
 480 800 l 1,8,9
 340 800 340 800 242 898 c 128,-1,10
 144 996 144 996 144 1136 c 128,-1,11
 144 1276 144 1276 242 1374 c 128,-1,12
 340 1472 340 1472 480 1472 c 2,0,-1
EndSplineSet
Validated: 1
EndChar

StartChar: periodcentered
Encoding: 121 183 121
Width: 1024
GlyphClass: 2
Flags: W
LayerCount: 2
Fore
SplineSet
368 704 m 128,-1,1
 368 764 368 764 410 806 c 128,-1,2
 452 848 452 848 512 848 c 128,-1,3
 572 848 572 848 614 806 c 128,-1,4
 656 764 656 764 656 704 c 128,-1,5
 656 644 656 644 614 602 c 128,-1,6
 572 560 572 560 512 560 c 128,-1,7
 452 560 452 560 410 602 c 128,-1,0
 368 644 368 644 368 704 c 128,-1,1
EndSplineSet
Validated: 1
EndChar

StartChar: cedilla
Encoding: 122 184 122
Width: 1024
GlyphClass: 2
Flags: W
LayerCount: 2
Fore
SplineSet
561 5 m 1,0,-1
 552 -51 l 1,1,2
 575 -56 575 -56 597.5 -67.5 c 128,-1,3
 620 -79 620 -79 637.5 -99.5 c 128,-1,4
 655 -120 655 -120 666 -150.5 c 128,-1,5
 677 -181 677 -181 677 -224 c 0,6,7
 677 -277 677 -277 658.5 -320 c 128,-1,8
 640 -363 640 -363 604 -393.5 c 128,-1,9
 568 -424 568 -424 515 -441 c 128,-1,10
 462 -458 462 -458 391 -458 c 1,11,-1
 385 -298 l 1,12,13
 427 -298 427 -298 455.5 -279 c 128,-1,14
 484 -260 484 -260 484 -215 c 0,15,16
 484 -173 484 -173 455.5 -157 c 128,-1,17
 427 -141 427 -141 364 -136 c 1,18,-1
 389 5 l 1,19,-1
 561 5 l 1,0,-1
EndSplineSet
Validated: 1
EndChar

StartChar: uni00B9
Encoding: 123 185 123
Width: 1024
GlyphClass: 2
Flags: W
LayerCount: 2
Fore
SplineSet
681 659 m 1,0,-1
 482 659 l 1,1,-1
 482 1212 l 1,2,-1
 291 1169 l 1,3,-1
 291 1325 l 1,4,-1
 662 1445 l 1,5,-1
 681 1445 l 1,6,-1
 681 659 l 1,0,-1
EndSplineSet
Validated: 1
EndChar

StartChar: ordmasculine
Encoding: 124 186 124
Width: 1024
GlyphClass: 2
Flags: W
LayerCount: 2
Fore
SplineSet
163 1141 m 2,0,1
 163 1214 163 1214 187 1275.5 c 128,-1,2
 211 1337 211 1337 256 1381.5 c 128,-1,3
 301 1426 301 1426 365 1451 c 128,-1,4
 429 1476 429 1476 509 1476 c 0,5,6
 590 1476 590 1476 654 1451 c 128,-1,7
 718 1426 718 1426 763 1381.5 c 128,-1,8
 808 1337 808 1337 832 1275.5 c 128,-1,9
 856 1214 856 1214 856 1141 c 2,10,-1
 856 1024 l 2,11,12
 856 951 856 951 832 889.5 c 128,-1,13
 808 828 808 828 763.5 784 c 128,-1,14
 719 740 719 740 655 715 c 128,-1,15
 591 690 591 690 511 690 c 256,16,17
 431 690 431 690 366.5 715 c 128,-1,18
 302 740 302 740 257 784 c 128,-1,19
 212 828 212 828 187.5 889.5 c 128,-1,20
 163 951 163 951 163 1024 c 2,21,-1
 163 1141 l 2,0,1
338 1024 m 2,22,23
 338 983 338 983 348.5 949 c 128,-1,24
 359 915 359 915 380.5 889.5 c 128,-1,25
 402 864 402 864 434.5 850 c 128,-1,26
 467 836 467 836 511 836 c 0,27,28
 554 836 554 836 586 850 c 128,-1,29
 618 864 618 864 639 889.5 c 128,-1,30
 660 915 660 915 670.5 949 c 128,-1,31
 681 983 681 983 681 1024 c 2,32,-1
 681 1141 l 2,33,34
 681 1181 681 1181 670.5 1215 c 128,-1,35
 660 1249 660 1249 638.5 1274 c 128,-1,36
 617 1299 617 1299 584.5 1313.5 c 128,-1,37
 552 1328 552 1328 509 1328 c 256,38,39
 466 1328 466 1328 434 1313.5 c 128,-1,40
 402 1299 402 1299 380.5 1274 c 128,-1,41
 359 1249 359 1249 348.5 1215 c 128,-1,42
 338 1181 338 1181 338 1141 c 2,43,-1
 338 1024 l 2,22,23
EndSplineSet
Validated: 1
EndChar

StartChar: guillemotright
Encoding: 125 187 125
Width: 1024
GlyphClass: 2
Flags: W
LayerCount: 2
Fore
SplineSet
652 926 m 1,0,-1
 887 536 l 1,1,-1
 887 517 l 1,2,-1
 652 127 l 1,3,-1
 501 127 l 1,4,-1
 701 526 l 1,5,-1
 501 926 l 1,6,-1
 652 926 l 1,0,-1
339 926 m 1,7,-1
 574 536 l 1,8,-1
 574 517 l 1,9,-1
 339 127 l 1,10,-1
 188 127 l 1,11,-1
 388 526 l 1,12,-1
 188 926 l 1,13,-1
 339 926 l 1,7,-1
EndSplineSet
Validated: 1
EndChar

StartChar: multiply
Encoding: 130 215 130
Width: 1024
GlyphClass: 2
Flags: W
LayerCount: 2
Fore
SplineSet
218 1111 m 1,0,-1
 512 817 l 1,1,-1
 806 1111 l 1,2,-1
 919 998 l 1,3,-1
 625 704 l 1,4,-1
 919 410 l 1,5,-1
 806 297 l 1,6,-1
 512 591 l 1,7,-1
 218 297 l 1,8,-1
 105 410 l 1,9,-1
 399 704 l 1,10,-1
 105 998 l 1,11,-1
 218 1111 l 1,0,-1
EndSplineSet
Validated: 1
EndChar

StartChar: divide
Encoding: 131 247 131
Width: 1024
GlyphClass: 2
Flags: W
LayerCount: 2
Fore
SplineSet
400 320 m 128,-1,1
 400 366 400 366 433 399 c 128,-1,2
 466 432 466 432 512 432 c 128,-1,3
 558 432 558 432 591 399 c 128,-1,4
 624 366 624 366 624 320 c 128,-1,5
 624 274 624 274 591 241 c 128,-1,6
 558 208 558 208 512 208 c 128,-1,7
 466 208 466 208 433 241 c 128,-1,0
 400 274 400 274 400 320 c 128,-1,1
400 1088 m 128,-1,9
 400 1134 400 1134 433 1167 c 128,-1,10
 466 1200 466 1200 512 1200 c 128,-1,11
 558 1200 558 1200 591 1167 c 128,-1,12
 624 1134 624 1134 624 1088 c 128,-1,13
 624 1042 624 1042 591 1009 c 128,-1,14
 558 976 558 976 512 976 c 128,-1,15
 466 976 466 976 433 1009 c 128,-1,8
 400 1042 400 1042 400 1088 c 128,-1,9
960 624 m 1,16,-1
 64 624 l 1,17,-1
 64 784 l 1,18,-1
 960 784 l 1,19,-1
 960 624 l 1,16,-1
EndSplineSet
Validated: 1
EndChar

StartChar: ring
Encoding: 132 730 132
Width: 1024
GlyphClass: 2
Flags: W
LayerCount: 2
Fore
SplineSet
416 1312 m 128,-1,1
 416 1272 416 1272 444 1244 c 128,-1,2
 472 1216 472 1216 512 1216 c 128,-1,3
 552 1216 552 1216 580 1244 c 128,-1,4
 608 1272 608 1272 608 1312 c 128,-1,5
 608 1352 608 1352 580 1380 c 128,-1,6
 552 1408 552 1408 512 1408 c 128,-1,7
 472 1408 472 1408 444 1380 c 128,-1,0
 416 1352 416 1352 416 1312 c 128,-1,1
324 1312 m 128,-1,9
 324 1390 324 1390 379 1445 c 128,-1,10
 434 1500 434 1500 512 1500 c 128,-1,11
 590 1500 590 1500 645 1445 c 128,-1,12
 700 1390 700 1390 700 1312 c 128,-1,13
 700 1234 700 1234 645 1179 c 128,-1,14
 590 1124 590 1124 512 1124 c 128,-1,15
 434 1124 434 1124 379 1179 c 128,-1,8
 324 1234 324 1234 324 1312 c 128,-1,9
EndSplineSet
Validated: 1
EndChar

StartChar: Gamma
Encoding: 135 915 135
Width: 1024
GlyphClass: 2
Flags: W
LayerCount: 2
Fore
SplineSet
899 1228 m 1,0,-1
 350 1228 l 1,1,-1
 350 0 l 1,2,-1
 117 0 l 1,3,-1
 117 1456 l 1,4,-1
 899 1456 l 1,5,-1
 899 1228 l 1,0,-1
EndSplineSet
Validated: 1
EndChar

StartChar: uni0394
Encoding: 136 916 136
Width: 1024
GlyphClass: 2
Flags: W
LayerCount: 2
Fore
SplineSet
434 1456 m 1,0,-1
 670 1456 l 1,1,-1
 1062 0 l 1,2,-1
 29 0 l 1,3,-1
 434 1456 l 1,0,-1
331 226 m 1,4,-1
 762 226 l 1,5,-1
 550 1079 l 1,6,-1
 331 226 l 1,4,-1
EndSplineSet
Validated: 1
EndChar

StartChar: Theta
Encoding: 140 920 140
Width: 1024
GlyphClass: 2
Flags: W
LayerCount: 2
Fore
SplineSet
679 614 m 1,0,-1
 357 614 l 1,1,-1
 357 837 l 1,2,-1
 679 837 l 1,3,-1
 679 614 l 1,0,-1
961 621 m 2,4,5
 961 481 961 481 930.5 363 c 128,-1,6
 900 245 900 245 842 160 c 128,-1,7
 784 75 784 75 700.5 27.5 c 128,-1,8
 617 -20 617 -20 512 -20 c 256,9,10
 407 -20 407 -20 326 27.5 c 128,-1,11
 245 75 245 75 189.5 160.5 c 128,-1,12
 134 246 134 246 105 363.5 c 128,-1,13
 76 481 76 481 76 621 c 2,14,-1
 76 833 l 2,15,16
 76 973 76 973 105 1091 c 128,-1,17
 134 1209 134 1209 189.5 1294.5 c 128,-1,18
 245 1380 245 1380 326 1428 c 128,-1,19
 407 1476 407 1476 511 1476 c 0,20,21
 616 1476 616 1476 700 1428 c 128,-1,22
 784 1380 784 1380 842 1294.5 c 128,-1,23
 900 1209 900 1209 930.5 1091 c 128,-1,24
 961 973 961 973 961 833 c 2,25,-1
 961 621 l 2,4,5
725 835 m 2,26,27
 725 924 725 924 713 999 c 128,-1,28
 701 1074 701 1074 675 1128 c 128,-1,29
 649 1182 649 1182 609 1212.5 c 128,-1,30
 569 1243 569 1243 511 1243 c 0,31,32
 455 1243 455 1243 417 1212.5 c 128,-1,33
 379 1182 379 1182 355.5 1128 c 128,-1,34
 332 1074 332 1074 322 999 c 128,-1,35
 312 924 312 924 312 835 c 2,36,-1
 312 621 l 2,37,38
 312 533 312 533 322 458 c 128,-1,39
 332 383 332 383 355.5 328 c 128,-1,40
 379 273 379 273 417 242 c 128,-1,41
 455 211 455 211 512 211 c 0,42,43
 568 211 568 211 608.5 242 c 128,-1,44
 649 273 649 273 674.5 327.5 c 128,-1,45
 700 382 700 382 712.5 457 c 128,-1,46
 725 532 725 532 725 621 c 2,47,-1
 725 835 l 2,26,27
EndSplineSet
Validated: 1
EndChar

StartChar: Lambda
Encoding: 143 923 143
Width: 1024
GlyphClass: 2
Flags: W
LayerCount: 2
Fore
SplineSet
508 1079 m 1,0,-1
 262 0 l 1,1,-1
 19 0 l 1,2,-1
 391 1456 l 1,3,-1
 627 1456 l 1,4,-1
 999 0 l 1,5,-1
 755 0 l 1,6,-1
 508 1079 l 1,0,-1
EndSplineSet
Validated: 1
EndChar

StartChar: Xi
Encoding: 146 926 146
Width: 1024
GlyphClass: 2
Flags: W
LayerCount: 2
Fore
SplineSet
100 226 m 1,0,-1
 910 226 l 1,1,-1
 910 0 l 1,2,-1
 100 0 l 1,3,-1
 100 226 l 1,0,-1
190 849 m 1,4,-1
 818 849 l 1,5,-1
 818 630 l 1,6,-1
 190 630 l 1,7,-1
 190 849 l 1,4,-1
116 1456 m 1,8,-1
 880 1456 l 1,9,-1
 880 1228 l 1,10,-1
 116 1228 l 1,11,-1
 116 1456 l 1,8,-1
EndSplineSet
Validated: 1
EndChar

StartChar: Pi
Encoding: 148 928 148
Width: 1024
GlyphClass: 2
Flags: W
LayerCount: 2
Fore
SplineSet
909 0 m 1,0,-1
 676 0 l 1,1,-1
 676 1228 l 1,2,-1
 334 1228 l 1,3,-1
 334 0 l 1,4,-1
 100 0 l 1,5,-1
 100 1456 l 1,6,-1
 909 1456 l 1,7,-1
 909 0 l 1,0,-1
EndSplineSet
Validated: 1
EndChar

StartChar: Sigma
Encoding: 150 931 150
Width: 1024
GlyphClass: 2
Flags: W
LayerCount: 2
Fore
SplineSet
711 724 m 1,0,-1
 405 225 l 1,1,-1
 950 225 l 1,2,-1
 950 1 l 1,3,-1
 92 1 l 1,4,-1
 92 152 l 1,5,-1
 464 733 l 1,6,-1
 92 1304 l 1,7,-1
 92 1456 l 1,8,-1
 926 1456 l 1,9,-1
 926 1228 l 1,10,-1
 409 1228 l 1,11,-1
 711 741 l 1,12,-1
 711 724 l 1,0,-1
EndSplineSet
Validated: 1
EndChar

StartChar: Phi
Encoding: 153 934 153
Width: 1024
GlyphClass: 2
Flags: W
LayerCount: 2
Fore
SplineSet
667 1260 m 1,0,1
 752 1249 752 1249 822 1206 c 128,-1,2
 892 1163 892 1163 942 1093 c 128,-1,3
 992 1023 992 1023 1020 928.5 c 128,-1,4
 1048 834 1048 834 1048 720 c 0,5,6
 1048 608 1048 608 1020 515.5 c 128,-1,7
 992 423 992 423 942 354 c 128,-1,8
 892 285 892 285 822 242.5 c 128,-1,9
 752 200 752 200 667 189 c 1,10,-1
 667 0 l 1,11,-1
 435 0 l 1,12,-1
 435 189 l 1,13,14
 350 200 350 200 280 242 c 128,-1,15
 210 284 210 284 160 352.5 c 128,-1,16
 110 421 110 421 82 513.5 c 128,-1,17
 54 606 54 606 54 718 c 0,18,19
 54 832 54 832 82 927 c 128,-1,20
 110 1022 110 1022 160 1092.5 c 128,-1,21
 210 1163 210 1163 280 1206 c 128,-1,22
 350 1249 350 1249 435 1260 c 1,23,-1
 435 1456 l 1,24,-1
 667 1456 l 1,25,-1
 667 1260 l 1,0,1
283 718 m 0,26,27
 283 597 283 597 323.5 525.5 c 128,-1,28
 364 454 364 454 435 434 c 1,29,-1
 435 1015 l 1,30,31
 364 994 364 994 323.5 919 c 128,-1,32
 283 844 283 844 283 718 c 0,26,27
817 720 m 0,33,34
 817 845 817 845 777 919.5 c 128,-1,35
 737 994 737 994 667 1015 c 1,36,-1
 667 435 l 1,37,38
 737 455 737 455 777 527 c 128,-1,39
 817 599 817 599 817 720 c 0,33,34
EndSplineSet
Validated: 1
EndChar

StartChar: Psi
Encoding: 155 936 155
Width: 1024
GlyphClass: 2
Flags: W
LayerCount: 2
Fore
SplineSet
670 575 m 1,0,1
 733 597 733 597 765.5 671.5 c 128,-1,2
 798 746 798 746 798 890 c 2,3,-1
 798 1456 l 1,4,-1
 1032 1456 l 1,5,-1
 1032 890 l 2,6,7
 1032 764 1032 764 1006 668 c 128,-1,8
 980 572 980 572 933 504.5 c 128,-1,9
 886 437 886 437 819 397 c 128,-1,10
 752 357 752 357 670 345 c 1,11,-1
 670 0 l 1,12,-1
 437 0 l 1,13,-1
 437 344 l 1,14,15
 351 354 351 354 281 392.5 c 128,-1,16
 211 431 211 431 161 499 c 128,-1,17
 111 567 111 567 84 664.5 c 128,-1,18
 57 762 57 762 57 890 c 2,19,-1
 57 1456 l 1,20,-1
 291 1456 l 1,21,-1
 291 890 l 2,22,23
 291 746 291 746 329.5 671.5 c 128,-1,24
 368 597 368 597 437 575 c 1,25,-1
 437 1456 l 1,26,-1
 670 1456 l 1,27,-1
 670 575 l 1,0,1
EndSplineSet
Validated: 1
EndChar

StartChar: uni03A9
Encoding: 156 937 156
Width: 1024
GlyphClass: 2
Flags: W
LayerCount: 2
Fore
SplineSet
562 272 m 1,0,1
 593 288 593 288 618.5 327 c 128,-1,2
 644 366 644 366 662.5 431 c 128,-1,3
 681 496 681 496 691 589 c 128,-1,4
 701 682 701 682 701 805 c 2,5,-1
 701 858 l 2,6,7
 701 1052 701 1052 651.5 1149 c 128,-1,8
 602 1246 602 1246 514 1246 c 0,9,10
 428 1246 428 1246 377.5 1148.5 c 128,-1,11
 327 1051 327 1051 327 858 c 2,12,-1
 327 805 l 2,13,14
 327 681 327 681 337.5 588 c 128,-1,15
 348 495 348 495 367 430 c 128,-1,16
 386 365 386 365 412.5 326.5 c 128,-1,17
 439 288 439 288 472 272 c 1,18,-1
 472 0 l 1,19,-1
 83 0 l 1,20,-1
 83 228 l 1,21,-1
 305 228 l 1,22,23
 255 271 255 271 212.5 332 c 128,-1,24
 170 393 170 393 138.5 467.5 c 128,-1,25
 107 542 107 542 89 627.5 c 128,-1,26
 71 713 71 713 71 805 c 2,27,-1
 71 856 l 2,28,29
 71 992 71 992 103.5 1106 c 128,-1,30
 136 1220 136 1220 194 1302.5 c 128,-1,31
 252 1385 252 1385 333.5 1430.5 c 128,-1,32
 415 1476 415 1476 514 1476 c 256,33,34
 613 1476 613 1476 694.5 1430.5 c 128,-1,35
 776 1385 776 1385 834.5 1302.5 c 128,-1,36
 893 1220 893 1220 925.5 1106 c 128,-1,37
 958 992 958 992 958 856 c 2,38,-1
 958 805 l 2,39,40
 958 713 958 713 940 627 c 128,-1,41
 922 541 922 541 891 467 c 128,-1,42
 860 393 860 393 817 332 c 128,-1,43
 774 271 774 271 725 228 c 1,44,-1
 952 228 l 1,45,-1
 952 0 l 1,46,-1
 562 0 l 1,47,-1
 562 272 l 1,0,1
EndSplineSet
Validated: 1
EndChar

StartChar: alpha
Encoding: 157 945 157
Width: 1024
GlyphClass: 2
Flags: W
LayerCount: 2
Fore
SplineSet
853 1082 m 1,0,-1
 853 323 l 2,1,2
 853 258 853 258 869.5 233.5 c 128,-1,3
 886 209 886 209 913 209 c 0,4,5
 934 209 934 209 949 214 c 1,6,-1
 969 5 l 1,7,8
 942 -11 942 -11 917.5 -16 c 128,-1,9
 893 -21 893 -21 864 -21 c 0,10,11
 790 -21 790 -21 736.5 13.5 c 128,-1,12
 683 48 683 48 654 120 c 1,13,14
 613 54 613 54 556 17 c 128,-1,15
 499 -20 499 -20 421 -20 c 0,16,17
 340 -20 340 -20 278.5 19 c 128,-1,18
 217 58 217 58 174.5 128.5 c 128,-1,19
 132 199 132 199 110 296.5 c 128,-1,20
 88 394 88 394 88 511 c 2,21,-1
 88 532 l 2,22,23
 88 657 88 657 110 761.5 c 128,-1,24
 132 866 132 866 174.5 942 c 128,-1,25
 217 1018 217 1018 279 1060 c 128,-1,26
 341 1102 341 1102 423 1102 c 0,27,28
 498 1102 498 1102 553 1066 c 128,-1,29
 608 1030 608 1030 648 965 c 1,30,-1
 695 1082 l 1,31,-1
 853 1082 l 1,0,-1
319 511 m 2,32,33
 319 445 319 445 327 388.5 c 128,-1,34
 335 332 335 332 354.5 291 c 128,-1,35
 374 250 374 250 404 226.5 c 128,-1,36
 434 203 434 203 479 203 c 0,37,38
 530 203 530 203 566 222.5 c 128,-1,39
 602 242 602 242 623 277 c 1,40,41
 622 288 622 288 622.5 299.5 c 128,-1,42
 623 311 623 311 623 323 c 2,43,-1
 623 804 l 1,44,45
 601 839 601 839 565.5 858 c 128,-1,46
 530 877 530 877 481 877 c 0,47,48
 437 877 437 877 405.5 849.5 c 128,-1,49
 374 822 374 822 355 775 c 128,-1,50
 336 728 336 728 327.5 665.5 c 128,-1,51
 319 603 319 603 319 532 c 2,52,-1
 319 511 l 2,32,33
EndSplineSet
Validated: 1
EndChar

StartChar: beta
Encoding: 158 946 158
Width: 1024
GlyphClass: 2
Flags: W
LayerCount: 2
Fore
SplineSet
530 1477 m 0,0,1
 617 1477 617 1477 688.5 1450 c 128,-1,2
 760 1423 760 1423 810 1372.5 c 128,-1,3
 860 1322 860 1322 887.5 1248.5 c 128,-1,4
 915 1175 915 1175 915 1082 c 0,5,6
 915 983 915 983 873.5 902.5 c 128,-1,7
 832 822 832 822 757 773 c 1,8,9
 858 730 858 730 912.5 638 c 128,-1,10
 967 546 967 546 967 415 c 0,11,12
 967 311 967 311 941 229.5 c 128,-1,13
 915 148 915 148 866.5 92.5 c 128,-1,14
 818 37 818 37 749.5 8 c 128,-1,15
 681 -21 681 -21 596 -21 c 0,16,17
 536 -21 536 -21 474.5 -2 c 128,-1,18
 413 17 413 17 361 58 c 1,19,-1
 361 -402 l 1,20,-1
 131 -402 l 1,21,-1
 131 1038 l 2,22,23
 131 1136 131 1136 162.5 1217 c 128,-1,24
 194 1298 194 1298 248.5 1355.5 c 128,-1,25
 303 1413 303 1413 375.5 1445 c 128,-1,26
 448 1477 448 1477 530 1477 c 0,0,1
526 859 m 2,27,28
 611 859 611 859 647.5 913.5 c 128,-1,29
 684 968 684 968 684 1063 c 0,30,31
 684 1100 684 1100 674.5 1134 c 128,-1,32
 665 1168 665 1168 645.5 1194 c 128,-1,33
 626 1220 626 1220 597 1236 c 128,-1,34
 568 1252 568 1252 530 1252 c 0,35,36
 493 1252 493 1252 462.5 1237 c 128,-1,37
 432 1222 432 1222 409.5 1194 c 128,-1,38
 387 1166 387 1166 374 1126.5 c 128,-1,39
 361 1087 361 1087 361 1038 c 2,40,-1
 361 266 l 1,41,42
 393 236 393 236 440 219 c 128,-1,43
 487 202 487 202 546 202 c 0,44,45
 591 202 591 202 626.5 218.5 c 128,-1,46
 662 235 662 235 686.5 264 c 128,-1,47
 711 293 711 293 723.5 332.5 c 128,-1,48
 736 372 736 372 736 418 c 0,49,50
 736 471 736 471 724.5 514.5 c 128,-1,51
 713 558 713 558 690 588.5 c 128,-1,52
 667 619 667 619 633 636 c 128,-1,53
 599 653 599 653 555 653 c 2,54,-1
 471 653 l 1,55,-1
 471 859 l 1,56,-1
 526 859 l 2,27,28
EndSplineSet
Validated: 1
EndChar

StartChar: gamma
Encoding: 159 947 159
Width: 1024
GlyphClass: 2
Flags: W
LayerCount: 2
Fore
SplineSet
760 1082 m 1,0,-1
 1001 1082 l 1,1,-1
 632 19 l 1,2,-1
 632 -417 l 1,3,-1
 401 -417 l 1,4,-1
 401 23 l 1,5,-1
 33 1082 l 1,6,-1
 275 1082 l 1,7,-1
 508 309 l 1,8,-1
 520 244 l 1,9,-1
 534 314 l 1,10,-1
 760 1082 l 1,0,-1
EndSplineSet
Validated: 1
EndChar

StartChar: delta
Encoding: 160 948 160
Width: 1024
GlyphClass: 2
Flags: W
LayerCount: 2
Fore
SplineSet
197 1251 m 0,0,1
 197 1323 197 1323 220 1385 c 0,2,3
 243 1446 243 1446 286 1486 c 128,-1,4
 329 1526 329 1526 392 1548 c 128,-1,5
 455 1570 455 1570 535 1570 c 0,6,7
 600 1570 600 1570 661 1548 c 128,-1,8
 722 1526 722 1526 789 1493 c 1,9,-1
 752 1309 l 1,10,11
 725 1318 725 1318 713 1324 c 0,12,13
 691 1334 691 1334 665 1342 c 128,-1,14
 639 1350 639 1350 610 1356 c 128,-1,15
 581 1362 581 1362 551 1362 c 0,16,17
 488 1362 488 1362 453 1334 c 0,18,19
 417 1305 417 1305 417 1258 c 0,20,21
 417 1243 417 1243 422 1226 c 128,-1,22
 427 1209 427 1209 442 1191 c 128,-1,23
 457 1173 457 1173 484 1154 c 0,24,25
 512 1135 512 1135 555 1116 c 0,26,27
 759 1028 759 1028 855 894 c 0,28,29
 956 752 956 752 956 542 c 2,30,-1
 956 522 l 2,31,32
 956 403 956 403 927 307 c 0,33,34
 898 210 898 210 841 136 c 0,35,36
 786 65 786 65 704 22 c 0,37,38
 623 -20 623 -20 519 -20 c 0,39,40
 411 -20 411 -20 331 20 c 128,-1,41
 251 60 251 60 193 132 c 0,42,43
 138 201 138 201 107 300 c 0,44,45
 77 397 77 397 77 510 c 2,46,-1
 77 530 l 2,47,48
 77 615 77 615 99 688 c 0,49,50
 121 762 121 762 158 818 c 0,51,52
 196 876 196 876 246 915 c 128,-1,53
 296 954 296 954 352 970 c 1,54,-1
 354 983 l 1,55,56
 281 1025 281 1025 239 1092 c 128,-1,57
 197 1159 197 1159 197 1251 c 0,0,1
307 534 m 2,58,59
 307 472 307 472 320 406 c 0,60,61
 331 348 331 348 358 300 c 0,62,63
 383 254 383 254 424 228 c 0,64,65
 464 202 464 202 519 202 c 128,-1,66
 574 202 574 202 612 228 c 0,67,68
 653 256 653 256 677 300 c 0,69,70
 702 344 702 344 714 406 c 0,71,72
 726 466 726 466 726 534 c 2,73,-1
 726 554 l 2,74,75
 726 610 726 610 712 659 c 0,76,77
 697 712 697 712 670 757 c 0,78,79
 642 804 642 804 605 834 c 0,80,81
 566 866 566 866 519 877 c 1,82,83
 466 877 466 877 424 850 c 0,84,85
 383 823 383 823 358 780 c 0,86,87
 334 738 334 738 320 676 c 0,88,89
 307 618 307 618 307 554 c 2,90,-1
 307 534 l 2,58,59
EndSplineSet
Validated: 1
EndChar

StartChar: epsilon
Encoding: 161 949 161
Width: 1024
GlyphClass: 2
Flags: W
LayerCount: 2
Fore
SplineSet
544 458 m 2,0,1
 439 458 439 458 389.5 427.5 c 128,-1,2
 340 397 340 397 340 324 c 0,3,4
 340 298 340 298 352 274 c 128,-1,5
 364 250 364 250 388.5 231.5 c 128,-1,6
 413 213 413 213 451.5 201.5 c 128,-1,7
 490 190 490 190 544 190 c 0,8,9
 593 190 593 190 631.5 200.5 c 128,-1,10
 670 211 670 211 696 229 c 128,-1,11
 722 247 722 247 736 270.5 c 128,-1,12
 750 294 750 294 750 320 c 1,13,-1
 979 320 l 1,14,15
 979 231 979 231 942.5 167 c 128,-1,16
 906 103 906 103 845.5 61.5 c 128,-1,17
 785 20 785 20 709 0 c 128,-1,18
 633 -20 633 -20 555 -20 c 0,19,20
 456 -20 456 -20 374 2 c 128,-1,21
 292 24 292 24 233 66 c 128,-1,22
 174 108 174 108 142 168.5 c 128,-1,23
 110 229 110 229 110 306 c 0,24,25
 110 398 110 398 155 461.5 c 128,-1,26
 200 525 200 525 290 557 c 1,27,28
 211 593 211 593 168 653.5 c 128,-1,29
 125 714 125 714 125 786 c 0,30,31
 125 863 125 863 155 922 c 128,-1,32
 185 981 185 981 241 1020.5 c 128,-1,33
 297 1060 297 1060 376.5 1080.5 c 128,-1,34
 456 1101 456 1101 555 1101 c 0,35,36
 639 1101 639 1101 714 1078.5 c 128,-1,37
 789 1056 789 1056 845 1013.5 c 128,-1,38
 901 971 901 971 933 909.5 c 128,-1,39
 965 848 965 848 965 771 c 1,40,-1
 735 771 l 1,41,42
 735 799 735 799 720.5 821 c 128,-1,43
 706 843 706 843 680 858.5 c 128,-1,44
 654 874 654 874 619.5 882 c 128,-1,45
 585 890 585 890 545 890 c 0,46,47
 490 890 490 890 454 879 c 128,-1,48
 418 868 418 868 396 850.5 c 128,-1,49
 374 833 374 833 365.5 810.5 c 128,-1,50
 357 788 357 788 357 765 c 0,51,52
 357 738 357 738 366.5 716.5 c 128,-1,53
 376 695 376 695 398 679 c 128,-1,54
 420 663 420 663 455.5 654.5 c 128,-1,55
 491 646 491 646 544 646 c 2,56,-1
 735 646 l 1,57,-1
 735 458 l 1,58,-1
 544 458 l 2,0,1
EndSplineSet
Validated: 1
EndChar

StartChar: zeta
Encoding: 162 950 162
Width: 1024
GlyphClass: 2
Flags: W
LayerCount: 2
Fore
SplineSet
887 1456 m 1,0,-1
 887 1296 l 1,1,-1
 541 868 l 1,2,3
 487 809 487 809 445.5 759.5 c 128,-1,4
 404 710 404 710 376 660.5 c 128,-1,5
 348 611 348 611 333.5 556.5 c 128,-1,6
 319 502 319 502 319 434 c 0,7,8
 319 387 319 387 328 354.5 c 128,-1,9
 337 322 337 322 355 299 c 128,-1,10
 373 276 373 276 400 262 c 0,11,12
 428 247 428 247 466 238 c 2,13,-1
 621 201 l 2,14,15
 661 191 661 191 718 168 c 0,16,17
 762 149 762 149 793.5 120 c 128,-1,18
 825 91 825 91 842 49 c 128,-1,19
 859 7 859 7 859 -54 c 0,20,21
 859 -97 859 -97 841.5 -144 c 128,-1,22
 824 -191 824 -191 797 -236 c 128,-1,23
 770 -281 770 -281 737.5 -321 c 128,-1,24
 705 -361 705 -361 672 -388 c 1,25,-1
 554 -278 l 1,26,27
 594 -227 594 -227 614 -184 c 0,28,29
 632 -144 632 -144 632 -110 c 0,30,31
 632 -89 632 -89 628 -78 c 0,32,33
 623 -62 623 -62 611 -49 c 128,-1,34
 599 -36 599 -36 580 -26 c 0,35,36
 562 -17 562 -17 534 -11 c 2,37,-1
 387 20 l 2,38,39
 310 36 310 36 250 70 c 0,40,41
 194 103 194 103 158 150 c 128,-1,42
 122 197 122 197 105.5 258 c 128,-1,43
 89 319 89 319 89 394 c 0,44,45
 89 474 89 474 107.5 546.5 c 128,-1,46
 126 619 126 619 162.5 690 c 128,-1,47
 199 761 199 761 254.5 833 c 128,-1,48
 310 905 310 905 383 985 c 1,49,-1
 574 1232 l 1,50,-1
 66 1232 l 1,51,-1
 66 1456 l 1,52,-1
 887 1456 l 1,0,-1
EndSplineSet
Validated: 1
EndChar

StartChar: eta
Encoding: 163 951 163
Width: 1024
GlyphClass: 2
Flags: W
LayerCount: 2
Fore
SplineSet
321 1082 m 1,0,-1
 332 925 l 1,1,2
 378 1008 378 1008 447.5 1055 c 128,-1,3
 517 1102 517 1102 605 1102 c 0,4,5
 674 1102 674 1102 731 1079 c 128,-1,6
 788 1056 788 1056 828 1005.5 c 128,-1,7
 868 955 868 955 890.5 875.5 c 128,-1,8
 913 796 913 796 913 682 c 2,9,-1
 913 -415 l 1,10,-1
 681 -415 l 1,11,-1
 681 682 l 2,12,13
 681 782 681 782 640 829.5 c 128,-1,14
 599 877 599 877 521 877 c 0,15,16
 459 877 459 877 414 854 c 128,-1,17
 369 831 369 831 338 791 c 1,18,-1
 338 0 l 1,19,-1
 107 0 l 1,20,-1
 107 1082 l 1,21,-1
 321 1082 l 1,0,-1
EndSplineSet
Validated: 1
EndChar

StartChar: theta
Encoding: 164 952 164
Width: 1024
GlyphClass: 2
Flags: W
LayerCount: 2
Fore
SplineSet
909 521 m 2,0,1
 909 388 909 388 882 287 c 128,-1,2
 855 186 855 186 805.5 117.5 c 128,-1,3
 756 49 756 49 686 14 c 128,-1,4
 616 -21 616 -21 529 -21 c 256,5,6
 442 -21 442 -21 371 14 c 128,-1,7
 300 49 300 49 250.5 117.5 c 128,-1,8
 201 186 201 186 173.5 287 c 128,-1,9
 146 388 146 388 146 521 c 2,10,-1
 146 926 l 2,11,12
 146 1059 146 1059 173 1162 c 128,-1,13
 200 1265 200 1265 250 1335 c 128,-1,14
 300 1405 300 1405 370 1441 c 128,-1,15
 440 1477 440 1477 527 1477 c 256,16,17
 614 1477 614 1477 684.5 1441 c 128,-1,18
 755 1405 755 1405 805 1335 c 128,-1,19
 855 1265 855 1265 882 1162 c 128,-1,20
 909 1059 909 1059 909 926 c 2,21,-1
 909 521 l 2,0,1
679 633 m 1,22,-1
 378 633 l 1,23,-1
 378 474 l 2,24,25
 378 395 378 395 387.5 343 c 128,-1,26
 397 291 397 291 415.5 259.5 c 128,-1,27
 434 228 434 228 462.5 215 c 128,-1,28
 491 202 491 202 529 202 c 0,29,30
 566 202 566 202 594 215 c 128,-1,31
 622 228 622 228 641 259.5 c 128,-1,32
 660 291 660 291 669.5 343 c 128,-1,33
 679 395 679 395 679 474 c 2,34,-1
 679 633 l 1,22,-1
378 848 m 1,35,-1
 679 848 l 1,36,-1
 679 976 l 2,37,38
 679 1054 679 1054 669.5 1106.5 c 128,-1,39
 660 1159 660 1159 641 1191.5 c 128,-1,40
 622 1224 622 1224 593 1238 c 128,-1,41
 564 1252 564 1252 527 1252 c 256,42,43
 490 1252 490 1252 461.5 1238 c 128,-1,44
 433 1224 433 1224 414.5 1191.5 c 128,-1,45
 396 1159 396 1159 387 1106.5 c 128,-1,46
 378 1054 378 1054 378 976 c 2,47,-1
 378 848 l 1,35,-1
EndSplineSet
Validated: 1
EndChar

StartChar: iota
Encoding: 165 953 165
Width: 1024
GlyphClass: 2
Flags: W
LayerCount: 2
Fore
SplineSet
149 1082 m 1,0,-1
 617 1082 l 1,1,-1
 617 360 l 2,2,3
 617 306 617 306 627 276 c 128,-1,4
 637 246 637 246 653.5 231 c 128,-1,5
 670 216 670 216 692.5 212.5 c 128,-1,6
 715 209 715 209 740 209 c 0,7,8
 777 209 777 209 810 224 c 128,-1,9
 843 239 843 239 865 256 c 1,10,-1
 902 55 l 1,11,12
 875 31 875 31 849.5 16 c 128,-1,13
 824 1 824 1 799 -7 c 128,-1,14
 774 -15 774 -15 748 -18 c 128,-1,15
 722 -21 722 -21 696 -21 c 0,16,17
 620 -21 620 -21 561.5 -1 c 128,-1,18
 503 19 503 19 463.5 64 c 128,-1,19
 424 109 424 109 403.5 180.5 c 128,-1,20
 383 252 383 252 383 355 c 2,21,-1
 383 855 l 1,22,-1
 149 855 l 1,23,-1
 149 1082 l 1,0,-1
EndSplineSet
Validated: 1
EndChar

StartChar: kappa
Encoding: 166 954 166
Width: 1024
GlyphClass: 2
Flags: W
LayerCount: 2
Fore
SplineSet
501 427 m 1,0,-1
 363 286 l 1,1,-1
 363 0 l 1,2,-1
 132 0 l 1,3,-1
 132 1082 l 1,4,-1
 363 1082 l 1,5,-1
 363 608 l 1,6,-1
 452 735 l 1,7,-1
 696 1082 l 1,8,-1
 986 1082 l 1,9,-1
 666 634 l 1,10,-1
 1002 0 l 1,11,-1
 706 0 l 1,12,-1
 501 427 l 1,0,-1
EndSplineSet
Validated: 1
EndChar

StartChar: lambda
Encoding: 167 955 167
Width: 1024
GlyphClass: 2
Flags: W
LayerCount: 2
Fore
SplineSet
276 0 m 1,0,-1
 27 0 l 1,1,-1
 346 1056 l 1,2,-1
 321 1130 l 2,3,4
 310 1163 310 1163 295 1196.5 c 128,-1,5
 280 1230 280 1230 259.5 1257 c 128,-1,6
 239 1284 239 1284 214.5 1300.5 c 128,-1,7
 190 1317 190 1317 160 1317 c 0,8,9
 146 1317 146 1317 129.5 1315 c 128,-1,10
 113 1313 113 1313 96 1311 c 1,11,-1
 91 1519 l 1,12,13
 104 1523 104 1523 121 1527.5 c 128,-1,14
 138 1532 138 1532 155.5 1535 c 128,-1,15
 173 1538 173 1538 191 1540 c 128,-1,16
 209 1542 209 1542 226 1542 c 0,17,18
 287 1542 287 1542 333.5 1514 c 128,-1,19
 380 1486 380 1486 414.5 1445 c 128,-1,20
 449 1404 449 1404 472 1355.5 c 128,-1,21
 495 1307 495 1307 509 1267 c 2,22,-1
 797 383 l 2,23,24
 805 352 805 352 816.5 320.5 c 128,-1,25
 828 289 828 289 843.5 264 c 128,-1,26
 859 239 859 239 877.5 223.5 c 128,-1,27
 896 208 896 208 918 208 c 0,28,29
 925 208 925 208 928.5 208 c 128,-1,30
 932 208 932 208 935.5 208.5 c 128,-1,31
 939 209 939 209 943 209.5 c 128,-1,32
 947 210 947 210 955 211 c 1,33,-1
 950 -7 l 1,34,35
 933 -13 933 -13 914.5 -15.5 c 128,-1,36
 896 -18 896 -18 879 -18 c 0,37,38
 817 -18 817 -18 769 6 c 128,-1,39
 721 30 721 30 685 70.5 c 128,-1,40
 649 111 649 111 623.5 163.5 c 128,-1,41
 598 216 598 216 582 272 c 2,42,-1
 451 713 l 1,43,-1
 427 574 l 1,44,-1
 276 0 l 1,0,-1
EndSplineSet
Validated: 1
EndChar

StartChar: xi
Encoding: 170 958 170
Width: 1024
GlyphClass: 2
Flags: W
LayerCount: 2
Fore
SplineSet
872 1210 m 1,0,1
 841 1219 841 1219 817.5 1226 c 128,-1,2
 794 1233 794 1233 772 1237.5 c 128,-1,3
 750 1242 750 1242 729.5 1244.5 c 128,-1,4
 709 1247 709 1247 685 1247 c 0,5,6
 618 1247 618 1247 571.5 1236 c 128,-1,7
 525 1225 525 1225 497 1205.5 c 128,-1,8
 469 1186 469 1186 457 1159 c 128,-1,9
 445 1132 445 1132 445 1101 c 0,10,11
 445 1067 445 1067 457 1038.5 c 128,-1,12
 469 1010 469 1010 497.5 989 c 128,-1,13
 526 968 526 968 574.5 956 c 128,-1,14
 623 944 623 944 694 944 c 2,15,-1
 818 944 l 1,16,-1
 818 714 l 1,17,-1
 699 714 l 2,18,19
 532 714 532 714 454.5 649 c 128,-1,20
 377 584 377 584 377 456 c 0,21,22
 377 402 377 402 396 362 c 128,-1,23
 415 322 415 322 449 293.5 c 128,-1,24
 483 265 483 265 529 246.5 c 128,-1,25
 575 228 575 228 630 217 c 2,26,-1
 712 195 l 2,27,28
 763 181 763 181 806.5 164.5 c 128,-1,29
 850 148 850 148 882.5 120.5 c 128,-1,30
 915 93 915 93 933 50.5 c 128,-1,31
 951 8 951 8 951 -59 c 0,32,33
 951 -102 951 -102 933.5 -149.5 c 128,-1,34
 916 -197 916 -197 889 -242 c 128,-1,35
 862 -287 862 -287 829 -326.5 c 128,-1,36
 796 -366 796 -366 764 -393 c 1,37,-1
 652 -284 l 1,38,39
 692 -233 692 -233 707.5 -192.5 c 128,-1,40
 723 -152 723 -152 723 -114 c 0,41,42
 723 -46 723 -46 625 -16 c 2,43,-1
 574 0 l 2,44,45
 470 31 470 31 390 63 c 128,-1,46
 310 95 310 95 256 143 c 128,-1,47
 202 191 202 191 174 263.5 c 128,-1,48
 146 336 146 336 146 448 c 0,49,50
 146 590 146 590 215.5 685.5 c 128,-1,51
 285 781 285 781 416 827 c 1,52,53
 319 865 319 865 266.5 932 c 128,-1,54
 214 999 214 999 214 1096 c 0,55,56
 214 1185 214 1185 244.5 1255.5 c 128,-1,57
 275 1326 275 1326 332 1375 c 128,-1,58
 389 1424 389 1424 472.5 1450 c 128,-1,59
 556 1476 556 1476 662 1476 c 0,60,61
 701 1476 701 1476 734.5 1473 c 128,-1,62
 768 1470 768 1470 797 1463.5 c 128,-1,63
 826 1457 826 1457 853 1448 c 128,-1,64
 880 1439 880 1439 907 1427 c 1,65,-1
 872 1210 l 1,0,1
EndSplineSet
Validated: 1
EndChar

StartChar: pi
Encoding: 172 960 172
Width: 1024
GlyphClass: 2
Flags: W
LayerCount: 2
Fore
SplineSet
994 868 m 1,0,-1
 867 868 l 1,1,-1
 867 322 l 2,2,3
 867 283 867 283 871.5 260 c 128,-1,4
 876 237 876 237 885.5 225.5 c 128,-1,5
 895 214 895 214 909.5 210.5 c 128,-1,6
 924 207 924 207 944 207 c 0,7,8
 970 207 970 207 986.5 213.5 c 128,-1,9
 1003 220 1003 220 1019 230 c 1,10,-1
 1057 40 l 1,11,12
 1006 1 1006 1 963 -9 c 128,-1,13
 920 -19 920 -19 878 -19 c 0,14,15
 817 -19 817 -19 771 -2.5 c 128,-1,16
 725 14 725 14 695.5 52.5 c 128,-1,17
 666 91 666 91 651 153 c 128,-1,18
 636 215 636 215 636 306 c 2,19,-1
 636 868 l 1,20,-1
 425 868 l 1,21,-1
 425 0 l 1,22,-1
 194 0 l 1,23,-1
 194 868 l 1,24,-1
 83 868 l 1,25,-1
 83 1082 l 1,26,-1
 994 1082 l 1,27,-1
 994 868 l 1,0,-1
EndSplineSet
Validated: 1
EndChar

StartChar: rho
Encoding: 173 961 173
Width: 1024
GlyphClass: 2
Flags: W
LayerCount: 2
Fore
SplineSet
929 511 m 2,0,1
 929 394 929 394 906.5 296.5 c 128,-1,2
 884 199 884 199 840 128.5 c 128,-1,3
 796 58 796 58 731.5 18.5 c 128,-1,4
 667 -21 667 -21 582 -21 c 0,5,6
 502 -21 502 -21 442.5 12.5 c 128,-1,7
 383 46 383 46 341 108 c 1,8,-1
 341 -416 l 1,9,-1
 110 -416 l 1,10,-1
 110 576 l 2,11,12
 110 693 110 693 140 790 c 128,-1,13
 170 887 170 887 225.5 956 c 128,-1,14
 281 1025 281 1025 358.5 1063.5 c 128,-1,15
 436 1102 436 1102 532 1102 c 0,16,17
 630 1102 630 1102 704.5 1060 c 128,-1,18
 779 1018 779 1018 828.5 942 c 128,-1,19
 878 866 878 866 903.5 761.5 c 128,-1,20
 929 657 929 657 929 532 c 2,21,-1
 929 511 l 2,0,1
698 532 m 2,22,23
 698 603 698 603 689 665.5 c 128,-1,24
 680 728 680 728 659 775 c 128,-1,25
 638 822 638 822 604 849.5 c 128,-1,26
 570 877 570 877 522 877 c 256,27,28
 474 877 474 877 440 850.5 c 128,-1,29
 406 824 406 824 384 779.5 c 128,-1,30
 362 735 362 735 351.5 676.5 c 128,-1,31
 341 618 341 618 341 554 c 1,32,-1
 340 553 l 1,33,-1
 341 553 l 1,34,-1
 341 309 l 1,35,36
 366 258 366 258 409 230 c 128,-1,37
 452 202 452 202 520 202 c 0,38,39
 569 202 569 202 603 225.5 c 128,-1,40
 637 249 637 249 658 290.5 c 128,-1,41
 679 332 679 332 688.5 388.5 c 128,-1,42
 698 445 698 445 698 511 c 2,43,-1
 698 532 l 2,22,23
EndSplineSet
Validated: 1
EndChar

StartChar: sigma
Encoding: 174 963 174
Width: 1024
GlyphClass: 2
Flags: W
LayerCount: 2
Fore
SplineSet
961 856 m 1,0,-1
 750 856 l 1,1,2
 782 825 782 825 809 786.5 c 128,-1,3
 836 748 836 748 855.5 704 c 128,-1,4
 875 660 875 660 885.5 611 c 128,-1,5
 896 562 896 562 896 510 c 2,6,-1
 896 489 l 2,7,8
 896 383 896 383 869.5 290 c 128,-1,9
 843 197 843 197 790.5 128 c 128,-1,10
 738 59 738 59 661.5 19 c 128,-1,11
 585 -21 585 -21 487 -21 c 0,12,13
 386 -21 386 -21 307.5 20.5 c 128,-1,14
 229 62 229 62 175 136 c 128,-1,15
 121 210 121 210 93.5 310.5 c 128,-1,16
 66 411 66 411 66 530 c 2,17,-1
 66 551 l 2,18,19
 66 665 66 665 93.5 762 c 128,-1,20
 121 859 121 859 174.5 930 c 128,-1,21
 228 1001 228 1001 306.5 1041.5 c 128,-1,22
 385 1082 385 1082 486 1082 c 2,23,-1
 961 1082 l 1,24,-1
 961 856 l 1,0,-1
297 530 m 2,25,26
 297 462 297 462 307 402.5 c 128,-1,27
 317 343 317 343 339.5 298.5 c 128,-1,28
 362 254 362 254 398.5 228 c 128,-1,29
 435 202 435 202 487 202 c 0,30,31
 535 202 535 202 569 228 c 128,-1,32
 603 254 603 254 625 298.5 c 128,-1,33
 647 343 647 343 656.5 402.5 c 128,-1,34
 666 462 666 462 666 530 c 2,35,-1
 666 551 l 2,36,37
 666 613 666 613 656.5 668.5 c 128,-1,38
 647 724 647 724 625.5 765.5 c 128,-1,39
 604 807 604 807 570 831.5 c 128,-1,40
 536 856 536 856 486 856 c 0,41,42
 435 856 435 856 399 831.5 c 128,-1,43
 363 807 363 807 340.5 765.5 c 128,-1,44
 318 724 318 724 307.5 668.5 c 128,-1,45
 297 613 297 613 297 551 c 2,46,-1
 297 530 l 2,25,26
EndSplineSet
Validated: 1
EndChar

StartChar: tau
Encoding: 175 964 175
Width: 1024
GlyphClass: 2
Flags: W
LayerCount: 2
Fore
SplineSet
858 851 m 1,0,-1
 575 851 l 1,1,-1
 575 380 l 2,2,3
 575 320 575 320 584.5 285 c 128,-1,4
 594 250 594 250 611 232.5 c 128,-1,5
 628 215 628 215 651 210 c 128,-1,6
 674 205 674 205 701 205 c 0,7,8
 743 205 743 205 773 216.5 c 128,-1,9
 803 228 803 228 832 243 c 1,10,-1
 858 34 l 1,11,12
 831 17 831 17 806.5 6.5 c 128,-1,13
 782 -4 782 -4 757 -10 c 128,-1,14
 732 -16 732 -16 706.5 -18.5 c 128,-1,15
 681 -21 681 -21 653 -21 c 0,16,17
 580 -21 580 -21 523 0.5 c 128,-1,18
 466 22 466 22 426 70 c 128,-1,19
 386 118 386 118 365 195 c 128,-1,20
 344 272 344 272 344 383 c 2,21,-1
 344 851 l 1,22,-1
 54 851 l 1,23,-1
 54 1082 l 1,24,-1
 858 1082 l 1,25,-1
 858 851 l 1,0,-1
EndSplineSet
Validated: 1
EndChar

StartChar: upsilon
Encoding: 176 965 176
Width: 1024
GlyphClass: 2
Flags: W
LayerCount: 2
Fore
SplineSet
335 1082 m 1,0,-1
 335 457 l 2,1,2
 335 385 335 385 348 336.5 c 128,-1,3
 361 288 361 288 383.5 258 c 128,-1,4
 406 228 406 228 437 215 c 128,-1,5
 468 202 468 202 506 202 c 0,6,7
 556 202 556 202 590.5 234 c 128,-1,8
 625 266 625 266 647 317.5 c 128,-1,9
 669 369 669 369 679 434.5 c 128,-1,10
 689 500 689 500 689 566 c 0,11,12
 687 700 687 700 663 828.5 c 128,-1,13
 639 957 639 957 602 1082 c 1,14,-1
 825 1082 l 1,15,16
 844 1036 844 1036 861 980.5 c 128,-1,17
 878 925 878 925 891.5 860.5 c 128,-1,18
 905 796 905 796 912.5 722 c 128,-1,19
 920 648 920 648 920 566 c 0,20,21
 920 444 920 444 898.5 337 c 128,-1,22
 877 230 877 230 829 150.5 c 128,-1,23
 781 71 781 71 703.5 25 c 128,-1,24
 626 -21 626 -21 514 -21 c 0,25,26
 419 -21 419 -21 343 7 c 128,-1,27
 267 35 267 35 214 93.5 c 128,-1,28
 161 152 161 152 133 243 c 128,-1,29
 105 334 105 334 105 459 c 2,30,-1
 105 1082 l 1,31,-1
 335 1082 l 1,0,-1
EndSplineSet
Validated: 1
EndChar

StartChar: phi
Encoding: 177 966 177
Width: 1024
GlyphClass: 2
Flags: W
LayerCount: 2
Fore
SplineSet
423 -9 m 1,0,1
 323 12 323 12 254.5 67 c 128,-1,2
 186 122 186 122 143.5 200 c 128,-1,3
 101 278 101 278 82.5 373.5 c 128,-1,4
 64 469 64 469 64 571 c 0,5,6
 64 655 64 655 77.5 731.5 c 128,-1,7
 91 808 91 808 116 875 c 128,-1,8
 141 942 141 942 176 997.5 c 128,-1,9
 211 1053 211 1053 253 1094 c 1,10,-1
 409 942 l 1,11,12
 380 903 380 903 359.5 858 c 128,-1,13
 339 813 339 813 324.5 765 c 128,-1,14
 310 717 310 717 303 667.5 c 128,-1,15
 296 618 296 618 295 571 c 0,16,17
 295 513 295 513 301.5 460.5 c 128,-1,18
 308 408 308 408 323 364 c 128,-1,19
 338 320 338 320 362.5 286 c 128,-1,20
 387 252 387 252 423 231 c 1,21,-1
 423 802 l 2,22,23
 423 867 423 867 442.5 920.5 c 128,-1,24
 462 974 462 974 495.5 1012.5 c 128,-1,25
 529 1051 529 1051 574.5 1072.5 c 128,-1,26
 620 1094 620 1094 672 1094 c 0,27,28
 762 1094 762 1094 828 1047 c 128,-1,29
 894 1000 894 1000 936.5 924 c 128,-1,30
 979 848 979 848 999.5 751.5 c 128,-1,31
 1020 655 1020 655 1020 556 c 256,32,33
 1020 457 1020 457 1001 363.5 c 128,-1,34
 982 270 982 270 939 193.5 c 128,-1,35
 896 117 896 117 826 63 c 128,-1,36
 756 9 756 9 655 -11 c 1,37,-1
 655 -478 l 1,38,-1
 423 -478 l 1,39,-1
 423 -9 l 1,0,1
655 227 m 1,40,41
 692 247 692 247 718 280.5 c 128,-1,42
 744 314 744 314 759.5 357.5 c 128,-1,43
 775 401 775 401 782 451.5 c 128,-1,44
 789 502 789 502 789 556 c 0,45,46
 788 623 788 623 781.5 680.5 c 128,-1,47
 775 738 775 738 763.5 780 c 128,-1,48
 752 822 752 822 735.5 846 c 128,-1,49
 719 870 719 870 697 870 c 256,50,51
 675 870 675 870 665 852 c 128,-1,52
 655 834 655 834 655 806 c 2,53,-1
 655 227 l 1,40,41
EndSplineSet
Validated: 1
EndChar

StartChar: psi
Encoding: 179 968 179
Width: 1024
GlyphClass: 2
Flags: W
LayerCount: 2
Fore
SplineSet
651 1082 m 1,0,-1
 651 227 l 1,1,2
 693 248 693 248 721.5 283.5 c 128,-1,3
 750 319 750 319 768 366.5 c 128,-1,4
 786 414 786 414 794 471 c 128,-1,5
 802 528 802 528 802 591 c 0,6,7
 801 718 801 718 784 841 c 128,-1,8
 767 964 767 964 743 1082 c 1,9,-1
 960 1082 l 1,10,11
 989 993 989 993 1011 871 c 128,-1,12
 1033 749 1033 749 1033 591 c 0,13,14
 1033 483 1033 483 1013 383 c 128,-1,15
 993 283 993 283 948 201.5 c 128,-1,16
 903 120 903 120 830 64 c 128,-1,17
 757 8 757 8 651 -11 c 1,18,-1
 651 -478 l 1,19,-1
 420 -478 l 1,20,-1
 420 -9 l 1,21,22
 336 9 336 9 269 53 c 128,-1,23
 202 97 202 97 155 170.5 c 128,-1,24
 108 244 108 244 82.5 348 c 128,-1,25
 57 452 57 452 57 590 c 2,26,-1
 57 1082 l 1,27,-1
 290 1082 l 1,28,-1
 290 587 l 2,29,30
 290 510 290 510 299.5 451 c 128,-1,31
 309 392 309 392 326 348.5 c 128,-1,32
 343 305 343 305 367 276 c 128,-1,33
 391 247 391 247 420 230 c 1,34,-1
 420 1082 l 1,35,-1
 651 1082 l 1,0,-1
EndSplineSet
Validated: 1
EndChar

StartChar: omega
Encoding: 180 969 180
Width: 1024
GlyphClass: 2
Flags: W
LayerCount: 2
Fore
SplineSet
350 1082 m 1,0,1
 313 957 313 957 292 828.5 c 128,-1,2
 271 700 271 700 270 566 c 0,3,4
 270 496 270 496 272.5 430.5 c 128,-1,5
 275 365 275 365 280.5 314.5 c 128,-1,6
 286 264 286 264 296.5 233.5 c 128,-1,7
 307 203 307 203 322 203 c 256,8,9
 337 203 337 203 350 218 c 128,-1,10
 363 233 363 233 373 267 c 128,-1,11
 383 301 383 301 388.5 355.5 c 128,-1,12
 394 410 394 410 394 489 c 2,13,-1
 394 834 l 1,14,-1
 637 834 l 1,15,-1
 637 489 l 2,16,17
 637 410 637 410 642.5 355.5 c 128,-1,18
 648 301 648 301 657.5 267 c 128,-1,19
 667 233 667 233 680 218 c 128,-1,20
 693 203 693 203 708 203 c 0,21,22
 724 203 724 203 734.5 233.5 c 128,-1,23
 745 264 745 264 751 314 c 128,-1,24
 757 364 757 364 759.5 429.5 c 128,-1,25
 762 495 762 495 762 566 c 0,26,27
 760 700 760 700 738 828.5 c 128,-1,28
 716 957 716 957 681 1082 c 1,29,-1
 903 1082 l 1,30,31
 921 1036 921 1036 937.5 980.5 c 128,-1,32
 954 925 954 925 966 860.5 c 128,-1,33
 978 796 978 796 985 722 c 128,-1,34
 992 648 992 648 992 566 c 0,35,36
 992 444 992 444 978.5 337 c 128,-1,37
 965 230 965 230 932.5 150.5 c 128,-1,38
 900 71 900 71 847 25.5 c 128,-1,39
 794 -20 794 -20 717 -20 c 0,40,41
 650 -20 650 -20 599 27 c 128,-1,42
 548 74 548 74 515 165 c 1,43,44
 483 74 483 74 431.5 27 c 128,-1,45
 380 -20 380 -20 314 -20 c 0,46,47
 236 -20 236 -20 183 25.5 c 128,-1,48
 130 71 130 71 98 150.5 c 128,-1,49
 66 230 66 230 52 337 c 128,-1,50
 38 444 38 444 38 566 c 0,51,52
 38 648 38 648 45.5 722 c 128,-1,53
 53 796 53 796 65 860.5 c 128,-1,54
 77 925 77 925 93.5 980.5 c 128,-1,55
 110 1036 110 1036 127 1082 c 1,56,-1
 350 1082 l 1,0,1
EndSplineSet
Validated: 1
EndChar

StartChar: uni0411
Encoding: 183 1041 183
Width: 1024
GlyphClass: 2
Flags: W
LayerCount: 2
Fore
SplineSet
892 1228 m 1,0,-1
 343 1228 l 1,1,-1
 343 918 l 1,2,-1
 479 918 l 2,3,4
 584 918 584 918 667 885.5 c 128,-1,5
 750 853 750 853 808 794 c 128,-1,6
 866 735 866 735 896.5 651 c 128,-1,7
 927 567 927 567 927 465 c 0,8,9
 927 361 927 361 896.5 275.5 c 128,-1,10
 866 190 866 190 808 129 c 128,-1,11
 750 68 750 68 667 34 c 128,-1,12
 584 0 584 0 479 0 c 2,13,-1
 109 0 l 1,14,-1
 109 1456 l 1,15,-1
 892 1456 l 1,16,-1
 892 1228 l 1,0,-1
343 692 m 1,17,-1
 343 226 l 1,18,-1
 479 226 l 2,19,20
 534 226 534 226 574 245 c 128,-1,21
 614 264 614 264 641 297 c 128,-1,22
 668 330 668 330 681 374 c 128,-1,23
 694 418 694 418 694 467 c 0,24,25
 694 514 694 514 681 555 c 128,-1,26
 668 596 668 596 641 626.5 c 128,-1,27
 614 657 614 657 574 674.5 c 128,-1,28
 534 692 534 692 479 692 c 2,29,-1
 343 692 l 1,17,-1
EndSplineSet
Validated: 1
EndChar

StartChar: uni0414
Encoding: 186 1044 186
Width: 1024
GlyphClass: 2
Flags: W
LayerCount: 2
Fore
SplineSet
929 -358 m 1,0,-1
 728 -358 l 1,1,-1
 728 0 l 1,2,-1
 271 0 l 1,3,-1
 271 -358 l 1,4,-1
 74 -358 l 1,5,-1
 37 226 l 1,6,-1
 82 226 l 1,7,8
 120 250 120 250 148.5 293 c 128,-1,9
 177 336 177 336 196 409.5 c 128,-1,10
 215 483 215 483 226.5 592.5 c 128,-1,11
 238 702 238 702 243 860 c 2,12,-1
 276 1456 l 1,13,-1
 873 1456 l 1,14,-1
 873 226 l 1,15,-1
 962 226 l 1,16,-1
 929 -358 l 1,0,-1
477 860 m 2,17,18
 473 743 473 743 465 648 c 128,-1,19
 457 553 457 553 444.5 475.5 c 128,-1,20
 432 398 432 398 415.5 336.5 c 128,-1,21
 399 275 399 275 379 226 c 1,22,-1
 641 226 l 1,23,-1
 641 1228 l 1,24,-1
 497 1228 l 1,25,-1
 477 860 l 2,17,18
EndSplineSet
Validated: 1
EndChar

StartChar: uni0416
Encoding: 188 1046 188
Width: 1024
GlyphClass: 2
Flags: W
LayerCount: 2
Fore
SplineSet
652 587 m 1,0,-1
 608 587 l 1,1,-1
 608 0 l 1,2,-1
 404 0 l 1,3,-1
 404 587 l 1,4,-1
 358 587 l 1,5,-1
 239 0 l 1,6,-1
 -7 0 l 1,7,-1
 198 774 l 1,8,-1
 12 1456 l 1,9,-1
 256 1456 l 1,10,-1
 367 841 l 1,11,-1
 404 841 l 1,12,-1
 404 1456 l 1,13,-1
 608 1456 l 1,14,-1
 608 841 l 1,15,-1
 643 841 l 1,16,-1
 749 1456 l 1,17,-1
 993 1456 l 1,18,-1
 811 774 l 1,19,-1
 1012 0 l 1,20,-1
 765 0 l 1,21,-1
 652 587 l 1,0,-1
EndSplineSet
Validated: 1
EndChar

StartChar: uni0417
Encoding: 189 1047 189
Width: 1024
GlyphClass: 2
Flags: W
LayerCount: 2
Fore
SplineSet
955 1061 m 0,0,1
 955 1011 955 1011 942 965 c 128,-1,2
 929 919 929 919 905 878.5 c 128,-1,3
 881 838 881 838 846 805 c 128,-1,4
 811 772 811 772 767 748 c 1,5,6
 867 706 867 706 920 620.5 c 128,-1,7
 973 535 973 535 973 408 c 0,8,9
 973 306 973 306 938.5 226 c 128,-1,10
 904 146 904 146 843 91.5 c 128,-1,11
 782 37 782 37 697 8.5 c 128,-1,12
 612 -20 612 -20 511 -20 c 0,13,14
 430 -20 430 -20 350.5 4.5 c 128,-1,15
 271 29 271 29 207.5 80.5 c 128,-1,16
 144 132 144 132 104.5 212 c 128,-1,17
 65 292 65 292 65 404 c 1,18,-1
 299 404 l 1,19,20
 299 362 299 362 314.5 326 c 128,-1,21
 330 290 330 290 358 263 c 128,-1,22
 386 236 386 236 425 220.5 c 128,-1,23
 464 205 464 205 511 205 c 0,24,25
 566 205 566 205 608.5 220.5 c 128,-1,26
 651 236 651 236 680 264 c 128,-1,27
 709 292 709 292 724 329.5 c 128,-1,28
 739 367 739 367 739 411 c 0,29,30
 739 528 739 528 684.5 580 c 128,-1,31
 630 632 630 632 525 632 c 2,32,-1
 362 632 l 1,33,-1
 362 852 l 1,34,-1
 525 852 l 2,35,36
 577 852 577 852 614 866.5 c 128,-1,37
 651 881 651 881 674.5 908 c 128,-1,38
 698 935 698 935 709.5 972.5 c 128,-1,39
 721 1010 721 1010 721 1056 c 0,40,41
 721 1095 721 1095 708.5 1130.5 c 128,-1,42
 696 1166 696 1166 670 1192 c 128,-1,43
 644 1218 644 1218 604.5 1233.5 c 128,-1,44
 565 1249 565 1249 511 1249 c 0,45,46
 469 1249 469 1249 433.5 1236 c 128,-1,47
 398 1223 398 1223 372 1199 c 128,-1,48
 346 1175 346 1175 330.5 1141 c 128,-1,49
 315 1107 315 1107 315 1065 c 1,50,-1
 82 1065 l 1,51,52
 82 1161 82 1161 116.5 1237 c 128,-1,53
 151 1313 151 1313 210 1366 c 128,-1,54
 269 1419 269 1419 346.5 1447.5 c 128,-1,55
 424 1476 424 1476 511 1476 c 0,56,57
 611 1476 611 1476 693.5 1449.5 c 128,-1,58
 776 1423 776 1423 834 1370.5 c 128,-1,59
 892 1318 892 1318 923.5 1240.5 c 128,-1,60
 955 1163 955 1163 955 1061 c 0,0,1
EndSplineSet
Validated: 1
EndChar

StartChar: uni0418
Encoding: 190 1048 190
Width: 1024
GlyphClass: 2
Flags: W
LayerCount: 2
Fore
SplineSet
668 1456 m 1,0,-1
 902 1456 l 1,1,-1
 902 0 l 1,2,-1
 668 0 l 1,3,-1
 668 929 l 1,4,-1
 325 0 l 1,5,-1
 92 0 l 1,6,-1
 92 1456 l 1,7,-1
 325 1456 l 1,8,-1
 325 526 l 1,9,-1
 668 1456 l 1,0,-1
EndSplineSet
Validated: 1
EndChar

StartChar: uni0419
Encoding: 191 1049 191
Width: 1024
GlyphClass: 2
Flags: W
LayerCount: 2
Fore
SplineSet
668 1456 m 1,0,-1
 902 1456 l 1,1,-1
 902 0 l 1,2,-1
 668 0 l 1,3,-1
 668 929 l 1,4,-1
 325 0 l 1,5,-1
 92 0 l 1,6,-1
 92 1456 l 1,7,-1
 325 1456 l 1,8,-1
 325 526 l 1,9,-1
 668 1456 l 1,0,-1
774 1835 m 1,10,11
 774 1770 774 1770 754 1716 c 128,-1,12
 734 1662 734 1662 698 1624 c 0,13,14
 661 1586 661 1586 608 1564 c 0,15,16
 556 1542 556 1542 491 1542 c 0,17,18
 425 1542 425 1542 374 1564 c 0,19,20
 322 1586 322 1586 284 1624 c 0,21,22
 247 1662 247 1662 228 1716 c 0,23,24
 208 1770 208 1770 208 1835 c 1,25,-1
 374 1835 l 1,26,27
 374 1808 374 1808 381 1784 c 0,28,29
 387 1760 387 1760 401 1742 c 128,-1,30
 415 1724 415 1724 437 1712 c 0,31,32
 459 1701 459 1701 491 1701 c 128,-1,33
 523 1701 523 1701 545 1712 c 0,34,35
 567 1724 567 1724 581 1742 c 128,-1,36
 595 1760 595 1760 601 1784 c 128,-1,37
 607 1808 607 1808 607 1835 c 1,38,-1
 774 1835 l 1,10,11
EndSplineSet
Validated: 1
EndChar

StartChar: uni041A
Encoding: 192 1050 192
Width: 1024
GlyphClass: 2
Flags: W
LayerCount: 2
Fore
SplineSet
456 598 m 1,0,-1
 359 598 l 1,1,-1
 359 0 l 1,2,-1
 125 0 l 1,3,-1
 125 1456 l 1,4,-1
 359 1456 l 1,5,-1
 359 815 l 1,6,-1
 416 815 l 1,7,-1
 732 1456 l 1,8,-1
 1002 1456 l 1,9,-1
 642 755 l 1,10,-1
 1016 0 l 1,11,-1
 745 0 l 1,12,-1
 456 598 l 1,0,-1
EndSplineSet
Validated: 1
EndChar

StartChar: uni041B
Encoding: 193 1051 193
Width: 1024
GlyphClass: 2
Flags: W
LayerCount: 2
Fore
SplineSet
916 1456 m 1,0,-1
 916 0 l 1,1,-1
 681 0 l 1,2,-1
 681 1228 l 1,3,-1
 432 1228 l 1,4,-1
 427 694 l 2,5,6
 425 503 425 503 403 371 c 128,-1,7
 381 239 381 239 339.5 156.5 c 128,-1,8
 298 74 298 74 235.5 37 c 128,-1,9
 173 0 173 0 90 0 c 2,10,-1
 32 0 l 1,11,-1
 32 226 l 1,12,-1
 66 226 l 1,13,14
 107 231 107 231 131 255.5 c 128,-1,15
 155 280 155 280 169 333.5 c 128,-1,16
 183 387 183 387 188 474.5 c 128,-1,17
 193 562 193 562 194 694 c 2,18,-1
 199 1456 l 1,19,-1
 916 1456 l 1,0,-1
EndSplineSet
Validated: 1
EndChar

StartChar: uni0423
Encoding: 201 1059 201
Width: 1024
GlyphClass: 2
Flags: W
LayerCount: 2
Fore
SplineSet
442 956 m 1,0,-1
 520 687 l 1,1,-1
 773 1456 l 1,2,-1
 1027 1456 l 1,3,-1
 597 276 l 2,4,5
 575 217 575 217 546.5 163 c 128,-1,6
 518 109 518 109 477.5 68 c 128,-1,7
 437 27 437 27 383.5 3 c 128,-1,8
 330 -21 330 -21 256 -21 c 0,9,10
 197 -21 197 -21 152 -9.5 c 128,-1,11
 107 2 107 2 79 11 c 1,12,-1
 94 231 l 1,13,14
 105 227 105 227 120 222.5 c 128,-1,15
 135 218 135 218 152 214 c 128,-1,16
 169 210 169 210 186 207.5 c 128,-1,17
 203 205 203 205 219 205 c 0,18,19
 259 205 259 205 289 215 c 128,-1,20
 319 225 319 225 340.5 243 c 128,-1,21
 362 261 362 261 376.5 286.5 c 128,-1,22
 391 312 391 312 400 344 c 2,23,-1
 423 406 l 1,24,-1
 2 1456 l 1,25,-1
 254 1456 l 1,26,-1
 442 956 l 1,0,-1
EndSplineSet
Validated: 1
EndChar

StartChar: uni0426
Encoding: 204 1062 204
Width: 1024
GlyphClass: 2
Flags: W
LayerCount: 2
Fore
SplineSet
90 1456 m 1,0,-1
 323 1456 l 1,1,-1
 323 226 l 1,2,-1
 652 226 l 1,3,-1
 652 1456 l 1,4,-1
 887 1456 l 1,5,-1
 887 225 l 1,6,-1
 1043 225 l 1,7,-1
 1027 -351 l 1,8,-1
 811 -351 l 1,9,-1
 811 0 l 1,10,-1
 90 0 l 1,11,-1
 90 1456 l 1,0,-1
EndSplineSet
Validated: 1
EndChar

StartChar: uni0427
Encoding: 205 1063 205
Width: 1024
GlyphClass: 2
Flags: W
LayerCount: 2
Fore
SplineSet
929 1456 m 1,0,-1
 929 0 l 1,1,-1
 695 0 l 1,2,-1
 695 555 l 1,3,4
 673 548 673 548 650 542.5 c 128,-1,5
 627 537 627 537 604 533.5 c 128,-1,6
 581 530 581 530 560 528 c 128,-1,7
 539 526 539 526 523 526 c 0,8,9
 433 526 433 526 360.5 553.5 c 128,-1,10
 288 581 288 581 237 639 c 128,-1,11
 186 697 186 697 158 787.5 c 128,-1,12
 130 878 130 878 130 1003 c 2,13,-1
 130 1456 l 1,14,-1
 364 1456 l 1,15,-1
 364 1003 l 2,16,17
 364 930 364 930 373.5 882 c 128,-1,18
 383 834 383 834 403 805.5 c 128,-1,19
 423 777 423 777 452.5 765.5 c 128,-1,20
 482 754 482 754 523 754 c 0,21,22
 540 754 540 754 560.5 755.5 c 128,-1,23
 581 757 581 757 604 760.5 c 128,-1,24
 627 764 627 764 650 769 c 128,-1,25
 673 774 673 774 695 781 c 1,26,-1
 695 1456 l 1,27,-1
 929 1456 l 1,0,-1
EndSplineSet
Validated: 1
EndChar

StartChar: uni0428
Encoding: 206 1064 206
Width: 1024
GlyphClass: 2
Flags: W
LayerCount: 2
Fore
SplineSet
295 1456 m 1,0,-1
 295 226 l 1,1,-1
 411 226 l 1,2,-1
 411 1456 l 1,3,-1
 631 1456 l 1,4,-1
 631 226 l 1,5,-1
 745 226 l 1,6,-1
 745 1456 l 1,7,-1
 972 1456 l 1,8,-1
 972 0 l 1,9,-1
 67 0 l 1,10,-1
 67 1456 l 1,11,-1
 295 1456 l 1,0,-1
EndSplineSet
Validated: 1
EndChar

StartChar: uni0429
Encoding: 207 1065 207
Width: 1024
GlyphClass: 2
Flags: W
LayerCount: 2
Fore
SplineSet
295 1456 m 1,0,-1
 295 226 l 1,1,-1
 411 226 l 1,2,-1
 411 1456 l 1,3,-1
 631 1456 l 1,4,-1
 631 226 l 1,5,-1
 745 226 l 1,6,-1
 745 1456 l 1,7,-1
 972 1456 l 1,8,-1
 972 223 l 1,9,-1
 1079 223 l 1,10,-1
 1062 -350 l 1,11,-1
 849 -350 l 1,12,-1
 849 0 l 1,13,-1
 67 0 l 1,14,-1
 67 1456 l 1,15,-1
 295 1456 l 1,0,-1
EndSplineSet
Validated: 1
EndChar

StartChar: uni042A
Encoding: 208 1066 208
Width: 1024
GlyphClass: 2
Flags: W
LayerCount: 2
Fore
SplineSet
42 1456 m 1,0,-1
 484 1456 l 1,1,-1
 484 872 l 1,2,-1
 558 872 l 2,3,4
 656 872 656 872 731.5 840.5 c 128,-1,5
 807 809 807 809 858.5 751.5 c 128,-1,6
 910 694 910 694 936.5 614 c 128,-1,7
 963 534 963 534 963 437 c 0,8,9
 963 341 963 341 936.5 260.5 c 128,-1,10
 910 180 910 180 858.5 122 c 128,-1,11
 807 64 807 64 731.5 32 c 128,-1,12
 656 0 656 0 558 0 c 2,13,-1
 251 0 l 1,14,-1
 251 1239 l 1,15,-1
 42 1239 l 1,16,-1
 42 1456 l 1,0,-1
484 647 m 1,17,-1
 484 224 l 1,18,-1
 558 224 l 2,19,20
 604 224 604 224 637 240.5 c 128,-1,21
 670 257 670 257 690.5 286 c 128,-1,22
 711 315 711 315 720.5 354 c 128,-1,23
 730 393 730 393 730 439 c 0,24,25
 730 483 730 483 720.5 521 c 128,-1,26
 711 559 711 559 690.5 587 c 128,-1,27
 670 615 670 615 637 631 c 128,-1,28
 604 647 604 647 558 647 c 2,29,-1
 484 647 l 1,17,-1
EndSplineSet
Validated: 1
EndChar

StartChar: uni042B
Encoding: 209 1067 209
Width: 1024
GlyphClass: 2
Flags: W
LayerCount: 2
Fore
SplineSet
295 864 m 1,0,-1
 347 864 l 2,1,2
 423 864 423 864 481 833.5 c 128,-1,3
 539 803 539 803 578.5 747 c 128,-1,4
 618 691 618 691 638 612.5 c 128,-1,5
 658 534 658 534 658 437 c 0,6,7
 658 341 658 341 636 260.5 c 128,-1,8
 614 180 614 180 571 122 c 128,-1,9
 528 64 528 64 465 32 c 128,-1,10
 402 0 402 0 320 0 c 2,11,-1
 61 0 l 1,12,-1
 61 1456 l 1,13,-1
 295 1456 l 1,14,-1
 295 864 l 1,0,-1
956 0 m 1,15,-1
 723 0 l 1,16,-1
 723 1456 l 1,17,-1
 956 1456 l 1,18,-1
 956 0 l 1,15,-1
295 647 m 1,19,-1
 295 216 l 1,20,-1
 333 216 l 2,21,22
 358 216 358 216 375.5 233.5 c 128,-1,23
 393 251 393 251 404.5 281.5 c 128,-1,24
 416 312 416 312 421 352.5 c 128,-1,25
 426 393 426 393 426 439 c 0,26,27
 426 483 426 483 421 521 c 128,-1,28
 416 559 416 559 404.5 587 c 128,-1,29
 393 615 393 615 376 631 c 128,-1,30
 359 647 359 647 333 647 c 2,31,-1
 295 647 l 1,19,-1
EndSplineSet
Validated: 1
EndChar

StartChar: uni042C
Encoding: 210 1068 210
Width: 1024
GlyphClass: 2
Flags: W
LayerCount: 2
Fore
SplineSet
343 918 m 1,0,-1
 479 918 l 2,1,2
 584 918 584 918 667 885.5 c 128,-1,3
 750 853 750 853 808 794 c 128,-1,4
 866 735 866 735 896.5 651 c 128,-1,5
 927 567 927 567 927 465 c 0,6,7
 927 361 927 361 896.5 275.5 c 128,-1,8
 866 190 866 190 808 129 c 128,-1,9
 750 68 750 68 667 34 c 128,-1,10
 584 0 584 0 479 0 c 2,11,-1
 109 0 l 1,12,-1
 109 1456 l 1,13,-1
 343 1456 l 1,14,-1
 343 918 l 1,0,-1
343 692 m 1,15,-1
 343 226 l 1,16,-1
 479 226 l 2,17,18
 534 226 534 226 574 245 c 128,-1,19
 614 264 614 264 641 297 c 128,-1,20
 668 330 668 330 681 374 c 128,-1,21
 694 418 694 418 694 467 c 0,22,23
 694 514 694 514 681 555 c 128,-1,24
 668 596 668 596 641 626.5 c 128,-1,25
 614 657 614 657 574 674.5 c 128,-1,26
 534 692 534 692 479 692 c 2,27,-1
 343 692 l 1,15,-1
EndSplineSet
Validated: 1
EndChar

StartChar: uni042D
Encoding: 211 1069 211
Width: 1024
GlyphClass: 2
Flags: W
LayerCount: 2
Fore
SplineSet
262 484 m 1,0,1
 262 418 262 418 273 366 c 128,-1,2
 284 314 284 314 310 278 c 128,-1,3
 336 242 336 242 372 223 c 128,-1,4
 408 204 408 204 451 204 c 0,5,6
 501 204 501 204 541.5 224 c 128,-1,7
 582 244 582 244 610 288.5 c 128,-1,8
 638 333 638 333 653.5 403 c 128,-1,9
 669 473 669 473 669 574 c 2,10,-1
 669 613 l 1,11,-1
 351 613 l 1,12,-1
 351 840 l 1,13,-1
 669 840 l 1,14,-1
 669 879 l 2,15,16
 669 975 669 975 654.5 1045 c 128,-1,17
 640 1115 640 1115 613 1160.5 c 128,-1,18
 586 1206 586 1206 547.5 1228 c 128,-1,19
 509 1250 509 1250 462 1250 c 0,20,21
 411 1250 411 1250 371.5 1231 c 128,-1,22
 332 1212 332 1212 306.5 1175.5 c 128,-1,23
 281 1139 281 1139 271 1086 c 128,-1,24
 261 1033 261 1033 261 966 c 1,25,-1
 28 966 l 1,26,27
 28 1071 28 1071 58.5 1164 c 128,-1,28
 89 1257 89 1257 145.5 1327 c 128,-1,29
 202 1397 202 1397 282 1437.5 c 128,-1,30
 362 1478 362 1478 462 1478 c 0,31,32
 559 1478 559 1478 640 1436.5 c 128,-1,33
 721 1395 721 1395 779 1318 c 128,-1,34
 837 1241 837 1241 869 1129.5 c 128,-1,35
 901 1018 901 1018 901 879 c 2,36,-1
 901 576 l 2,37,38
 901 436 901 436 869.5 325.5 c 128,-1,39
 838 215 838 215 779.5 138.5 c 128,-1,40
 721 62 721 62 637.5 21 c 128,-1,41
 554 -20 554 -20 451 -20 c 0,42,43
 359 -20 359 -20 280.5 14 c 128,-1,44
 202 48 202 48 145 113 c 128,-1,45
 88 178 88 178 58.5 271.5 c 128,-1,46
 29 365 29 365 29 484 c 1,47,-1
 262 484 l 1,0,1
EndSplineSet
Validated: 1
EndChar

StartChar: uni042E
Encoding: 212 1070 212
Width: 1024
GlyphClass: 2
Flags: W
LayerCount: 2
Fore
SplineSet
940 507 m 2,0,1
 940 244 940 244 862 111.5 c 128,-1,2
 784 -21 784 -21 637 -21 c 0,3,4
 498 -21 498 -21 424 111.5 c 128,-1,5
 350 244 350 244 350 507 c 2,6,-1
 350 604 l 1,7,-1
 276 604 l 1,8,-1
 276 0 l 1,9,-1
 70 0 l 1,10,-1
 70 1456 l 1,11,-1
 276 1456 l 1,12,-1
 276 821 l 1,13,-1
 350 821 l 1,14,-1
 350 949 l 2,15,16
 350 1212 350 1212 423.5 1344.5 c 128,-1,17
 497 1477 497 1477 637 1477 c 0,18,19
 784 1477 784 1477 862 1344.5 c 128,-1,20
 940 1212 940 1212 940 949 c 2,21,-1
 940 507 l 2,0,1
727 983 m 2,22,23
 727 1058 727 1058 723 1109.5 c 128,-1,24
 719 1161 719 1161 708.5 1193 c 128,-1,25
 698 1225 698 1225 680.5 1239 c 128,-1,26
 663 1253 663 1253 637 1253 c 0,27,28
 615 1253 615 1253 599.5 1239 c 128,-1,29
 584 1225 584 1225 574 1193 c 128,-1,30
 564 1161 564 1161 560 1109.5 c 128,-1,31
 556 1058 556 1058 556 983 c 2,32,-1
 556 474 l 2,33,34
 556 398 556 398 560 346 c 128,-1,35
 564 294 564 294 574 262 c 128,-1,36
 584 230 584 230 599 216 c 128,-1,37
 614 202 614 202 637 202 c 0,38,39
 664 202 664 202 681 216 c 128,-1,40
 698 230 698 230 708.5 262 c 128,-1,41
 719 294 719 294 723 346 c 128,-1,42
 727 398 727 398 727 474 c 2,43,-1
 727 983 l 2,22,23
EndSplineSet
Validated: 1
EndChar

StartChar: uni042F
Encoding: 213 1071 213
Width: 1024
GlyphClass: 2
Flags: W
LayerCount: 2
Fore
SplineSet
632 0 m 1,0,-1
 632 573 l 1,1,-1
 445 573 l 1,2,-1
 217 0 l 1,3,-1
 -32 0 l 1,4,-1
 229 658 l 1,5,6
 133 715 133 715 82.5 806.5 c 128,-1,7
 32 898 32 898 32 1028 c 0,8,9
 32 1133 32 1133 63 1213 c 128,-1,10
 94 1293 94 1293 151.5 1347 c 128,-1,11
 209 1401 209 1401 291.5 1428.5 c 128,-1,12
 374 1456 374 1456 476 1456 c 2,13,-1
 866 1456 l 1,14,-1
 866 0 l 1,15,-1
 632 0 l 1,0,-1
266 1011 m 0,16,17
 266 897 266 897 318 842.5 c 128,-1,18
 370 788 370 788 476 788 c 2,19,-1
 632 788 l 1,20,-1
 632 1228 l 1,21,-1
 476 1228 l 2,22,23
 368 1228 368 1228 317 1171 c 128,-1,24
 266 1114 266 1114 266 1011 c 0,16,17
EndSplineSet
Validated: 1
EndChar

StartChar: uni0431
Encoding: 215 1073 215
Width: 1024
GlyphClass: 2
Flags: W
LayerCount: 2
Fore
SplineSet
560 1022 m 0,0,1
 650 1022 650 1022 720.5 983.5 c 128,-1,2
 791 945 791 945 839 877.5 c 128,-1,3
 887 810 887 810 912 718 c 128,-1,4
 937 626 937 626 937 518 c 2,5,-1
 937 497 l 2,6,7
 937 385 937 385 909.5 290 c 128,-1,8
 882 195 882 195 828 126 c 128,-1,9
 774 57 774 57 696 18 c 128,-1,10
 618 -21 618 -21 517 -21 c 128,-1,11
 416 -21 416 -21 337.5 21 c 128,-1,12
 259 63 259 63 205 137 c 128,-1,13
 151 211 151 211 123 312.5 c 128,-1,14
 95 414 95 414 95 534 c 2,15,-1
 95 555 l 1,16,-1
 95 557 l 1,17,-1
 95 595 l 2,18,19
 96 790 96 790 125 935 c 128,-1,20
 154 1080 154 1080 207 1180 c 128,-1,21
 260 1280 260 1280 334.5 1339 c 128,-1,22
 409 1398 409 1398 501 1422 c 0,23,24
 546 1433 546 1433 578.5 1444 c 128,-1,25
 611 1455 611 1455 632 1470 c 128,-1,26
 653 1485 653 1485 663 1506 c 128,-1,27
 673 1527 673 1527 673 1557 c 1,28,-1
 860 1557 l 1,29,30
 860 1474 860 1474 842 1416 c 128,-1,31
 824 1358 824 1358 785.5 1317.5 c 128,-1,32
 747 1277 747 1277 687.5 1250 c 128,-1,33
 628 1223 628 1223 543 1203 c 0,34,35
 492 1190 492 1190 450 1166.5 c 128,-1,36
 408 1143 408 1143 376 1105 c 128,-1,37
 344 1067 344 1067 321.5 1013 c 128,-1,38
 299 959 299 959 287 885 c 1,39,40
 343 952 343 952 410.5 987 c 128,-1,41
 478 1022 478 1022 560 1022 c 0,0,1
515 797 m 0,42,43
 464 797 464 797 428 774.5 c 128,-1,44
 392 752 392 752 369.5 713.5 c 128,-1,45
 347 675 347 675 337 624.5 c 128,-1,46
 327 574 327 574 327 518 c 2,47,-1
 327 497 l 2,48,49
 327 436 327 436 337 382 c 128,-1,50
 347 328 347 328 369.5 288 c 128,-1,51
 392 248 392 248 428.5 225 c 128,-1,52
 465 202 465 202 517 202 c 0,53,54
 568 202 568 202 604.5 225 c 128,-1,55
 641 248 641 248 663.5 288 c 128,-1,56
 686 328 686 328 696 382 c 128,-1,57
 706 436 706 436 706 497 c 2,58,-1
 706 518 l 2,59,60
 706 574 706 574 696 624.5 c 128,-1,61
 686 675 686 675 663.5 713.5 c 128,-1,62
 641 752 641 752 604 774.5 c 128,-1,63
 567 797 567 797 515 797 c 0,42,43
EndSplineSet
Validated: 1
EndChar

StartChar: uni0432
Encoding: 216 1074 216
Width: 1024
GlyphClass: 2
Flags: W
LayerCount: 2
Fore
SplineSet
115 0 m 1,0,-1
 115 1082 l 1,1,-1
 487 1082 l 2,2,3
 574 1082 574 1082 644.5 1063.5 c 128,-1,4
 715 1045 715 1045 764 1007.5 c 128,-1,5
 813 970 813 970 839.5 913 c 128,-1,6
 866 856 866 856 866 780 c 0,7,8
 866 705 866 705 825 645.5 c 128,-1,9
 784 586 784 586 706 554 c 1,10,11
 757 542 757 542 795.5 518 c 128,-1,12
 834 494 834 494 859.5 462 c 128,-1,13
 885 430 885 430 897.5 391 c 128,-1,14
 910 352 910 352 910 309 c 0,15,16
 910 232 910 232 885.5 174 c 128,-1,17
 861 116 861 116 814.5 77.5 c 128,-1,18
 768 39 768 39 700.5 19.5 c 128,-1,19
 633 0 633 0 545 0 c 2,20,-1
 115 0 l 1,0,-1
345 451 m 1,21,-1
 345 221 l 1,22,-1
 545 221 l 2,23,24
 615 221 615 221 647 250 c 128,-1,25
 679 279 679 279 679 335 c 0,26,27
 679 387 679 387 648.5 419 c 128,-1,28
 618 451 618 451 545 451 c 2,29,-1
 345 451 l 1,21,-1
345 640 m 1,30,-1
 500 640 l 2,31,32
 571 642 571 642 603 668 c 128,-1,33
 635 694 635 694 635 744 c 0,34,35
 635 805 635 805 598 832 c 128,-1,36
 561 859 561 859 487 859 c 2,37,-1
 345 859 l 1,38,-1
 345 640 l 1,30,-1
EndSplineSet
Validated: 1
EndChar

StartChar: uni0433
Encoding: 217 1075 217
Width: 1024
GlyphClass: 2
Flags: W
LayerCount: 2
Fore
SplineSet
892 856 m 1,0,-1
 349 856 l 1,1,-1
 349 0 l 1,2,-1
 119 0 l 1,3,-1
 119 1082 l 1,4,-1
 892 1082 l 1,5,-1
 892 856 l 1,0,-1
EndSplineSet
Validated: 1
EndChar

StartChar: uni0434
Encoding: 218 1076 218
Width: 1024
GlyphClass: 2
Flags: W
LayerCount: 2
Fore
SplineSet
120 224 m 1,0,1
 167 237 167 237 192.5 281.5 c 128,-1,2
 218 326 218 326 230.5 392 c 128,-1,3
 243 458 243 458 246 541 c 128,-1,4
 249 624 249 624 251 716 c 2,5,-1
 256 1082 l 1,6,-1
 908 1082 l 1,7,-1
 908 223 l 1,8,-1
 1036 223 l 1,9,-1
 1019 -324 l 1,10,-1
 805 -324 l 1,11,-1
 805 0 l 1,12,-1
 263 0 l 1,13,-1
 263 -324 l 1,14,-1
 45 -324 l 1,15,-1
 27 224 l 1,16,-1
 120 224 l 1,0,1
481 716 m 1,17,18
 474 564 474 564 460 440 c 128,-1,19
 446 316 446 316 414 223 c 1,20,-1
 677 223 l 1,21,-1
 677 849 l 1,22,-1
 483 849 l 1,23,-1
 481 716 l 1,17,18
EndSplineSet
Validated: 1
EndChar

StartChar: uni0436
Encoding: 220 1078 220
Width: 1024
GlyphClass: 2
Flags: W
LayerCount: 2
Fore
SplineSet
648 409 m 1,0,-1
 604 409 l 1,1,-1
 604 0 l 1,2,-1
 404 0 l 1,3,-1
 404 409 l 1,4,-1
 361 409 l 1,5,-1
 257 0 l 1,6,-1
 28 0 l 1,7,-1
 215 575 l 1,8,-1
 35 1082 l 1,9,-1
 267 1082 l 1,10,-1
 370 673 l 1,11,-1
 404 673 l 1,12,-1
 404 1082 l 1,13,-1
 604 1082 l 1,14,-1
 604 673 l 1,15,-1
 640 673 l 1,16,-1
 743 1082 l 1,17,-1
 976 1082 l 1,18,-1
 798 581 l 1,19,-1
 986 0 l 1,20,-1
 753 0 l 1,21,-1
 648 409 l 1,0,-1
EndSplineSet
Validated: 1
EndChar

StartChar: uni0437
Encoding: 221 1079 221
Width: 1024
GlyphClass: 2
Flags: W
LayerCount: 2
Fore
SplineSet
912 786 m 0,0,1
 912 714 912 714 870 653.5 c 128,-1,2
 828 593 828 593 754 557 c 1,3,4
 839 525 839 525 883.5 461.5 c 128,-1,5
 928 398 928 398 928 306 c 0,6,7
 928 229 928 229 896 168.5 c 128,-1,8
 864 108 864 108 807.5 66 c 128,-1,9
 751 24 751 24 673.5 2 c 128,-1,10
 596 -20 596 -20 504 -20 c 0,11,12
 428 -20 428 -20 354.5 0 c 128,-1,13
 281 20 281 20 223.5 61.5 c 128,-1,14
 166 103 166 103 130.5 167 c 128,-1,15
 95 231 95 231 95 320 c 1,16,-1
 325 320 l 1,17,18
 325 294 325 294 337.5 270.5 c 128,-1,19
 350 247 350 247 374 229 c 128,-1,20
 398 211 398 211 434 200 c 128,-1,21
 470 189 470 189 515 189 c 0,22,23
 561 189 561 189 595 200.5 c 128,-1,24
 629 212 629 212 652 231 c 128,-1,25
 675 250 675 250 686 274 c 128,-1,26
 697 298 697 298 697 324 c 0,27,28
 697 397 697 397 650 428.5 c 128,-1,29
 603 460 603 460 515 460 c 2,30,-1
 345 460 l 1,31,-1
 345 645 l 1,32,-1
 515 645 l 2,33,34
 601 645 601 645 641 678.5 c 128,-1,35
 681 712 681 712 681 765 c 0,36,37
 681 788 681 788 672 810.5 c 128,-1,38
 663 833 663 833 643 850.5 c 128,-1,39
 623 868 623 868 591 879 c 128,-1,40
 559 890 559 890 514 890 c 0,41,42
 477 890 477 890 445 882 c 128,-1,43
 413 874 413 874 389 858.5 c 128,-1,44
 365 843 365 843 352 821 c 128,-1,45
 339 799 339 799 339 771 c 1,46,-1
 109 771 l 1,47,48
 109 848 109 848 140 909.5 c 128,-1,49
 171 971 171 971 224.5 1013.5 c 128,-1,50
 278 1056 278 1056 350.5 1078.5 c 128,-1,51
 423 1101 423 1101 504 1101 c 0,52,53
 595 1101 595 1101 670.5 1080.5 c 128,-1,54
 746 1060 746 1060 799.5 1020.5 c 128,-1,55
 853 981 853 981 882.5 922 c 128,-1,56
 912 863 912 863 912 786 c 0,0,1
EndSplineSet
Validated: 1
EndChar

StartChar: uni0438
Encoding: 222 1080 222
Width: 1024
GlyphClass: 2
Flags: W
LayerCount: 2
Fore
SplineSet
669 1082 m 1,0,-1
 900 1082 l 1,1,-1
 900 0 l 1,2,-1
 669 0 l 1,3,-1
 669 690 l 1,4,-1
 331 0 l 1,5,-1
 100 0 l 1,6,-1
 100 1082 l 1,7,-1
 331 1082 l 1,8,-1
 331 392 l 1,9,-1
 669 1082 l 1,0,-1
EndSplineSet
Validated: 1
EndChar

StartChar: uni0439
Encoding: 223 1081 223
Width: 1024
GlyphClass: 2
Flags: W
LayerCount: 2
Fore
SplineSet
669 1082 m 1,0,-1
 900 1082 l 1,1,-1
 900 0 l 1,2,-1
 669 0 l 1,3,-1
 669 690 l 1,4,-1
 331 0 l 1,5,-1
 100 0 l 1,6,-1
 100 1082 l 1,7,-1
 331 1082 l 1,8,-1
 331 392 l 1,9,-1
 669 1082 l 1,0,-1
775 1526 m 1,10,11
 775 1461 775 1461 756 1407 c 0,12,13
 736 1352 736 1352 699 1314 c 128,-1,14
 662 1276 662 1276 610 1254 c 0,15,16
 558 1233 558 1233 493 1233 c 0,17,18
 427 1233 427 1233 375 1254.5 c 128,-1,19
 323 1276 323 1276 286 1314 c 128,-1,20
 249 1352 249 1352 230 1407 c 0,21,22
 210 1461 210 1461 210 1526 c 1,23,-1
 376 1526 l 1,24,25
 376 1500 376 1500 382 1476 c 128,-1,26
 388 1452 388 1452 403 1432 c 0,27,28
 417 1414 417 1414 439 1403 c 128,-1,29
 461 1392 461 1392 493 1392 c 128,-1,30
 525 1392 525 1392 547 1403 c 128,-1,31
 569 1414 569 1414 582 1432 c 0,32,33
 596 1450 596 1450 602 1476 c 0,34,35
 608 1500 608 1500 608 1526 c 1,36,-1
 775 1526 l 1,10,11
EndSplineSet
Validated: 1
EndChar

StartChar: uni043A
Encoding: 224 1082 224
Width: 1024
GlyphClass: 2
Flags: W
LayerCount: 2
Fore
SplineSet
476 405 m 1,0,-1
 341 405 l 1,1,-1
 341 0 l 1,2,-1
 110 0 l 1,3,-1
 110 1082 l 1,4,-1
 341 1082 l 1,5,-1
 341 668 l 1,6,-1
 461 668 l 1,7,-1
 702 1082 l 1,8,-1
 993 1082 l 1,9,-1
 663 561 l 1,10,-1
 1019 0 l 1,11,-1
 714 0 l 1,12,-1
 476 405 l 1,0,-1
EndSplineSet
Validated: 1
EndChar

StartChar: uni043B
Encoding: 225 1083 225
Width: 1024
GlyphClass: 2
Flags: W
LayerCount: 2
Fore
SplineSet
899 1082 m 1,0,-1
 899 0 l 1,1,-1
 667 0 l 1,2,-1
 667 856 l 1,3,-1
 423 856 l 1,4,-1
 423 621 l 2,5,6
 423 466 423 466 405.5 350 c 128,-1,7
 388 234 388 234 346.5 156 c 128,-1,8
 305 78 305 78 237.5 39 c 128,-1,9
 170 0 170 0 71 0 c 2,10,-1
 30 0 l 1,11,-1
 28 229 l 1,12,-1
 56 229 l 2,13,14
 100 229 100 229 127 250 c 128,-1,15
 154 271 154 271 168.5 318 c 128,-1,16
 183 365 183 365 188 440 c 0,17,18
 192 487 192 487 192 621 c 2,19,-1
 192 1082 l 1,20,-1
 899 1082 l 1,0,-1
EndSplineSet
Validated: 1
EndChar

StartChar: uni043C
Encoding: 226 1084 226
Width: 1024
GlyphClass: 2
Flags: W
LayerCount: 2
Fore
SplineSet
506 331 m 1,0,-1
 632 1082 l 1,1,-1
 921 1082 l 1,2,-1
 921 0 l 1,3,-1
 716 0 l 1,4,-1
 716 603 l 1,5,-1
 583 0 l 1,6,-1
 427 0 l 1,7,-1
 298 588 l 1,8,-1
 298 0 l 1,9,-1
 94 0 l 1,10,-1
 94 1082 l 1,11,-1
 381 1082 l 1,12,-1
 506 331 l 1,0,-1
EndSplineSet
Validated: 1
EndChar

StartChar: uni043D
Encoding: 227 1085 227
Width: 1024
GlyphClass: 2
Flags: W
LayerCount: 2
Fore
SplineSet
899 0 m 1,0,-1
 667 0 l 1,1,-1
 667 420 l 1,2,-1
 332 420 l 1,3,-1
 332 0 l 1,4,-1
 100 0 l 1,5,-1
 100 1082 l 1,6,-1
 332 1082 l 1,7,-1
 332 644 l 1,8,-1
 667 644 l 1,9,-1
 667 1082 l 1,10,-1
 899 1082 l 1,11,-1
 899 0 l 1,0,-1
EndSplineSet
Validated: 1
EndChar

StartChar: uni043F
Encoding: 229 1087 229
Width: 1024
GlyphClass: 2
Flags: W
LayerCount: 2
Fore
SplineSet
900 0 m 1,0,-1
 668 0 l 1,1,-1
 668 856 l 1,2,-1
 332 856 l 1,3,-1
 332 0 l 1,4,-1
 100 0 l 1,5,-1
 100 1082 l 1,6,-1
 900 1082 l 1,7,-1
 900 0 l 1,0,-1
EndSplineSet
Validated: 1
EndChar

StartChar: uni0441
Encoding: 231 1089 231
Width: 1024
GlyphClass: 2
Flags: W
LayerCount: 2
Fore
SplineSet
515 202 m 0,0,1
 549 202 549 202 579.5 214 c 128,-1,2
 610 226 610 226 633.5 248 c 128,-1,3
 657 270 657 270 669 301 c 128,-1,4
 681 332 681 332 681 370 c 1,5,-1
 898 370 l 1,6,7
 898 286 898 286 868.5 214 c 128,-1,8
 839 142 839 142 787 90 c 128,-1,9
 735 38 735 38 665.5 8.5 c 128,-1,10
 596 -21 596 -21 519 -21 c 0,11,12
 414 -21 414 -21 335 21.5 c 128,-1,13
 256 64 256 64 203.5 138 c 128,-1,14
 151 212 151 212 124 311.5 c 128,-1,15
 97 411 97 411 97 525 c 2,16,-1
 97 555 l 2,17,18
 97 669 97 669 123.5 768.5 c 128,-1,19
 150 868 150 868 203 942 c 128,-1,20
 256 1016 256 1016 334.5 1059 c 128,-1,21
 413 1102 413 1102 517 1102 c 0,22,23
 600 1102 600 1102 670.5 1072 c 128,-1,24
 741 1042 741 1042 792 987.5 c 128,-1,25
 843 933 843 933 870.5 855.5 c 128,-1,26
 898 778 898 778 898 682 c 1,27,-1
 681 682 l 1,28,29
 681 722 681 722 670 758 c 128,-1,30
 659 794 659 794 636.5 820 c 128,-1,31
 614 846 614 846 582.5 861.5 c 128,-1,32
 551 877 551 877 514 877 c 0,33,34
 459 877 459 877 423.5 850 c 128,-1,35
 388 823 388 823 366.5 778 c 128,-1,36
 345 733 345 733 336.5 675 c 128,-1,37
 328 617 328 617 328 555 c 2,38,-1
 328 525 l 2,39,40
 328 462 328 462 336 403.5 c 128,-1,41
 344 345 344 345 365.5 300.5 c 128,-1,42
 387 256 387 256 423 229 c 128,-1,43
 459 202 459 202 515 202 c 0,0,1
EndSplineSet
Validated: 1
EndChar

StartChar: uni0442
Encoding: 232 1090 232
Width: 1024
GlyphClass: 2
Flags: W
LayerCount: 2
Fore
SplineSet
998 859 m 1,0,-1
 652 859 l 1,1,-1
 652 0 l 1,2,-1
 420 0 l 1,3,-1
 420 859 l 1,4,-1
 77 859 l 1,5,-1
 77 1082 l 1,6,-1
 998 1082 l 1,7,-1
 998 859 l 1,0,-1
EndSplineSet
Validated: 1
EndChar

StartChar: uni0444
Encoding: 234 1092 234
Width: 1024
GlyphClass: 2
Flags: W
LayerCount: 2
Fore
SplineSet
46 551 m 2,0,1
 46 651 46 651 68.5 740 c 128,-1,2
 91 829 91 829 135.5 899.5 c 128,-1,3
 180 970 180 970 244.5 1018.5 c 128,-1,4
 309 1067 309 1067 392 1088 c 1,5,-1
 392 1536 l 1,6,-1
 625 1536 l 1,7,-1
 625 1088 l 1,8,9
 709 1068 709 1068 773.5 1019.5 c 128,-1,10
 838 971 838 971 882.5 900.5 c 128,-1,11
 927 830 927 830 950.5 741 c 128,-1,12
 974 652 974 652 974 551 c 2,13,-1
 974 530 l 2,14,15
 974 429 974 429 950.5 340 c 128,-1,16
 927 251 927 251 882.5 180.5 c 128,-1,17
 838 110 838 110 773 61.5 c 128,-1,18
 708 13 708 13 625 -7 c 1,19,-1
 625 -416 l 1,20,-1
 392 -416 l 1,21,-1
 392 -6 l 1,22,23
 309 15 309 15 244.5 63.5 c 128,-1,24
 180 112 180 112 135.5 182 c 128,-1,25
 91 252 91 252 68.5 340.5 c 128,-1,26
 46 429 46 429 46 530 c 2,27,-1
 46 551 l 2,0,1
755 551 m 2,28,29
 755 599 755 599 747.5 643.5 c 128,-1,30
 740 688 740 688 723.5 727 c 128,-1,31
 707 766 707 766 682.5 796.5 c 128,-1,32
 658 827 658 827 625 847 c 1,33,-1
 625 231 l 1,34,35
 658 250 658 250 682.5 281 c 128,-1,36
 707 312 707 312 723.5 351 c 128,-1,37
 740 390 740 390 747.5 435.5 c 128,-1,38
 755 481 755 481 755 530 c 2,39,-1
 755 551 l 2,28,29
266 530 m 2,40,41
 266 482 266 482 273 437 c 128,-1,42
 280 392 280 392 295 353 c 128,-1,43
 310 314 310 314 334.5 283.5 c 128,-1,44
 359 253 359 253 392 233 c 1,45,-1
 392 846 l 1,46,47
 359 826 359 826 335 795.5 c 128,-1,48
 311 765 311 765 296 726.5 c 128,-1,49
 281 688 281 688 273.5 643.5 c 128,-1,50
 266 599 266 599 266 551 c 2,51,-1
 266 530 l 2,40,41
EndSplineSet
Validated: 1
EndChar

StartChar: uni0446
Encoding: 236 1094 236
Width: 1024
GlyphClass: 2
Flags: W
LayerCount: 2
Fore
SplineSet
100 1082 m 1,0,-1
 332 1082 l 1,1,-1
 332 223 l 1,2,-1
 643 223 l 1,3,-1
 643 1082 l 1,4,-1
 875 1082 l 1,5,-1
 875 222 l 1,6,-1
 1006 222 l 1,7,-1
 989 -321 l 1,8,-1
 776 -321 l 1,9,-1
 776 0 l 1,10,-1
 100 0 l 1,11,-1
 100 1082 l 1,0,-1
EndSplineSet
Validated: 1
EndChar

StartChar: uni0447
Encoding: 237 1095 237
Width: 1024
GlyphClass: 2
Flags: W
LayerCount: 2
Fore
SplineSet
931 0 m 1,0,-1
 699 0 l 1,1,-1
 699 349 l 1,2,3
 656 339 656 339 610.5 333.5 c 128,-1,4
 565 328 565 328 523 328 c 0,5,6
 426 328 426 328 348 352.5 c 128,-1,7
 270 377 270 377 215.5 427.5 c 128,-1,8
 161 478 161 478 132 556 c 128,-1,9
 103 634 103 634 103 742 c 2,10,-1
 103 1082 l 1,11,-1
 334 1082 l 1,12,-1
 334 742 l 2,13,14
 334 688 334 688 345 651.5 c 128,-1,15
 356 615 356 615 379.5 593 c 128,-1,16
 403 571 403 571 438.5 561.5 c 128,-1,17
 474 552 474 552 523 552 c 0,18,19
 569 552 569 552 612.5 557.5 c 128,-1,20
 656 563 656 563 699 574 c 1,21,-1
 699 1082 l 1,22,-1
 931 1082 l 1,23,-1
 931 0 l 1,0,-1
EndSplineSet
Validated: 1
EndChar

StartChar: uni0448
Encoding: 238 1096 238
Width: 1024
GlyphClass: 2
Flags: W
LayerCount: 2
Fore
SplineSet
293 1082 m 1,0,-1
 293 223 l 1,1,-1
 403 223 l 1,2,-1
 403 1082 l 1,3,-1
 621 1082 l 1,4,-1
 621 223 l 1,5,-1
 731 223 l 1,6,-1
 731 1082 l 1,7,-1
 955 1082 l 1,8,-1
 955 0 l 1,9,-1
 69 0 l 1,10,-1
 69 1082 l 1,11,-1
 293 1082 l 1,0,-1
EndSplineSet
Validated: 1
EndChar

StartChar: uni0449
Encoding: 239 1097 239
Width: 1024
GlyphClass: 2
Flags: W
LayerCount: 2
Fore
SplineSet
290 1082 m 1,0,-1
 290 223 l 1,1,-1
 400 223 l 1,2,-1
 400 1082 l 1,3,-1
 618 1082 l 1,4,-1
 618 223 l 1,5,-1
 728 223 l 1,6,-1
 728 1082 l 1,7,-1
 952 1082 l 1,8,-1
 952 222 l 1,9,-1
 1045 222 l 1,10,-1
 1028 -321 l 1,11,-1
 842 -321 l 1,12,-1
 842 0 l 1,13,-1
 66 0 l 1,14,-1
 66 1082 l 1,15,-1
 290 1082 l 1,0,-1
EndSplineSet
Validated: 1
EndChar

StartChar: uni044A
Encoding: 240 1098 240
Width: 1024
GlyphClass: 2
Flags: W
LayerCount: 2
Fore
SplineSet
498 689 m 1,0,-1
 613 689 l 2,1,2
 701 689 701 689 769.5 664 c 128,-1,3
 838 639 838 639 884 594.5 c 128,-1,4
 930 550 930 550 953.5 489.5 c 128,-1,5
 977 429 977 429 977 357 c 0,6,7
 977 282 977 282 953.5 217 c 128,-1,8
 930 152 930 152 884 104 c 128,-1,9
 838 56 838 56 769.5 28 c 128,-1,10
 701 0 701 0 613 0 c 2,11,-1
 265 0 l 1,12,-1
 265 865 l 1,13,-1
 46 865 l 1,14,-1
 46 1082 l 1,15,-1
 498 1082 l 1,16,-1
 498 689 l 1,0,-1
498 472 m 1,17,-1
 498 216 l 1,18,-1
 613 216 l 2,19,20
 649 216 649 216 674 228 c 128,-1,21
 699 240 699 240 714.5 259 c 128,-1,22
 730 278 730 278 736.5 301.5 c 128,-1,23
 743 325 743 325 743 349 c 0,24,25
 743 370 743 370 736.5 391.5 c 128,-1,26
 730 413 730 413 714.5 431 c 128,-1,27
 699 449 699 449 674 460.5 c 128,-1,28
 649 472 649 472 613 472 c 2,29,-1
 498 472 l 1,17,-1
EndSplineSet
Validated: 1
EndChar

StartChar: uni044B
Encoding: 241 1099 241
Width: 1024
GlyphClass: 2
Flags: W
LayerCount: 2
Fore
SplineSet
302 697 m 1,0,-1
 336 697 l 2,1,2
 417 697 417 697 477 670.5 c 128,-1,3
 537 644 537 644 576.5 598.5 c 128,-1,4
 616 553 616 553 635 491 c 128,-1,5
 654 429 654 429 654 357 c 0,6,7
 654 282 654 282 635 217 c 128,-1,8
 616 152 616 152 576.5 104 c 128,-1,9
 537 56 537 56 477.5 28 c 128,-1,10
 418 0 418 0 336 0 c 2,11,-1
 82 0 l 1,12,-1
 82 1082 l 1,13,-1
 302 1082 l 1,14,-1
 302 697 l 1,0,-1
953 0 m 1,15,-1
 720 0 l 1,16,-1
 720 1082 l 1,17,-1
 953 1082 l 1,18,-1
 953 0 l 1,15,-1
302 504 m 1,19,-1
 302 216 l 1,20,-1
 336 216 l 2,21,22
 374 216 374 216 396 228 c 128,-1,23
 418 240 418 240 429.5 259 c 128,-1,24
 441 278 441 278 444 301.5 c 128,-1,25
 447 325 447 325 447 349 c 0,26,27
 447 375 447 375 444 402.5 c 128,-1,28
 441 430 441 430 429.5 452.5 c 128,-1,29
 418 475 418 475 396 489.5 c 128,-1,30
 374 504 374 504 336 504 c 2,31,-1
 302 504 l 1,19,-1
EndSplineSet
Validated: 1
EndChar

StartChar: uni044C
Encoding: 242 1100 242
Width: 1024
GlyphClass: 2
Flags: W
LayerCount: 2
Fore
SplineSet
345 718 m 1,0,-1
 572 718 l 2,1,2
 662 718 662 718 733.5 691.5 c 128,-1,3
 805 665 805 665 853.5 617.5 c 128,-1,4
 902 570 902 570 928 503.5 c 128,-1,5
 954 437 954 437 954 357 c 0,6,7
 954 280 954 280 928 214.5 c 128,-1,8
 902 149 902 149 853.5 101.5 c 128,-1,9
 805 54 805 54 733.5 27 c 128,-1,10
 662 0 662 0 572 0 c 2,11,-1
 115 0 l 1,12,-1
 115 1082 l 1,13,-1
 345 1082 l 1,14,-1
 345 718 l 1,0,-1
345 495 m 1,15,-1
 345 222 l 1,16,-1
 572 222 l 2,17,18
 613 222 613 222 641.5 233 c 128,-1,19
 670 244 670 244 688 262.5 c 128,-1,20
 706 281 706 281 714.5 305 c 128,-1,21
 723 329 723 329 723 356 c 0,22,23
 723 384 723 384 714.5 409.5 c 128,-1,24
 706 435 706 435 688 454 c 128,-1,25
 670 473 670 473 641.5 484 c 128,-1,26
 613 495 613 495 572 495 c 2,27,-1
 345 495 l 1,15,-1
EndSplineSet
Validated: 1
EndChar

StartChar: uni044D
Encoding: 243 1101 243
Width: 1024
GlyphClass: 2
Flags: W
LayerCount: 2
Fore
SplineSet
487 877 m 0,0,1
 449 877 449 877 416 865 c 128,-1,2
 383 853 383 853 359.5 831.5 c 128,-1,3
 336 810 336 810 322.5 779 c 128,-1,4
 309 748 309 748 309 711 c 1,5,-1
 92 711 l 1,6,7
 92 795 92 795 123 866.5 c 128,-1,8
 154 938 154 938 207.5 990.5 c 128,-1,9
 261 1043 261 1043 333.5 1072.5 c 128,-1,10
 406 1102 406 1102 487 1102 c 0,11,12
 597 1102 597 1102 678.5 1059 c 128,-1,13
 760 1016 760 1016 813.5 942 c 128,-1,14
 867 868 867 868 893.5 768.5 c 128,-1,15
 920 669 920 669 920 555 c 2,16,-1
 920 525 l 2,17,18
 920 411 920 411 893.5 311.5 c 128,-1,19
 867 212 867 212 813.5 138.5 c 128,-1,20
 760 65 760 65 679 22.5 c 128,-1,21
 598 -20 598 -20 488 -20 c 0,22,23
 400 -20 400 -20 327.5 9.5 c 128,-1,24
 255 39 255 39 202.5 93.5 c 128,-1,25
 150 148 150 148 121 225 c 128,-1,26
 92 302 92 302 92 398 c 1,27,-1
 309 398 l 1,28,29
 309 357 309 357 321.5 321.5 c 128,-1,30
 334 286 334 286 357 260 c 128,-1,31
 380 234 380 234 413.5 218.5 c 128,-1,32
 447 203 447 203 488 203 c 0,33,34
 540 203 540 203 576.5 223.5 c 128,-1,35
 613 244 613 244 635.5 279 c 128,-1,36
 658 314 658 314 669.5 360 c 128,-1,37
 681 406 681 406 686 458 c 1,38,-1
 418 458 l 1,39,-1
 418 632 l 1,40,-1
 685 632 l 1,41,42
 681 683 681 683 669 727.5 c 128,-1,43
 657 772 657 772 634 805 c 128,-1,44
 611 838 611 838 575 857.5 c 128,-1,45
 539 877 539 877 487 877 c 0,0,1
EndSplineSet
Validated: 1
EndChar

StartChar: uni044E
Encoding: 244 1102 244
Width: 1024
GlyphClass: 2
Flags: W
LayerCount: 2
Fore
SplineSet
285 629 m 1,0,-1
 354 629 l 1,1,2
 356 731 356 731 377 817.5 c 128,-1,3
 398 904 398 904 437 967 c 128,-1,4
 476 1030 476 1030 534 1066 c 128,-1,5
 592 1102 592 1102 668 1102 c 0,6,7
 748 1102 748 1102 807.5 1063.5 c 128,-1,8
 867 1025 867 1025 906.5 957.5 c 128,-1,9
 946 890 946 890 965.5 798 c 128,-1,10
 985 706 985 706 985 599 c 2,11,-1
 985 481 l 2,12,13
 985 374 985 374 965.5 282 c 128,-1,14
 946 190 946 190 906.5 122.5 c 128,-1,15
 867 55 867 55 808.5 17 c 128,-1,16
 750 -21 750 -21 670 -21 c 0,17,18
 591 -21 591 -21 532.5 13.5 c 128,-1,19
 474 48 474 48 434.5 108.5 c 128,-1,20
 395 169 395 169 374.5 251 c 128,-1,21
 354 333 354 333 354 428 c 1,22,-1
 285 428 l 1,23,-1
 285 0 l 1,24,-1
 45 0 l 1,25,-1
 45 1082 l 1,26,-1
 285 1082 l 1,27,-1
 285 629 l 1,0,-1
573 481 m 2,28,29
 573 425 573 425 577.5 373.5 c 128,-1,30
 582 322 582 322 592.5 282 c 128,-1,31
 603 242 603 242 622 218.5 c 128,-1,32
 641 195 641 195 670 195 c 0,33,34
 698 195 698 195 716.5 218.5 c 128,-1,35
 735 242 735 242 746 282 c 128,-1,36
 757 322 757 322 761 373.5 c 128,-1,37
 765 425 765 425 765 481 c 2,38,-1
 765 599 l 2,39,40
 765 654 765 654 760.5 705.5 c 128,-1,41
 756 757 756 757 745.5 797 c 128,-1,42
 735 837 735 837 715.5 861 c 128,-1,43
 696 885 696 885 668 885 c 256,44,45
 640 885 640 885 621.5 861 c 128,-1,46
 603 837 603 837 592 797 c 128,-1,47
 581 757 581 757 577 705.5 c 128,-1,48
 573 654 573 654 573 599 c 2,49,-1
 573 481 l 2,28,29
EndSplineSet
Validated: 1
EndChar

StartChar: uni044F
Encoding: 245 1103 245
Width: 1024
GlyphClass: 2
Flags: W
LayerCount: 2
Fore
SplineSet
917 1082 m 1,0,-1
 917 0 l 1,1,-1
 686 0 l 1,2,-1
 686 379 l 1,3,-1
 477 379 l 1,4,-1
 300 0 l 1,5,-1
 64 0 l 1,6,-1
 263 426 l 1,7,8
 182 470 182 470 138.5 547 c 128,-1,9
 95 624 95 624 95 723 c 0,10,11
 95 801 95 801 121 866.5 c 128,-1,12
 147 932 147 932 196 980 c 128,-1,13
 245 1028 245 1028 315 1055 c 128,-1,14
 385 1082 385 1082 474 1082 c 2,15,-1
 917 1082 l 1,0,-1
325 715 m 0,16,17
 325 690 325 690 334 665 c 128,-1,18
 343 640 343 640 360.5 620 c 128,-1,19
 378 600 378 600 404.5 587.5 c 128,-1,20
 431 575 431 575 467 575 c 2,21,-1
 686 575 l 1,22,-1
 686 859 l 1,23,-1
 474 859 l 2,24,25
 436 859 436 859 408 846 c 128,-1,26
 380 833 380 833 362 812.5 c 128,-1,27
 344 792 344 792 334.5 766.5 c 128,-1,28
 325 741 325 741 325 715 c 0,16,17
EndSplineSet
Validated: 1
EndChar

StartChar: uni2010
Encoding: 258 8208 258
Width: 1024
GlyphClass: 2
Flags: W
LayerCount: 2
Fore
SplineSet
792 552 m 1,0,-1
 232 552 l 1,1,-1
 232 728 l 1,2,-1
 792 728 l 1,3,-1
 792 552 l 1,0,-1
EndSplineSet
Validated: 1
EndChar

StartChar: figuredash
Encoding: 259 8210 259
Width: 1024
GlyphClass: 2
Flags: W
LayerCount: 2
Fore
SplineSet
792 552 m 1,0,-1
 232 552 l 1,1,-1
 232 728 l 1,2,-1
 792 728 l 1,3,-1
 792 552 l 1,0,-1
EndSplineSet
Validated: 1
EndChar

StartChar: endash
Encoding: 260 8211 260
Width: 1024
GlyphClass: 2
Flags: W
LayerCount: 2
Fore
SplineSet
896 552 m 1,0,-1
 128 552 l 1,1,-1
 128 728 l 1,2,-1
 896 728 l 1,3,-1
 896 552 l 1,0,-1
EndSplineSet
Validated: 1
EndChar

StartChar: emdash
Encoding: 261 8212 261
Width: 1024
GlyphClass: 2
Flags: W
LayerCount: 2
Fore
SplineSet
960 552 m 1,0,-1
 64 552 l 1,1,-1
 64 728 l 1,2,-1
 960 728 l 1,3,-1
 960 552 l 1,0,-1
EndSplineSet
Validated: 1
EndChar

StartChar: uni2015
Encoding: 262 8213 262
Width: 1024
GlyphClass: 2
Flags: W
LayerCount: 2
Fore
SplineSet
1024 552 m 1,0,-1
 0 552 l 1,1,-1
 0 728 l 1,2,-1
 1024 728 l 1,3,-1
 1024 552 l 1,0,-1
EndSplineSet
Validated: 1
EndChar

StartChar: uni2016
Encoding: 263 8214 263
Width: 1024
GlyphClass: 2
Flags: W
LayerCount: 2
Fore
SplineSet
752 -128 m 1,0,-1
 592 -128 l 1,1,-1
 592 1536 l 1,2,-1
 752 1536 l 1,3,-1
 752 -128 l 1,0,-1
432 -128 m 1,4,-1
 272 -128 l 1,5,-1
 272 1536 l 1,6,-1
 432 1536 l 1,7,-1
 432 -128 l 1,4,-1
EndSplineSet
Validated: 1
EndChar

StartChar: underscoredbl
Encoding: 264 8215 264
Width: 1024
GlyphClass: 2
Flags: W
LayerCount: 2
Fore
SplineSet
64 -432 m 1,0,-1
 64 -256 l 1,1,-1
 960 -256 l 1,2,-1
 960 -432 l 1,3,-1
 64 -432 l 1,0,-1
64 -176 m 1,4,-1
 64 0 l 1,5,-1
 960 0 l 1,6,-1
 960 -176 l 1,7,-1
 64 -176 l 1,4,-1
EndSplineSet
Validated: 1
EndChar

StartChar: quoteleft
Encoding: 265 8216 265
Width: 1024
GlyphClass: 2
Flags: W
LayerCount: 2
Fore
SplineSet
645 1088 m 1,0,-1
 379 1088 l 1,1,-1
 379 1214 l 2,2,3
 379 1472 379 1472 571 1664 c 1,4,-1
 736 1568 l 1,5,6
 645 1477 645 1477 645 1214 c 2,7,-1
 645 1088 l 1,0,-1
EndSplineSet
Validated: 1
EndChar

StartChar: quoteright
Encoding: 266 8217 266
Width: 1024
GlyphClass: 2
Flags: W
LayerCount: 2
Fore
SplineSet
379 1664 m 1,0,-1
 645 1664 l 1,1,-1
 645 1538 l 2,2,3
 645 1280 645 1280 453 1088 c 1,4,-1
 288 1184 l 1,5,6
 379 1275 379 1275 379 1538 c 2,7,-1
 379 1664 l 1,0,-1
EndSplineSet
Validated: 1
EndChar

StartChar: quotesinglbase
Encoding: 267 8218 267
Width: 1024
GlyphClass: 2
Flags: W
LayerCount: 2
Fore
SplineSet
379 252 m 1,0,-1
 645 252 l 1,1,-1
 645 126 l 2,2,3
 645 -132 645 -132 453 -324 c 1,4,-1
 288 -228 l 1,5,6
 379 -137 379 -137 379 126 c 2,7,-1
 379 252 l 1,0,-1
EndSplineSet
Validated: 1
EndChar

StartChar: quotereversed
Encoding: 268 8219 268
Width: 1024
GlyphClass: 2
Flags: W
LayerCount: 2
Fore
SplineSet
645 1664 m 1,0,-1
 645 1538 l 2,1,2
 645 1275 645 1275 736 1184 c 1,3,-1
 571 1088 l 1,4,5
 379 1280 379 1280 379 1538 c 2,6,-1
 379 1664 l 1,7,-1
 645 1664 l 1,0,-1
EndSplineSet
Validated: 1
EndChar

StartChar: quotedblleft
Encoding: 269 8220 269
Width: 1024
GlyphClass: 2
Flags: W
LayerCount: 2
Fore
SplineSet
837 1088 m 1,0,-1
 571 1088 l 1,1,-1
 571 1214 l 2,2,3
 571 1472 571 1472 763 1664 c 1,4,-1
 928 1568 l 1,5,6
 837 1477 837 1477 837 1214 c 2,7,-1
 837 1088 l 1,0,-1
452 1088 m 1,8,-1
 186 1088 l 1,9,-1
 186 1214 l 2,10,11
 186 1472 186 1472 378 1664 c 1,12,-1
 543 1568 l 1,13,14
 452 1477 452 1477 452 1214 c 2,15,-1
 452 1088 l 1,8,-1
EndSplineSet
Validated: 1
EndChar

StartChar: quotedblright
Encoding: 270 8221 270
Width: 1024
GlyphClass: 2
Flags: W
LayerCount: 2
Fore
SplineSet
187 1664 m 1,0,-1
 453 1664 l 1,1,-1
 453 1538 l 2,2,3
 453 1280 453 1280 261 1088 c 1,4,-1
 96 1184 l 1,5,6
 187 1275 187 1275 187 1538 c 2,7,-1
 187 1664 l 1,0,-1
572 1664 m 1,8,-1
 838 1664 l 1,9,-1
 838 1538 l 2,10,11
 838 1280 838 1280 646 1088 c 1,12,-1
 481 1184 l 1,13,14
 572 1275 572 1275 572 1538 c 2,15,-1
 572 1664 l 1,8,-1
EndSplineSet
Validated: 1
EndChar

StartChar: quotedblbase
Encoding: 271 8222 271
Width: 1024
GlyphClass: 2
Flags: W
LayerCount: 2
Fore
SplineSet
187 252 m 1,0,-1
 453 252 l 1,1,-1
 453 126 l 2,2,3
 453 -132 453 -132 261 -324 c 1,4,-1
 96 -228 l 1,5,6
 187 -137 187 -137 187 126 c 2,7,-1
 187 252 l 1,0,-1
572 252 m 1,8,-1
 838 252 l 1,9,-1
 838 126 l 2,10,11
 838 -132 838 -132 646 -324 c 1,12,-1
 481 -228 l 1,13,14
 572 -137 572 -137 572 126 c 2,15,-1
 572 252 l 1,8,-1
EndSplineSet
Validated: 1
EndChar

StartChar: uni201F
Encoding: 272 8223 272
Width: 1024
GlyphClass: 2
Flags: W
LayerCount: 2
Fore
SplineSet
453 1664 m 1,0,-1
 453 1538 l 2,1,2
 453 1275 453 1275 544 1184 c 1,3,-1
 379 1088 l 1,4,5
 187 1280 187 1280 187 1538 c 2,6,-1
 187 1664 l 1,7,-1
 453 1664 l 1,0,-1
837 1664 m 1,8,-1
 837 1538 l 2,9,10
 837 1275 837 1275 928 1184 c 1,11,-1
 763 1088 l 1,12,13
 571 1280 571 1280 571 1538 c 2,14,-1
 571 1664 l 1,15,-1
 837 1664 l 1,8,-1
EndSplineSet
Validated: 1
EndChar

StartChar: dagger
Encoding: 273 8224 273
Width: 1024
GlyphClass: 2
Flags: W
LayerCount: 2
Fore
SplineSet
416 1632 m 1,0,-1
 448 1664 l 1,1,-1
 576 1664 l 1,2,-1
 608 1632 l 1,3,-1
 608 1392 l 1,4,-1
 848 1392 l 1,5,-1
 848 1296 l 1,6,-1
 608 1296 l 1,7,-1
 608 704 l 1,8,-1
 512 608 l 1,9,-1
 416 704 l 1,10,-1
 416 1296 l 1,11,-1
 160 1296 l 1,12,-1
 160 1392 l 1,13,-1
 416 1392 l 1,14,-1
 416 1632 l 1,0,-1
EndSplineSet
Validated: 1
EndChar

StartChar: daggerdbl
Encoding: 274 8225 274
Width: 1024
GlyphClass: 2
Flags: W
LayerCount: 2
Fore
SplineSet
416 1632 m 1,0,-1
 448 1664 l 1,1,-1
 576 1664 l 1,2,-1
 608 1632 l 1,3,-1
 608 1392 l 1,4,-1
 848 1392 l 1,5,-1
 848 1296 l 1,6,-1
 608 1296 l 1,7,-1
 608 880 l 1,8,-1
 848 880 l 1,9,-1
 848 784 l 1,10,-1
 608 784 l 1,11,-1
 608 192 l 1,12,-1
 512 96 l 1,13,-1
 416 192 l 1,14,-1
 416 784 l 1,15,-1
 160 784 l 1,16,-1
 160 880 l 1,17,-1
 416 880 l 1,18,-1
 416 1296 l 1,19,-1
 160 1296 l 1,20,-1
 160 1392 l 1,21,-1
 416 1392 l 1,22,-1
 416 1632 l 1,0,-1
EndSplineSet
Validated: 1
EndChar

StartChar: bullet
Encoding: 275 8226 275
Width: 1024
GlyphClass: 2
Flags: W
LayerCount: 2
Fore
SplineSet
256 710 m 128,-1,1
 256 816 256 816 331 891 c 128,-1,2
 406 966 406 966 512 966 c 128,-1,3
 618 966 618 966 693 891 c 128,-1,4
 768 816 768 816 768 710 c 128,-1,5
 768 604 768 604 693 529 c 128,-1,6
 618 454 618 454 512 454 c 128,-1,7
 406 454 406 454 331 529 c 128,-1,0
 256 604 256 604 256 710 c 128,-1,1
EndSplineSet
Validated: 1
EndChar

StartChar: uni2023
Encoding: 276 8227 276
Width: 1024
GlyphClass: 2
Flags: W
LayerCount: 2
Fore
SplineSet
313 1055 m 1,0,-1
 910 710 l 1,1,-1
 313 365 l 1,2,-1
 313 1055 l 1,0,-1
EndSplineSet
Validated: 1
EndChar

StartChar: onedotenleader
Encoding: 277 8228 277
Width: 1024
GlyphClass: 2
Flags: W
LayerCount: 2
Fore
SplineSet
392 -20 m 1,0,-1
 392 220 l 1,1,-1
 632 220 l 1,2,-1
 632 -20 l 1,3,-1
 392 -20 l 1,0,-1
EndSplineSet
Validated: 1
EndChar

StartChar: twodotenleader
Encoding: 278 8229 278
Width: 1024
GlyphClass: 2
Flags: W
LayerCount: 2
Fore
SplineSet
648 -20 m 1,0,-1
 648 220 l 1,1,-1
 888 220 l 1,2,-1
 888 -20 l 1,3,-1
 648 -20 l 1,0,-1
136 -20 m 1,4,-1
 136 220 l 1,5,-1
 376 220 l 1,6,-1
 376 -20 l 1,7,-1
 136 -20 l 1,4,-1
EndSplineSet
Validated: 1
EndChar

StartChar: ellipsis
Encoding: 279 8230 279
Width: 1024
GlyphClass: 2
Flags: W
LayerCount: 2
Fore
SplineSet
733 -20 m 1,0,-1
 733 220 l 1,1,-1
 973 220 l 1,2,-1
 973 -20 l 1,3,-1
 733 -20 l 1,0,-1
392 -20 m 1,4,-1
 392 220 l 1,5,-1
 632 220 l 1,6,-1
 632 -20 l 1,7,-1
 392 -20 l 1,4,-1
51 -20 m 1,8,-1
 51 220 l 1,9,-1
 291 220 l 1,10,-1
 291 -20 l 1,11,-1
 51 -20 l 1,8,-1
EndSplineSet
Validated: 1
EndChar

StartChar: uni2027
Encoding: 280 8231 280
Width: 1024
GlyphClass: 2
Flags: W
LayerCount: 2
Fore
SplineSet
384 704 m 128,-1,1
 384 756 384 756 422 794 c 128,-1,2
 460 832 460 832 512 832 c 128,-1,3
 564 832 564 832 602 794 c 128,-1,4
 640 756 640 756 640 704 c 128,-1,5
 640 652 640 652 602 614 c 128,-1,6
 564 576 564 576 512 576 c 128,-1,7
 460 576 460 576 422 614 c 128,-1,0
 384 652 384 652 384 704 c 128,-1,1
EndSplineSet
Validated: 1
EndChar

StartChar: perthousand
Encoding: 281 8240 281
Width: 1024
GlyphClass: 2
Flags: W
LayerCount: 2
Fore
SplineSet
784 260 m 2,0,1
 784 250 784 250 784.5 240.5 c 128,-1,2
 785 231 785 231 786 222 c 128,-1,3
 787 213 787 213 788 204 c 0,4,5
 792 178 792 178 801 158 c 0,6,7
 808 141 808 141 819 131 c 0,8,9
 828 123 828 123 842 123 c 0,10,11
 855 123 855 123 863 130 c 0,12,13
 874 140 874 140 881 158 c 0,14,15
 884 164 884 164 886.5 171.5 c 128,-1,16
 889 179 889 179 890.5 187 c 128,-1,17
 892 195 892 195 894 204 c 0,18,19
 896 218 896 218 897 231.5 c 128,-1,20
 898 245 898 245 898 260 c 2,21,-1
 898 338 l 2,22,23
 898 367 898 367 894 394 c 0,24,25
 890 420 890 420 881 440 c 0,26,27
 879 445 879 445 877 449 c 128,-1,28
 875 453 875 453 872.5 456 c 128,-1,29
 870 459 870 459 867.5 462 c 128,-1,30
 865 465 865 465 863 467 c 0,31,32
 854 475 854 475 841 475 c 0,33,34
 827 475 827 475 819 468 c 0,35,36
 814 463 814 463 809 456 c 128,-1,37
 804 449 804 449 800 440 c 0,38,39
 791 421 791 421 788 395 c 0,40,41
 784 368 784 368 784 338 c 2,42,-1
 784 260 l 2,0,1
125 1117 m 2,43,44
 125 1088 125 1088 129 1061 c 0,45,46
 131 1048 131 1048 134.5 1037 c 128,-1,47
 138 1026 138 1026 142 1016 c 0,48,49
 150 998 150 998 161 988 c 0,50,51
 169 981 169 981 183 981 c 0,52,53
 196 981 196 981 204 988 c 0,54,55
 215 998 215 998 222 1016 c 0,56,57
 226 1026 226 1026 229.5 1037 c 128,-1,58
 233 1048 233 1048 235 1061 c 128,-1,59
 237 1074 237 1074 238 1088 c 128,-1,60
 239 1102 239 1102 239 1117 c 2,61,-1
 239 1194 l 2,62,63
 239 1223 239 1223 235 1251 c 0,64,65
 233 1264 233 1264 229.5 1275.5 c 128,-1,66
 226 1287 226 1287 222 1297 c 0,67,68
 218 1306 218 1306 213.5 1313 c 128,-1,69
 209 1320 209 1320 204 1324 c 0,70,71
 195 1332 195 1332 181 1332 c 0,72,73
 176 1332 176 1332 172.5 1331 c 128,-1,74
 169 1330 169 1330 166 1328.5 c 128,-1,75
 163 1327 163 1327 161 1325 c 0,76,77
 150 1315 150 1315 142 1297 c 0,78,79
 133 1277 133 1277 129 1251 c 0,80,81
 125 1223 125 1223 125 1194 c 2,82,-1
 125 1117 l 2,43,44
418 260 m 2,83,84
 418 250 418 250 418.5 240.5 c 128,-1,85
 419 231 419 231 420 222 c 128,-1,86
 421 213 421 213 422 204 c 0,87,88
 426 178 426 178 435 158 c 0,89,90
 442 141 442 141 453 131 c 0,91,92
 457 127 457 127 462.5 125 c 128,-1,93
 468 123 468 123 476 123 c 0,94,95
 489 123 489 123 497 130 c 0,96,97
 508 140 508 140 515 158 c 0,98,99
 517 162 517 162 518.5 166 c 128,-1,100
 520 170 520 170 521.5 174.5 c 128,-1,101
 523 179 523 179 524 183.5 c 128,-1,102
 525 188 525 188 526 193 c 128,-1,103
 527 198 527 198 528 204 c 0,104,105
 530 218 530 218 531 231.5 c 128,-1,106
 532 245 532 245 532 260 c 2,107,-1
 532 338 l 2,108,109
 532 367 532 367 528 394 c 0,110,111
 524 420 524 420 515 440 c 0,112,113
 512 446 512 446 509.5 451 c 128,-1,114
 507 456 507 456 503.5 460 c 128,-1,115
 500 464 500 464 497 467 c 0,116,117
 492 471 492 471 487 473 c 128,-1,118
 482 475 482 475 475 475 c 0,119,120
 461 475 461 475 453 468 c 0,121,122
 442 458 442 458 434 440 c 0,123,124
 425 421 425 421 422 395 c 0,125,126
 418 368 418 368 418 338 c 2,127,-1
 418 260 l 2,83,84
674 338 m 2,128,129
 674 394 674 394 685 445.5 c 128,-1,130
 696 497 696 497 717 536 c 128,-1,131
 738 575 738 575 769 597.5 c 128,-1,132
 800 620 800 620 841 620 c 128,-1,133
 882 620 882 620 913 597.5 c 128,-1,134
 944 575 944 575 965 536 c 128,-1,135
 986 497 986 497 997 445.5 c 128,-1,136
 1008 394 1008 394 1008 338 c 2,137,-1
 1008 260 l 2,138,139
 1008 203 1008 203 997 152 c 128,-1,140
 986 101 986 101 965 62.5 c 128,-1,141
 944 24 944 24 913 1.5 c 128,-1,142
 882 -21 882 -21 842 -21 c 0,143,144
 800 -21 800 -21 769 1.5 c 128,-1,145
 738 24 738 24 717 62.5 c 128,-1,146
 696 101 696 101 685 152.5 c 128,-1,147
 674 204 674 204 674 260 c 2,148,-1
 674 338 l 2,128,129
16 1194 m 2,149,150
 16 1251 16 1251 26.5 1302.5 c 128,-1,151
 37 1354 37 1354 58 1393 c 128,-1,152
 79 1432 79 1432 110 1454.5 c 128,-1,153
 141 1477 141 1477 181 1477 c 0,154,155
 222 1477 222 1477 254 1454.5 c 128,-1,156
 286 1432 286 1432 307 1393 c 128,-1,157
 328 1354 328 1354 338.5 1302.5 c 128,-1,158
 349 1251 349 1251 349 1194 c 2,159,-1
 349 1117 l 2,160,161
 349 1060 349 1060 338.5 1009 c 128,-1,162
 328 958 328 958 307 919.5 c 128,-1,163
 286 881 286 881 254.5 858.5 c 128,-1,164
 223 836 223 836 183 836 c 256,165,166
 143 836 143 836 111 858.5 c 128,-1,167
 79 881 79 881 58 919.5 c 128,-1,168
 37 958 37 958 26.5 1009 c 128,-1,169
 16 1060 16 1060 16 1117 c 2,170,-1
 16 1194 l 2,149,150
308 338 m 2,171,172
 308 394 308 394 319 445.5 c 128,-1,173
 330 497 330 497 351 536 c 128,-1,174
 372 575 372 575 403 597.5 c 128,-1,175
 434 620 434 620 475 620 c 128,-1,176
 516 620 516 620 547 597.5 c 128,-1,177
 578 575 578 575 599 536 c 128,-1,178
 620 497 620 497 631 445.5 c 128,-1,179
 642 394 642 394 642 338 c 2,180,-1
 642 260 l 2,181,182
 642 203 642 203 631 152 c 128,-1,183
 620 101 620 101 599 62.5 c 128,-1,184
 578 24 578 24 547 1.5 c 128,-1,185
 516 -21 516 -21 476 -21 c 0,186,187
 434 -21 434 -21 403 1.5 c 128,-1,188
 372 24 372 24 351 62.5 c 128,-1,189
 330 101 330 101 319 152.5 c 128,-1,190
 308 204 308 204 308 260 c 2,191,-1
 308 338 l 2,171,172
110 0 m 1,192,-1
 4 0 l 1,193,-1
 554 1456 l 1,194,-1
 660 1456 l 1,195,-1
 110 0 l 1,192,-1
EndSplineSet
Validated: 1
EndChar

StartChar: minute
Encoding: 282 8242 282
Width: 1024
GlyphClass: 2
Flags: W
LayerCount: 2
Fore
SplineSet
464 1600 m 1,0,-1
 680 1536 l 1,1,-1
 456 1088 l 1,2,-1
 312 1136 l 1,3,-1
 464 1600 l 1,0,-1
EndSplineSet
Validated: 1
EndChar

StartChar: second
Encoding: 283 8243 283
Width: 1024
GlyphClass: 2
Flags: W
LayerCount: 2
Fore
SplineSet
656 1600 m 1,0,-1
 872 1536 l 1,1,-1
 648 1088 l 1,2,-1
 504 1136 l 1,3,-1
 656 1600 l 1,0,-1
272 1600 m 1,4,-1
 488 1536 l 1,5,-1
 264 1088 l 1,6,-1
 120 1136 l 1,7,-1
 272 1600 l 1,4,-1
EndSplineSet
Validated: 1
EndChar

StartChar: uni2034
Encoding: 284 8244 284
Width: 1024
GlyphClass: 2
Flags: W
LayerCount: 2
Fore
SplineSet
744 1600 m 1,0,-1
 936 1536 l 1,1,-1
 712 1088 l 1,2,-1
 592 1136 l 1,3,-1
 744 1600 l 1,0,-1
208 1600 m 1,4,-1
 400 1536 l 1,5,-1
 176 1088 l 1,6,-1
 56 1136 l 1,7,-1
 208 1600 l 1,4,-1
476 1600 m 1,8,-1
 668 1536 l 1,9,-1
 444 1088 l 1,10,-1
 324 1136 l 1,11,-1
 476 1600 l 1,8,-1
EndSplineSet
Validated: 1
EndChar

StartChar: uni2035
Encoding: 285 8245 285
Width: 1024
GlyphClass: 2
Flags: W
LayerCount: 2
Fore
SplineSet
560 1600 m 1,0,-1
 712 1136 l 1,1,-1
 568 1088 l 1,2,-1
 344 1536 l 1,3,-1
 560 1600 l 1,0,-1
EndSplineSet
Validated: 1
EndChar

StartChar: uni2036
Encoding: 286 8246 286
Width: 1024
GlyphClass: 2
Flags: W
LayerCount: 2
Fore
SplineSet
368 1600 m 1,0,-1
 520 1136 l 1,1,-1
 376 1088 l 1,2,-1
 152 1536 l 1,3,-1
 368 1600 l 1,0,-1
752 1600 m 1,4,-1
 904 1136 l 1,5,-1
 760 1088 l 1,6,-1
 536 1536 l 1,7,-1
 752 1600 l 1,4,-1
EndSplineSet
Validated: 1
EndChar

StartChar: uni2037
Encoding: 287 8247 287
Width: 1024
GlyphClass: 2
Flags: W
LayerCount: 2
Fore
SplineSet
280 1600 m 1,0,-1
 432 1136 l 1,1,-1
 312 1088 l 1,2,-1
 88 1536 l 1,3,-1
 280 1600 l 1,0,-1
816 1600 m 1,4,-1
 968 1136 l 1,5,-1
 848 1088 l 1,6,-1
 624 1536 l 1,7,-1
 816 1600 l 1,4,-1
548 1600 m 1,8,-1
 700 1136 l 1,9,-1
 580 1088 l 1,10,-1
 356 1536 l 1,11,-1
 548 1600 l 1,8,-1
EndSplineSet
Validated: 1
EndChar

StartChar: guilsinglleft
Encoding: 288 8249 288
Width: 1024
GlyphClass: 2
Flags: W
LayerCount: 2
Fore
SplineSet
509 527 m 1,0,-1
 710 128 l 1,1,-1
 559 128 l 1,2,-1
 325 518 l 1,3,-1
 325 537 l 1,4,-1
 559 927 l 1,5,-1
 710 927 l 1,6,-1
 509 527 l 1,0,-1
EndSplineSet
Validated: 1
EndChar

StartChar: guilsinglright
Encoding: 289 8250 289
Width: 1024
GlyphClass: 2
Flags: W
LayerCount: 2
Fore
SplineSet
470 926 m 1,0,-1
 705 536 l 1,1,-1
 705 517 l 1,2,-1
 470 127 l 1,3,-1
 320 127 l 1,4,-1
 520 526 l 1,5,-1
 320 926 l 1,6,-1
 470 926 l 1,0,-1
EndSplineSet
Validated: 1
EndChar

StartChar: uni203B
Encoding: 290 8251 290
Width: 1024
GlyphClass: 2
Flags: W
LayerCount: 2
Fore
SplineSet
428 1104 m 128,-1,1
 428 1140 428 1140 452 1164 c 128,-1,2
 476 1188 476 1188 512 1188 c 128,-1,3
 548 1188 548 1188 572 1164 c 128,-1,4
 596 1140 596 1140 596 1104 c 128,-1,5
 596 1068 596 1068 572 1044 c 128,-1,6
 548 1020 548 1020 512 1020 c 128,-1,7
 476 1020 476 1020 452 1044 c 128,-1,0
 428 1068 428 1068 428 1104 c 128,-1,1
828 704 m 128,-1,9
 828 740 828 740 852 764 c 128,-1,10
 876 788 876 788 912 788 c 128,-1,11
 948 788 948 788 972 764 c 128,-1,12
 996 740 996 740 996 704 c 128,-1,13
 996 668 996 668 972 644 c 128,-1,14
 948 620 948 620 912 620 c 128,-1,15
 876 620 876 620 852 644 c 128,-1,8
 828 668 828 668 828 704 c 128,-1,9
428 304 m 128,-1,17
 428 340 428 340 452 364 c 128,-1,18
 476 388 476 388 512 388 c 128,-1,19
 548 388 548 388 572 364 c 128,-1,20
 596 340 596 340 596 304 c 128,-1,21
 596 268 596 268 572 244 c 128,-1,22
 548 220 548 220 512 220 c 128,-1,23
 476 220 476 220 452 244 c 128,-1,16
 428 268 428 268 428 304 c 128,-1,17
28 704 m 128,-1,25
 28 740 28 740 52 764 c 128,-1,26
 76 788 76 788 112 788 c 128,-1,27
 148 788 148 788 172 764 c 128,-1,28
 196 740 196 740 196 704 c 128,-1,29
 196 668 196 668 172 644 c 128,-1,30
 148 620 148 620 112 620 c 128,-1,31
 76 620 76 620 52 644 c 128,-1,24
 28 668 28 668 28 704 c 128,-1,25
23 1112 m 1,32,-1
 104 1193 l 1,33,-1
 512 785 l 1,34,-1
 920 1193 l 1,35,-1
 1001 1112 l 1,36,-1
 593 704 l 1,37,-1
 1001 296 l 1,38,-1
 920 215 l 1,39,-1
 512 623 l 1,40,-1
 104 215 l 1,41,-1
 23 296 l 1,42,-1
 431 704 l 1,43,-1
 23 1112 l 1,32,-1
EndSplineSet
Validated: 1
EndChar

StartChar: uni203E
Encoding: 292 8254 292
Width: 1024
GlyphClass: 2
Flags: W
LayerCount: 2
Fore
SplineSet
64 1576 m 1,0,-1
 64 1752 l 1,1,-1
 960 1752 l 1,2,-1
 960 1576 l 1,3,-1
 64 1576 l 1,0,-1
EndSplineSet
Validated: 1
EndChar

StartChar: uni2043
Encoding: 293 8259 293
Width: 1024
GlyphClass: 2
Flags: W
LayerCount: 2
Fore
SplineSet
244 902 m 1,0,-1
 780 902 l 1,1,-1
 780 518 l 1,2,-1
 244 518 l 1,3,-1
 244 902 l 1,0,-1
EndSplineSet
Validated: 1
EndChar

StartChar: fraction
Encoding: 294 8260 294
Width: 1024
GlyphClass: 2
Flags: W
LayerCount: 2
Fore
SplineSet
0 382 m 1,0,-1
 960 1152 l 1,1,-1
 1024 1024 l 1,2,-1
 64 250 l 1,3,-1
 0 382 l 1,0,-1
EndSplineSet
Validated: 1
EndChar

StartChar: uni2045
Encoding: 295 8261 295
Width: 1024
GlyphClass: 2
Flags: W
LayerCount: 2
Fore
SplineSet
704 -192 m 1,0,-1
 320 -192 l 1,1,-1
 320 1600 l 1,2,-1
 704 1600 l 1,3,-1
 704 1424 l 1,4,-1
 512 1424 l 1,5,-1
 512 792 l 1,6,-1
 704 792 l 1,7,-1
 704 616 l 1,8,-1
 512 616 l 1,9,-1
 512 -16 l 1,10,-1
 704 -16 l 1,11,-1
 704 -192 l 1,0,-1
EndSplineSet
Validated: 1
EndChar

StartChar: uni2046
Encoding: 296 8262 296
Width: 1024
GlyphClass: 2
Flags: W
LayerCount: 2
Fore
SplineSet
320 1600 m 1,0,-1
 704 1600 l 1,1,-1
 704 -192 l 1,2,-1
 320 -192 l 1,3,-1
 320 -16 l 1,4,-1
 512 -16 l 1,5,-1
 512 616 l 1,6,-1
 320 616 l 1,7,-1
 320 792 l 1,8,-1
 512 792 l 1,9,-1
 512 1424 l 1,10,-1
 320 1424 l 1,11,-1
 320 1600 l 1,0,-1
EndSplineSet
Validated: 1
EndChar

StartChar: uni2074
Encoding: 297 8308 297
Width: 1024
GlyphClass: 2
Flags: W
LayerCount: 2
Fore
SplineSet
799 876 m 1,0,-1
 947 876 l 1,1,-1
 947 743 l 1,2,-1
 799 743 l 1,3,-1
 799 560 l 1,4,-1
 624 560 l 1,5,-1
 624 743 l 1,6,-1
 170 743 l 1,7,-1
 166 842 l 1,8,-1
 619 1477 l 1,9,-1
 799 1477 l 1,10,-1
 799 876 l 1,0,-1
359 876 m 1,11,-1
 624 876 l 1,12,-1
 624 1255 l 1,13,-1
 606 1219 l 1,14,-1
 359 876 l 1,11,-1
EndSplineSet
Validated: 1
EndChar

StartChar: uni20DD
Encoding: 298 8413 298
Width: 1024
GlyphClass: 2
Flags: W
LayerCount: 2
Fore
SplineSet
56 704 m 128,-1,1
 56 580 56 580 117 475 c 128,-1,2
 178 370 178 370 283 309 c 128,-1,3
 388 248 388 248 512 248 c 128,-1,4
 636 248 636 248 741 309 c 128,-1,5
 846 370 846 370 907 475 c 128,-1,6
 968 580 968 580 968 704 c 128,-1,7
 968 828 968 828 907 933 c 128,-1,8
 846 1038 846 1038 741 1099 c 128,-1,9
 636 1160 636 1160 512 1160 c 128,-1,10
 388 1160 388 1160 283 1099 c 128,-1,11
 178 1038 178 1038 117 933 c 128,-1,0
 56 828 56 828 56 704 c 128,-1,1
0 704 m 128,-1,13
 0 843 0 843 68 961.5 c 128,-1,14
 136 1080 136 1080 254.5 1148 c 128,-1,15
 373 1216 373 1216 512 1216 c 128,-1,16
 651 1216 651 1216 769.5 1148 c 128,-1,17
 888 1080 888 1080 956 961.5 c 128,-1,18
 1024 843 1024 843 1024 704 c 128,-1,19
 1024 565 1024 565 956 446.5 c 128,-1,20
 888 328 888 328 769.5 260 c 128,-1,21
 651 192 651 192 512 192 c 128,-1,22
 373 192 373 192 254.5 260 c 128,-1,23
 136 328 136 328 68 446.5 c 128,-1,12
 0 565 0 565 0 704 c 128,-1,13
EndSplineSet
Validated: 1
EndChar

StartChar: uni2103
Encoding: 299 8451 299
Width: 1024
GlyphClass: 2
Flags: W
LayerCount: 2
Fore
SplineSet
948 456 m 1,0,1
 942 346 942 346 908.5 258 c 128,-1,2
 875 170 875 170 818.5 108 c 128,-1,3
 762 46 762 46 684 12.5 c 128,-1,4
 606 -21 606 -21 511 -21 c 0,5,6
 404 -21 404 -21 321 26.5 c 128,-1,7
 238 74 238 74 181.5 159.5 c 128,-1,8
 125 245 125 245 95.5 365 c 128,-1,9
 66 485 66 485 66 629 c 2,10,-1
 66 825 l 2,11,12
 66 970 66 970 97.5 1090 c 128,-1,13
 129 1210 129 1210 187 1296 c 128,-1,14
 245 1382 245 1382 327.5 1429.5 c 128,-1,15
 410 1477 410 1477 513 1477 c 0,16,17
 613 1477 613 1477 690.5 1443 c 128,-1,18
 768 1409 768 1409 822.5 1346 c 128,-1,19
 877 1283 877 1283 908.5 1192 c 128,-1,20
 940 1101 940 1101 949 987 c 1,21,-1
 716 987 l 1,22,23
 713 1052 713 1052 700 1101 c 128,-1,24
 687 1150 687 1150 662.5 1182.5 c 128,-1,25
 638 1215 638 1215 601 1231.5 c 128,-1,26
 564 1248 564 1248 513 1248 c 0,27,28
 459 1248 459 1248 419 1220 c 128,-1,29
 379 1192 379 1192 353 1138 c 128,-1,30
 327 1084 327 1084 314.5 1005.5 c 128,-1,31
 302 927 302 927 302 827 c 2,32,-1
 302 629 l 2,33,34
 302 414 302 414 352.5 311 c 128,-1,35
 403 208 403 208 511 208 c 0,36,37
 602 208 602 208 655.5 266.5 c 128,-1,38
 709 325 709 325 715 456 c 1,39,-1
 948 456 l 1,0,1
-160 1472 m 128,-1,41
 -160 1552 -160 1552 -104 1608 c 128,-1,42
 -48 1664 -48 1664 32 1664 c 128,-1,43
 112 1664 112 1664 168 1608 c 128,-1,44
 224 1552 224 1552 224 1472 c 128,-1,45
 224 1392 224 1392 168 1336 c 128,-1,46
 112 1280 112 1280 32 1280 c 128,-1,47
 -48 1280 -48 1280 -104 1336 c 128,-1,40
 -160 1392 -160 1392 -160 1472 c 128,-1,41
-76 1473 m 128,-1,49
 -76 1428 -76 1428 -44.5 1397 c 128,-1,50
 -13 1366 -13 1366 32 1366 c 128,-1,51
 77 1366 77 1366 108.5 1397 c 128,-1,52
 140 1428 140 1428 140 1473 c 128,-1,53
 140 1518 140 1518 108.5 1550 c 128,-1,54
 77 1582 77 1582 32 1582 c 128,-1,55
 -13 1582 -13 1582 -44.5 1550 c 128,-1,48
 -76 1518 -76 1518 -76 1473 c 128,-1,49
EndSplineSet
Validated: 1
EndChar

